<svg width="70" height="69" viewBox="0 0 70 69" fill="none" xmlns="http://www.w3.org/2000/svg">
<path d="M6.04902 15.9057C4.37247 20.8849 10.9762 27.6243 15.5209 32.1267C8.92348 32.3375 1.87574 34.3758 0.792996 37.4339C-0.508976 40.9418 7.18313 46.0511 14.335 47.0129C10.3423 55.0363 11.1546 65.7562 15.566 67.6866C22.3015 70.6072 30.2095 53.1791 30.2095 53.1791C30.2095 53.1791 49.7031 72.2748 53.986 67.5393C58.2689 62.8038 46.4761 44.4143 46.4761 44.4143C46.4761 44.4143 74.2672 33.1978 69.3542 27.8105C64.4412 22.4233 44.1031 26.7862 44.1031 26.7862C44.1031 26.7862 44.7378 0.242897 40.8903 0.603871C37.0427 0.964845 28.2876 20.6326 28.2876 20.6326C28.2876 20.6326 8.45424 8.6616 6.04902 15.9057Z" fill="#F77D07"/>
</svg>
