<svg width="154" height="154" viewBox="0 0 154 154" fill="none" xmlns="http://www.w3.org/2000/svg">
<path d="M152.29 101.408L135.392 81.5061C133.139 78.8775 133.139 75.1225 135.392 72.4939L152.29 52.5917C156.045 48.2733 153.229 41.5141 147.596 41.1386L121.498 38.8855C118.119 38.51 115.302 35.8815 115.115 32.5019L112.861 6.40372C112.298 0.77104 105.727 -2.0453 101.408 1.70982L81.5062 18.6079C78.8776 20.8609 75.1224 20.8609 72.4938 18.6079L52.5917 1.70982C48.2733 -2.0453 41.5141 0.77104 41.1386 6.40372L38.8854 32.5019C38.5099 35.8815 35.8815 38.6977 32.5019 38.8855L6.40373 41.1386C0.77104 41.7019 -2.0453 48.2733 1.70982 52.5917L18.6079 72.4939C20.861 75.1225 20.861 78.8775 18.6079 81.5061L1.70982 101.408C-2.0453 105.727 0.77104 112.486 6.40373 112.861L32.5019 115.115C35.8815 115.49 38.6976 118.119 38.8854 121.498L41.1386 147.596C41.7019 153.229 48.2733 156.045 52.5917 152.29L72.4938 135.392C75.1224 133.139 78.8776 133.139 81.5062 135.392L101.408 152.29C105.727 156.045 112.486 153.229 112.861 147.596L115.115 121.498C115.49 118.119 118.119 115.302 121.498 115.115L147.596 112.861C153.229 112.486 156.045 105.914 152.29 101.408Z" fill="#F77D07"/>
</svg>
