<svg width="211" height="158" viewBox="0 0 211 158" fill="none" xmlns="http://www.w3.org/2000/svg">
<path d="M63.0224 36.66C63.0224 36.66 79.5303 11.1478 55.8866 2.4218C10.705 -14.0708 -17.8334 72.502 12.883 88.8343C26.2657 95.95 45.0229 70.5122 45.0229 70.5122C45.0229 70.5122 29.7949 96.3844 47.4734 108.027C65.1518 119.67 73.9353 90.8523 73.9353 90.8523C73.9353 90.8523 69.1406 119.548 81.326 125.226C92.1703 130.351 104.029 113.583 106.404 110.039C103.62 114.968 104.497 131.458 117.523 144.472C129.662 156.695 143.252 136.361 146.225 131.693C144.626 135.009 141.412 146.279 169.921 156.31C203.477 168.223 222.511 96.1448 200.955 85.6447C182.203 76.6355 168.499 92.2621 165.277 96.4774C169.03 91.2628 184.359 67.0462 165.472 54.6006C148.049 43.0931 131.21 72.9162 131.21 72.9162C131.21 72.9162 146.016 45.3774 131.952 36.7774C117.759 28.1096 102.248 51.7481 99.74 55.5421C101.987 51.9301 114.984 28.717 100.858 19.9243C82.2157 8.24942 63.0224 36.66 63.0224 36.66Z" fill="#F77D07"/>
</svg>
