<svg width="69" height="78" viewBox="0 0 69 78" fill="none" xmlns="http://www.w3.org/2000/svg">
<path d="M40.8844 70.373C40.3432 71.4803 40.4087 72.7227 41.0471 73.8199C41.0816 73.873 41.1161 73.9261 41.1506 73.9793C41.7721 74.9363 42.8629 75.5885 44.0248 75.6653L64.6277 77.0247C66.6395 77.1544 68.3095 75.6163 68.4372 73.6438C68.5303 71.6181 66.9745 69.9074 65.0149 69.7438L49.9096 68.7448L56.6662 54.8332C57.1377 53.8468 57.1413 52.7107 56.6762 51.6522C56.1936 50.6807 55.3114 49.893 54.1847 49.6421L37.1812 45.4917L45.4761 33.3779C46.1906 32.3092 46.2816 30.9652 45.7475 29.8003C45.2134 28.6355 44.1058 27.8431 42.8748 27.66L24.0962 25.3426L31.151 10.406C31.6225 9.41962 31.6436 8.19648 31.1265 7.1718C30.6093 6.14712 29.6229 5.42725 28.5307 5.2295L5.14456 0.840143C3.18568 0.44939 1.29085 1.75552 0.97227 3.77645C0.619161 5.74421 1.94874 7.67738 3.95977 8.03427L22.6304 11.5554L15.4185 26.8208C14.9294 27.8942 14.9949 29.1367 15.5121 30.1613C16.1159 31.2053 17.1024 31.9252 18.2989 32.0552L36.1586 34.2135L28.2993 45.7421C27.6023 46.7238 27.4768 48.0146 27.8897 49.107C28.3371 50.2526 29.3059 51.0595 30.4672 51.3636L48.164 55.6684L40.8844 70.373Z" fill="#F77D07"/>
</svg>
