<svg width="56" height="119" viewBox="0 0 56 119" fill="none" xmlns="http://www.w3.org/2000/svg">
<path d="M18.05 91.2163C18.05 91.2163 1.88331 89.8414 3.6964 103.056C7.24704 128.262 55.2184 120.089 55.2184 101.681C55.2184 93.6606 38.5229 91.2163 38.5229 91.2163C38.5229 91.2163 54.5385 91.9038 55.5961 80.7518C56.6538 69.5999 40.8647 72.6552 40.8647 72.6552C40.8647 72.6552 55.5961 67.7667 55.2184 60.6631C54.9162 54.3233 44.0377 52.9484 41.7713 52.7193C44.7932 52.7957 52.3477 48.2891 55.2184 38.9704C57.938 30.2627 44.9442 28.9642 41.9979 28.735C43.9621 28.6587 50.0813 27.3601 47.6638 11.5489C44.8687 -7.08857 6.11389 1.92462 6.56716 14.6042C7.02044 25.6033 17.8234 28.124 20.6186 28.5823C17.2191 28.124 1.95881 26.9782 0.825632 38.894C-0.232005 49.8931 18.05 50.3514 18.05 50.3514C18.05 50.3514 1.35445 50.275 0.825632 58.9827C0.296814 67.7667 15.3304 69.1416 17.7478 69.3708C15.4815 69.218 1.27894 68.9125 0.674578 77.6965C-0.156422 89.3067 18.05 91.2163 18.05 91.2163Z" fill="#F77D07"/>
</svg>
