<svg width="82" height="113" viewBox="0 0 82 113" fill="none" xmlns="http://www.w3.org/2000/svg">
<path d="M62.9433 33.2096C62.9433 33.2096 76.8711 41.5324 81.0343 28.8607C88.8927 4.6489 42.1936 -9.03455 34.1239 7.51071C30.6081 14.7192 44.5424 24.235 44.5424 24.235C44.5424 24.235 30.449 16.5963 24.6098 26.1559C18.7705 35.7156 34.3009 39.8909 34.3009 39.8909C34.3009 39.8909 18.9175 37.8269 16.1429 44.3771C13.6354 50.2078 22.8102 56.2123 24.7467 57.4118C22.0642 56.0185 13.2987 56.7573 6.63346 63.8745C0.37188 70.5086 11.4814 77.3718 14.0291 78.8694C12.2302 78.077 6.16107 76.5616 1.40266 91.8324C-4.25516 109.809 34.5285 118.697 39.6795 107.102C44.0938 97.0172 35.4891 90.016 33.1777 88.3788C36.0323 90.2809 49.2458 98.0004 55.4879 87.7873C61.2602 78.365 45.0293 69.9388 45.0293 69.9388C45.0293 69.9388 60.0017 77.3263 64.2942 69.7317C68.6201 62.0685 55.7108 54.2424 53.6384 52.9767C55.6085 54.1075 68.2397 60.6081 72.6335 52.978C78.47 42.9071 62.9433 33.2096 62.9433 33.2096Z" fill="#F77D07"/>
</svg>
