<svg width="698" height="634" viewBox="0 0 698 634" fill="none" xmlns="http://www.w3.org/2000/svg">
<path d="M0.952077 396.714C18.1888 483.374 222.194 490.5 222.194 490.5C222.194 490.5 201.31 588.303 232.608 607.436C263.907 626.569 328.5 579 328.5 579C328.5 579 384.724 635.626 470 633C562.08 629.999 517.468 449.669 517.468 449.669C517.468 449.669 669.417 488.777 695.273 420.499C720.674 352.22 557.5 311.5 557.5 311.5C557.5 311.5 696.185 212.777 668.969 136.621C641.753 60.4644 517.468 133.995 517.468 133.995C517.468 133.995 491.613 2.6906 437.181 0.0645233C383.203 -2.56155 391.368 75.8457 391.368 75.8457C391.368 75.8457 311.988 -23.5701 232.608 5.31677C153.229 34.2036 222.194 100.076 222.194 100.076C222.194 100.076 84.3396 65.7166 61.2061 136.621C38.5262 207.525 206.232 300.5 206.232 300.5C206.232 300.5 -16.2846 310.053 0.952077 396.714Z" fill="#F77D07"/>
</svg>
