<svg width="1411" height="1112" viewBox="0 0 1411 1112" fill="none" xmlns="http://www.w3.org/2000/svg">
<path d="M1.93737 743.234C36.7754 905.591 316.129 842.444 316.129 842.444C316.129 842.444 328.534 970.128 391.793 1005.97C455.051 1041.82 595.75 921.548 595.75 921.548C595.75 921.548 778.203 1116.83 950.56 1111.91C1136.67 1106.29 1045.89 842.444 1045.89 842.444C1045.89 842.444 1353.01 915.712 1405.27 787.795C1456.61 659.877 1146.33 557.577 1146.33 557.577C1146.33 557.577 1407.11 398.633 1352.1 255.956C1297.09 113.279 1045.89 251.036 1045.89 251.036C1045.89 251.036 993.638 5.04078 883.623 0.120883C774.525 -4.79902 791.027 142.095 791.027 142.095C791.027 142.095 630.589 -44.158 470.15 9.96085C309.712 64.0798 449.102 187.49 449.102 187.49C449.102 187.49 170.476 123.119 123.72 255.956C77.8805 388.793 413.647 557.577 413.647 557.577C413.647 557.577 -32.9007 580.877 1.93737 743.234Z" fill="#F77D07"/>
</svg>
