<svg width="1440" height="1391" viewBox="0 0 1440 1391" fill="none" xmlns="http://www.w3.org/2000/svg">
<path d="M-331.431 929.711C-283.835 1132.8 97.8231 1053.81 97.8231 1053.81C97.8231 1053.81 114.771 1213.53 201.196 1258.37C287.621 1303.21 479.847 1152.76 479.847 1152.76C479.847 1152.76 729.117 1397.04 964.594 1390.89C1218.86 1383.85 1094.84 1053.81 1094.84 1053.81C1094.84 1053.81 1514.43 1145.46 1585.82 985.452C1655.96 825.44 1340.63 665.206 1340.63 665.206C1340.63 665.206 1588.34 498.65 1513.19 320.175C1438.04 141.7 1094.84 314.021 1094.84 314.021C1094.84 314.021 1023.45 6.30551 873.143 0.151213C724.091 -6.00309 746.637 177.747 746.637 177.747C746.637 177.747 527.444 -55.2373 308.25 12.46C89.056 80.1573 279.493 234.531 279.493 234.531C279.493 234.531 -101.17 154.009 -165.05 320.175C-227.676 486.341 65.2059 616.828 65.2059 616.828C65.2059 616.828 -379.028 726.619 -331.431 929.711Z" fill="#F77D07"/>
</svg>
