<svg width="1931" height="1391" viewBox="0 0 1931 1391" fill="none" xmlns="http://www.w3.org/2000/svg">
<path d="M3.5687 929.711C51.1651 1132.8 432.823 1053.81 432.823 1053.81C432.823 1053.81 449.771 1213.53 536.196 1258.37C622.621 1303.21 814.847 1152.76 814.847 1152.76C814.847 1152.76 1064.12 1397.04 1299.59 1390.89C1553.86 1383.85 1429.84 1053.81 1429.84 1053.81C1429.84 1053.81 1849.43 1145.46 1920.82 985.452C1990.96 825.44 1675.63 665.206 1675.63 665.206C1675.63 665.206 1923.34 498.65 1848.19 320.175C1773.04 141.7 1429.84 314.021 1429.84 314.021C1429.84 314.021 1358.45 6.30551 1208.14 0.151213C1059.09 -6.00309 1081.64 177.747 1081.64 177.747C1081.64 177.747 862.444 -55.2373 643.25 12.46C424.056 80.1573 614.493 234.531 614.493 234.531C614.493 234.531 233.83 154.009 169.95 320.175C107.324 486.341 400.206 616.828 400.206 616.828C400.206 616.828 -44.0277 726.619 3.5687 929.711Z" fill="#F77D07"/>
</svg>
