<svg aria-hidden="true" style="position: absolute; width: 0; height: 0; overflow: hidden;" version="1.1" xmlns="http://www.w3.org/2000/svg" xmlns:xlink="http://www.w3.org/1999/xlink">
<defs>
<symbol id="icon-building1" viewBox="0 0 64 32">
<path d="M32.023 0c-17.658 0-32.023 14.309-32.023 32h64c0.046-17.691-14.273-32-31.977-32z"></path>
</symbol>
<symbol id="icon-building2" viewBox="0 0 32 32">
<path d="M23.361 8.674l-0.726-8.674-6.635 5.633-6.635-5.633-0.691 8.674-8.674 0.726 5.633 6.6-5.633 6.635 8.674 0.726 0.691 8.639 6.635-5.598 6.635 5.598 0.726-8.639 8.639-0.726-5.598-6.635 5.598-6.6-8.639-0.726z"></path>
</symbol>
<symbol id="icon-building3" viewBox="0 0 15 32">
<path d="M4.854 24.529c0 0-4.347-0.37-3.86 3.184 0.955 6.778 13.855 4.58 13.855-0.37 0-2.157-4.49-2.814-4.49-2.814s4.307 0.185 4.591-2.814c0.284-2.999-3.961-2.177-3.961-2.177s3.961-1.315 3.86-3.225c-0.081-1.705-3.007-2.075-3.616-2.136 0.813 0.021 2.844-1.191 3.616-3.697 0.731-2.342-2.763-2.691-3.555-2.752 0.528-0.021 2.174-0.37 1.524-4.621-0.752-5.012-11.173-2.588-11.051 0.822 0.122 2.958 3.027 3.636 3.779 3.759-0.914-0.123-5.018-0.431-5.322 2.773-0.284 2.958 4.632 3.081 4.632 3.081s-4.49-0.021-4.632 2.321c-0.142 2.362 3.9 2.732 4.551 2.793-0.609-0.041-4.429-0.123-4.591 2.239-0.223 3.122 4.672 3.636 4.672 3.636z"></path>
</symbol>
<symbol id="icon-building4" viewBox="0 0 47 32">
<path d="M44.556 7.393c-9.092-5.591-12.494 8.718-12.494 8.718s1.558-17.563-9.982-16.015c-11.572 1.548-4.578 14.751-4.578 14.751s-10.046-12.319-16.118-5.401c-6.072 6.918 8.933 22.522 23.621 22.553 16.913 0.031 25.687-20.816 19.551-24.607z"></path>
</symbol>
<symbol id="icon-info" viewBox="0 0 32 32">
<path d="M14 9.5c0-0.825 0.675-1.5 1.5-1.5h1c0.825 0 1.5 0.675 1.5 1.5v1c0 0.825-0.675 1.5-1.5 1.5h-1c-0.825 0-1.5-0.675-1.5-1.5v-1z"></path>
<path d="M20 24h-8v-2h2v-6h-2v-2h6v8h2z"></path>
<path d="M16 0c-8.837 0-16 7.163-16 16s7.163 16 16 16 16-7.163 16-16-7.163-16-16-16zM16 29c-7.18 0-13-5.82-13-13s5.82-13 13-13 13 5.82 13 13-5.82 13-13 13z"></path>
</symbol>
</defs>
</svg>
