<svg aria-hidden="true" style="position: absolute; width: 0; height: 0; overflow: hidden;" version="1.1" xmlns="http://www.w3.org/2000/svg" xmlns:xlink="http://www.w3.org/1999/xlink">
<defs>

<symbol id="icon-Vector-1" viewBox="0 0 35 32">
<path fill="none" stroke="#fff" style="stroke: var(--color1, #fff)" stroke-linejoin="miter" stroke-linecap="butt" stroke-miterlimit="4" stroke-width="6.4324" d="M1.778 19.555l10.667 7.111 19.556-21.333"></path>
</symbol>

<symbol id="main-logo" viewBox="0 0 92 32">
<title>MISTOHUB</title>
<path d="M38.744 5.446h-0.205v5.606h-3.397v-10.157h4.666l2.067 5.891h0.246l2.067-5.891h4.666v10.157h-3.397v-5.606h-0.225l-2.006 5.606h-2.456l-2.026-5.606z"></path>
<path d="M51.657 0.896h3.438v10.157h-3.438v-10.157z"></path>
<path d="M68.544 6.99v0.65c-0.532 1.93-2.742 3.656-5.567 3.656-3.254 0-5.649-2.072-5.649-5.322s2.395-5.322 5.649-5.322c2.701 0 5.035 1.706 5.567 3.656v0.65h-3.602c-0.327-0.691-1.044-1.097-1.965-1.097-1.31 0-2.169 0.792-2.169 2.113s0.86 2.113 2.169 2.113c0.921 0 1.637-0.406 1.965-1.097h3.602z"></path>
<path d="M76.4 11.053h-3.438v-6.988h-3.111v-3.169h9.639v3.169h-3.090v6.988z"></path>
<path d="M80.8 5.974c0-3.25 2.395-5.322 5.649-5.322s5.648 2.072 5.648 5.322c0 3.25-2.395 5.322-5.648 5.322s-5.649-2.072-5.649-5.322zM84.279 5.974c0 1.32 0.859 2.113 2.17 2.113s2.169-0.792 2.169-2.113-0.859-2.113-2.169-2.113c-1.31 0-2.17 0.792-2.17 2.113z"></path>
<path d="M40.894 28.867h-0.266l-1.944 2.498h-3.541v-0.65l3.438-4.205v-0.508l-3.336-4.144v-0.65h3.643l1.903 2.356h0.246l1.821-2.356h3.541v0.65l-3.295 4.083v0.488l3.459 4.286v0.65h-3.643l-2.026-2.498zM38.766 26.227v0.061l0.020-0.041-0.020-0.020zM42.92 26.206v-0.020h-0.021l0.021 0.020z"></path>
<path d="M58.925 31.366h-3.438v-0.955c-0.798 0.772-1.842 1.198-3.049 1.198-2.64 0-4.564-2.072-4.564-5.322s1.924-5.322 4.564-5.322c1.208 0 2.251 0.447 3.049 1.219v-0.975h3.438v10.157zM55.61 26.288c0-1.32-0.839-2.113-2.128-2.113s-2.128 0.792-2.128 2.113 0.839 2.113 2.128 2.113c1.289 0 2.128-0.792 2.128-2.113z"></path>
<path d="M72.473 26.592c0 3.047-2.701 5.017-5.403 5.017-3.479 0-5.894-2.499-5.894-6.805 0-4.55 3.111-6.927 6.549-7.313 0.552-0.061 1.187-0.183 1.187-0.569h3.172c0 2.62-1.617 3.453-4.359 3.778-1.924 0.244-3.090 0.772-3.643 2.316l0.082 0.041c0.737-0.833 1.883-1.503 3.234-1.503 3.111 0 5.076 2.113 5.076 5.038zM67.007 28.441c1.269 0 2.128-0.711 2.128-1.991s-0.86-1.991-2.128-1.991c-1.269 0-2.128 0.711-2.128 1.991s0.86 1.991 2.128 1.991z"></path>
<path fill="#f77d07" style="fill: var(--color2, #f77d07)" d="M28.165 17.86h-28.142v-9.186l14.072-8.284 14.070 8.284v9.186z"></path>
<path fill="#f77d07" style="fill: var(--color2, #f77d07)" d="M28.187 31.303c-3.461 0-5.352-1.272-6.731-2.2-1.011-0.68-1.429-0.961-2.665-0.961s-1.656 0.282-2.665 0.961c-1.379 0.928-3.27 2.2-6.731 2.2s-5.352-1.272-6.731-2.202c-1.011-0.68-1.429-0.961-2.665-0.961v-7.189c3.461 0 5.352 1.272 6.731 2.202 1.011 0.68 1.429 0.961 2.665 0.961s1.656-0.282 2.665-0.961c1.379-0.928 3.27-2.2 6.731-2.2s5.352 1.272 6.731 2.202c1.011 0.68 1.429 0.961 2.665 0.961v7.187z"></path>
<path fill="#f77d07" style="fill: var(--color2, #f77d07)" d="M92.003 24.126v7.211h-12.484v-7.211c0-3.419 2.797-6.195 6.242-6.195s6.242 2.777 6.242 6.195z"></path>
</symbol>
<symbol id="cloud" viewBox="0 0 66 32">
<path d="M31.206 5.564c0 0-0.86-4.984-5.189-5.476s-5.727 5.118-5.727 5.118c-7.784-8.937-10.572 4.569-10.572 4.569s-5.975-3.552-9.209 1.391c-2.447 3.768 4.992 7.778 4.992 7.778s-4.679 1.822 0.595 8.506c5.271 6.638 13.33-3.875 13.33-3.875s-1.135 6.432 4.774 8.307c5.96 1.872 7.382-8.503 7.382-8.503s0.912 7.923 6.255 7.55c5.343-0.374 6.443-7.316 6.443-7.316s0.279 6.193 6.108 5.458c5.829-0.735 6.127-5.987 6.127-5.987s7.214 2.251 9.312-0.651c2.098-2.902-4.147-5.922-4.147-5.922s4.108-4.865 0.714-7.336c-3.394-2.472-6.486 1.575-6.486 1.575s0.789-6.267-3.503-6.948c-4.343-0.677-7.985 3.548-7.985 3.548s0.503-5.967-4.74-7.095c-5.345-1.121-8.475 5.31-8.475 5.31z"></path>
</symbol>
<symbol id="burger-menu" viewBox="0 0 37 32">
<title>Menu</title>
<path stroke-linejoin="round" stroke-linecap="round" stroke-width="2.1787" d="M31.5 18.673h-27.234"></path>
<path stroke-linejoin="round" stroke-linecap="round" stroke-width="2.1787" d="M31.5 13.34h-27.234"></path>
</symbol>
       
<symbol id="icon-building1" viewBox="0 0 64 32">
<path d="M32.023 0C14.365 0 0 14.309 0 32h64c.046-17.691-14.273-32-31.977-32z" />
</symbol>
<symbol id="icon-building2" viewBox="0 0 32 32">
<path d="M23.361 8.674 22.635 0 16 5.633 9.365 0l-.691 8.674L0 9.4 5.633 16 0 22.635l8.674.726L9.365 32 16 26.402 22.635 32l.726-8.639L32 22.635 26.402 16 32 9.4l-8.639-.726z" />
</symbol>
<symbol id="icon-building3" viewBox="0 0 15 32">
<path d="M4.854 24.529s-4.347-.37-3.86 3.184c.955 6.778 13.855 4.58 13.855-.37 0-2.157-4.49-2.814-4.49-2.814s4.307.185 4.591-2.814c.284-2.999-3.961-2.177-3.961-2.177s3.961-1.315 3.86-3.225c-.081-1.705-3.007-2.075-3.616-2.136.813.021 2.844-1.191 3.616-3.697.731-2.342-2.763-2.691-3.555-2.752.528-.021 2.174-.37 1.524-4.621-.752-5.012-11.173-2.588-11.051.822.122 2.958 3.027 3.636 3.779 3.759-.914-.123-5.018-.431-5.322 2.773-.284 2.958 4.632 3.081 4.632 3.081s-4.49-.021-4.632 2.321c-.142 2.362 3.9 2.732 4.551 2.793-.609-.041-4.429-.123-4.591 2.239-.223 3.122 4.672 3.636 4.672 3.636z" />
</symbol>
<symbol id="icon-building4" viewBox="0 0 47 32">
<path d="M44.556 7.393c-9.092-5.591-12.494 8.718-12.494 8.718S33.62-1.452 22.08.096c-11.572 1.548-4.578 14.751-4.578 14.751S7.456 2.528 1.384 9.446c-6.072 6.918 8.933 22.522 23.621 22.553 16.913.031 25.687-20.816 19.551-24.607z" />
</symbol>

<symbol id="house" viewBox="0 0 50 50">
<path d="M36.087 22.883H.029v-11.77L18.06.5l18.028 10.614v11.769Z" />
</symbol>
<symbol id="wave" viewBox="0 0 64 64">
<path d="M36.115 14.107c-4.434 0-6.857-1.63-8.624-2.819-1.296-.872-1.83-1.23-3.414-1.23s-2.122.361-3.414 1.23c-1.768 1.19-4.19 2.819-8.625 2.819-4.434 0-6.857-1.63-8.624-2.821-1.295-.872-1.83-1.231-3.414-1.231V.844c4.434 0 6.857 1.63 8.624 2.821 1.296.872 1.83 1.231 3.414 1.231s2.122-.362 3.414-1.23c1.768-1.19 4.19-2.82 8.625-2.82 4.434 0 6.857 1.63 8.624 2.822 1.295.872 1.83 1.23 3.414 1.23v9.212-.003Z" />
</symbol>

<symbol id="icon-arrow-left" viewBox="0 0 32 32">
<path d="M26.080 14.721h-17.078l5.227-5.58c0.244-0.261 0.362-0.598 0.327-0.937s-0.22-0.651-0.514-0.868-0.673-0.322-1.054-0.291c-0.381 0.031-0.732 0.196-0.976 0.457l-7.2 7.679c-0.048 0.061-0.092 0.125-0.13 0.192 0 0.064 0 0.102-0.101 0.166-0.065 0.147-0.099 0.303-0.101 0.461 0.001 0.158 0.036 0.314 0.101 0.461 0 0.064 0 0.102 0.101 0.166 0.038 0.067 0.081 0.131 0.13 0.192l7.2 7.679c0.135 0.144 0.305 0.261 0.497 0.34s0.401 0.121 0.612 0.12c0.336 0.001 0.663-0.104 0.922-0.294 0.146-0.108 0.266-0.239 0.355-0.388s0.143-0.312 0.16-0.48c0.017-0.168-0.002-0.337-0.059-0.497s-0.148-0.31-0.269-0.439l-5.227-5.58h17.078c0.382 0 0.748-0.135 1.018-0.375s0.422-0.566 0.422-0.905-0.152-0.665-0.422-0.905c-0.27-0.24-0.636-0.375-1.018-0.375z"></path>
</symbol>
<symbol id="icon-arrow-right" viewBox="0 0 32 32">
<path d="M5.92 14.721h17.078l-5.227-5.58c-0.244-0.261-0.362-0.598-0.327-0.937s0.22-0.651 0.514-0.868 0.673-0.322 1.054-0.291c0.381 0.031 0.732 0.196 0.976 0.457l7.2 7.679c0.048 0.061 0.092 0.125 0.13 0.192 0 0.064 0 0.102 0.101 0.166 0.065 0.147 0.099 0.303 0.101 0.461-0.001 0.158-0.035 0.314-0.101 0.461 0 0.064 0 0.102-0.101 0.166-0.038 0.067-0.081 0.131-0.13 0.192l-7.2 7.679c-0.135 0.144-0.305 0.261-0.497 0.34s-0.401 0.121-0.612 0.12c-0.336 0.001-0.663-0.104-0.922-0.294-0.146-0.108-0.266-0.239-0.355-0.388s-0.143-0.312-0.16-0.48c-0.017-0.168 0.002-0.337 0.059-0.497s0.148-0.31 0.269-0.439l5.227-5.58h-17.078c-0.382 0-0.748-0.135-1.018-0.375s-0.422-0.566-0.422-0.905c0-0.339 0.152-0.665 0.422-0.905s0.636-0.375 1.018-0.375z"></path>
</symbol>
<symbol id="icon-closeX" viewBox="0 0 32 32">
<path stroke-linejoin="round" stroke-linecap="round" stroke-miterlimit="4" stroke-width="4.5714" d="M29.333 2.667l-26.667 26.667M2.667 2.667l26.667 26.667"></path>
</symbol>

<symbol id="arrow-right2" viewBox="0 0 36 32">
<title>Arrow Right</title>
<path d="M2.222 13.778h26.356l-8.067-9.689c-0.377-0.454-0.559-1.039-0.505-1.627s0.34-1.13 0.793-1.507c0.454-0.377 1.039-0.559 1.627-0.504s1.13 0.34 1.507 0.793l11.111 13.333c0.075 0.106 0.142 0.217 0.2 0.333 0 0.111 0 0.178 0.156 0.289 0.101 0.255 0.153 0.526 0.156 0.8-0.002 0.274-0.055 0.545-0.156 0.8 0 0.111 0 0.178-0.156 0.289-0.058 0.116-0.125 0.227-0.2 0.333l-11.111 13.333c-0.209 0.251-0.471 0.453-0.766 0.591s-0.618 0.21-0.945 0.209c-0.519 0.001-1.022-0.18-1.422-0.511-0.225-0.187-0.411-0.416-0.547-0.674s-0.22-0.541-0.247-0.833c-0.027-0.291 0.004-0.585 0.091-0.864s0.228-0.538 0.415-0.763l8.067-9.689h-26.356c-0.589 0-1.155-0.234-1.571-0.651s-0.651-0.982-0.651-1.571 0.234-1.155 0.651-1.571c0.417-0.417 0.982-0.651 1.571-0.651z"></path>
</symbol>
<symbol id="arrow-left2" viewBox="0 0 36 32">
<title>Arrow Left</title>
<path d="M33.333 13.778h-26.356l8.067-9.689c0.377-0.454 0.559-1.039 0.505-1.627s-0.34-1.13-0.793-1.507c-0.454-0.377-1.039-0.559-1.627-0.504s-1.13 0.34-1.507 0.793l-11.111 13.333c-0.075 0.106-0.142 0.217-0.2 0.333 0 0.111 0 0.178-0.156 0.289-0.101 0.255-0.153 0.526-0.156 0.8 0.002 0.274 0.055 0.545 0.156 0.8 0 0.111 0 0.178 0.156 0.289 0.058 0.116 0.125 0.227 0.2 0.333l11.111 13.333c0.209 0.251 0.471 0.453 0.766 0.591s0.618 0.21 0.945 0.209c0.519 0.001 1.022-0.18 1.422-0.511 0.225-0.187 0.411-0.416 0.547-0.674s0.22-0.541 0.247-0.833c0.027-0.291-0.004-0.585-0.091-0.864s-0.228-0.538-0.415-0.763l-8.067-9.689h26.356c0.589 0 1.155-0.234 1.571-0.651s0.651-0.982 0.651-1.571-0.234-1.155-0.651-1.571c-0.417-0.417-0.982-0.651-1.571-0.651z"></path>
</symbol>
<symbol id="close" viewBox="0 0 20 20">
<title>Close</title>
<path d="M10 8.586l-7.071-7.071-1.414 1.414 7.071 7.071-7.071 7.071 1.414 1.414 7.071-7.071 7.071 7.071 1.414-1.414-7.071-7.071 7.071-7.071-1.414-1.414-7.071 7.071z"></path>
</symbol>
<symbol id="heart" viewBox="0 0 32 32">
<title>Heart</title>
<path d="M23.6 2c-3.363 0-6.258 2.736-7.599 5.594-1.342-2.858-4.237-5.594-7.601-5.594-4.637 0-8.4 3.764-8.4 8.401 0 9.433 9.516 11.906 16.001 21.232 6.13-9.268 15.999-12.1 15.999-21.232 0-4.637-3.763-8.401-8.4-8.401z"></path>
</symbol>
<symbol id="logoGoIT" viewBox="0 0 107 32">
<title>Logo Black Go IT</title>
<path fill="#0b0b0b" style="fill: var(--color1, #0b0b0b)" d="M106.667 0v32h-46.933v-32h46.933zM74.555 8.811v13.927c0 0.015 0 0.030 0.001 0.044 0.001 0.029 0.001 0.059-0.001 0.087-0.007 0.080 0.015 0.128 0.107 0.115 0.022-0.002 0.044-0.002 0.066-0.001l0.012 0c0.007 0 0.014 0 0.021 0 0.388 0 0.777 0 1.166 0h0.004c0.777 0 1.555 0.001 2.332-0 0.025 0 0.046 0 0.066 0 0.075 0.001 0.111 0.001 0.129-0.017s0.016-0.051 0.014-0.116c-0-0.022-0.001-0.048-0.001-0.078v-13.943c0-0.011-0-0.022-0.001-0.033-0.001-0.022-0.001-0.044 0.001-0.066 0.008-0.082-0.020-0.125-0.108-0.115-0.017 0.002-0.036 0.001-0.054 0.001-0.009-0-0.019-0.001-0.028-0.001-0.392 0-0.785-0-1.178-0-0.786-0-1.572-0.001-2.357 0-0.023 0-0.044-0-0.062-0.001-0.065-0.001-0.097-0.001-0.113 0.015s-0.016 0.049-0.015 0.116c0 0.019 0.001 0.040 0.001 0.064zM94.052 8.617h-5.839c-1.946 0-3.892 0-5.836-0.002-0.015 0-0.030 0-0.044 0-0.029 0-0.058 0.001-0.088-0-0.066-0.003-0.089 0.028-0.084 0.089 0.001 0.019 0.001 0.036 0 0.054-0 0.009-0 0.018-0 0.028v3.335l-0 0.035c-0 0.072-0.001 0.107 0.017 0.124s0.051 0.016 0.117 0.016l0.045-0h3.668c0.12 0 0.179 0 0.208 0.030s0.029 0.086 0.029 0.2v10.282c0 0.020-0 0.037-0.001 0.053-0.001 0.059-0.001 0.090 0.014 0.106 0.017 0.017 0.052 0.017 0.126 0.017l0.036-0h3.52c0.11 0 0.165 0 0.192-0.027s0.027-0.080 0.027-0.186v-10.282c0-0.022-0-0.042-0.001-0.059-0.001-0.064-0.001-0.097 0.015-0.114 0.018-0.018 0.055-0.018 0.133-0.018l0.049 0h3.734c0.161 0 0.161 0 0.163-0.159v-3.318c0-0.023 0-0.043 0-0.061 0.001-0.072 0.001-0.108-0.016-0.126s-0.052-0.017-0.122-0.016c-0.018 0-0.039 0.001-0.063 0.001z"></path>
<path d="M30.661 14.21c0.666-1.227 1.729-1.815 2.762-1.838 2.094-0.005 3.464 1.173 3.837 2.806 0.226 0.984 0.125 1.94-0.358 2.834-0.57 1.050-1.458 1.661-2.654 1.797-1.156 0.133-2.165-0.194-2.99-1.025-0.529-0.532-0.847-1.181-0.983-1.914-0.172-0.928-0.066-1.827 0.386-2.66z"></path>
<path d="M46.933 0l12.8 16-12.8 16h-46.933v-32h46.933zM20.752 13.662c0.071 0.058 0.143 0.116 0.215 0.174 0.048-0.029 0.078-0.069 0.106-0.107 0.006-0.009 0.013-0.018 0.020-0.026 0.254-0.302 0.506-0.605 0.759-0.909l0.001-0.001c0.507-0.606 1.012-1.212 1.518-1.82 0.101-0.122 0.097-0.177-0.018-0.276-0.091-0.079-0.183-0.156-0.277-0.233-0.803-0.657-1.685-1.17-2.684-1.467-0.667-0.197-1.349-0.306-2.043-0.353-0.905-0.061-1.802-0.031-2.691 0.174-3.112 0.716-5.434 3.292-5.707 6.594-0.073 0.89-0.003 1.772 0.225 2.638 0.519 1.96 1.645 3.461 3.434 4.45 0.975 0.539 2.030 0.823 3.14 0.912 0.94 0.076 1.87 0.018 2.788-0.189 1.553-0.35 2.925-1.056 4.146-2.067 0.098-0.080 0.137-0.161 0.137-0.289-0.004-1.572-0.004-3.145-0.003-4.717l0-1.179c0-0.020-0.001-0.041-0.003-0.062-0.003-0.046-0.006-0.092 0.006-0.134 0.015-0.049-0.012-0.077-0.037-0.104-0.021-0.022-0.042-0.044-0.039-0.077 0.007-0.054-0.030-0.062-0.073-0.062h-6.556c-0.013 0-0.025 0-0.038 0.001-0.026 0.001-0.052 0.002-0.077-0.001-0.066-0.007-0.087 0.026-0.083 0.087 0.002 0.025 0.002 0.051 0.001 0.077-0 0.013-0.001 0.025-0.001 0.038 0 0.345-0 0.69-0 1.035-0 0.69-0.001 1.38 0 2.070 0 0.028-0.001 0.053-0.001 0.074-0.001 0.063-0.002 0.096 0.014 0.112s0.052 0.017 0.125 0.016c0.018-0 0.039-0 0.062-0h2.593c0.023 0 0.043-0 0.061-0 0.072-0.001 0.107-0.001 0.124 0.016 0.016 0.016 0.015 0.048 0.014 0.11-0 0.022-0.001 0.048-0.001 0.078 0.001 0.15 0.001 0.299 0 0.449-0 0.075-0 0.15-0 0.225v0.005c0 0.308 0 0.311-0.279 0.445-0.818 0.391-1.681 0.503-2.573 0.391-0.991-0.123-1.784-0.591-2.365-1.401-0.378-0.527-0.585-1.122-0.662-1.763-0.097-0.818 0.002-1.605 0.373-2.348 0.448-0.892 1.125-1.533 2.098-1.827 0.682-0.207 1.373-0.153 2.056-0.003 0.619 0.135 1.159 0.437 1.657 0.816 0.182 0.138 0.359 0.281 0.539 0.427zM39.098 10.682c-1.528-1.39-3.348-2.052-5.229-2.066-0.869 0.002-1.518 0.072-2.207 0.251-1.998 0.521-3.563 1.638-4.602 3.422-1.067 1.83-1.283 3.793-0.687 5.812 0.667 2.257 2.089 3.9 4.29 4.815 1.69 0.701 3.44 0.795 5.206 0.332 2.051-0.537 3.624-1.725 4.654-3.578 0.869-1.562 1.102-3.238 0.778-4.987-0.291-1.572-1.017-2.919-2.203-4z"></path>
</symbol>

<symbol id="goit" viewBox="0 0 59 18">
<path fillRule="evenodd" clipRule="evenodd" d="M59.0003 0H33.04V18H59.0003V0ZM41.2384 4.95611V12.79C41.2384 12.7983 41.2386 12.8067 41.2388 12.815C41.2392 12.8315 41.2396 12.8479 41.2384 12.8639C41.2347 12.9092 41.2466 12.936 41.2975 12.9286C41.3096 12.9274 41.3218 12.9278 41.3339 12.9282L41.3404 12.9284C41.3443 12.9285 41.3482 12.9286 41.3521 12.9286C41.5669 12.9286 41.7818 12.9287 41.9968 12.9288H41.9988C42.4287 12.929 42.8588 12.9292 43.289 12.9286C43.3026 12.9286 43.3146 12.9287 43.3252 12.9289C43.3665 12.9294 43.3867 12.9297 43.3963 12.9196C43.4054 12.91 43.405 12.891 43.4042 12.8541C43.4039 12.8417 43.4036 12.8272 43.4036 12.8103V4.9672C43.4036 4.96104 43.4034 4.95488 43.4032 4.94872C43.4028 4.9364 43.4024 4.92408 43.4036 4.91176C43.4082 4.86556 43.3927 4.84153 43.3436 4.84707C43.3339 4.8483 43.3238 4.8479 43.3136 4.84749C43.3085 4.84728 43.3033 4.84707 43.2981 4.84707C43.0811 4.84707 42.8639 4.84697 42.6468 4.84687C42.2122 4.84666 41.7773 4.84646 41.343 4.84707C41.3301 4.84707 41.3188 4.8469 41.3089 4.84675C41.2731 4.8462 41.2551 4.84593 41.2462 4.85493C41.2372 4.86404 41.2375 4.88262 41.2381 4.91999C41.2382 4.93048 41.2384 4.94245 41.2384 4.95611ZM52.0227 4.84735H48.793C47.7168 4.84735 46.6405 4.84735 45.5652 4.84642C45.557 4.84642 45.5489 4.84653 45.5408 4.84663C45.5248 4.84683 45.5088 4.84704 45.4924 4.84642C45.456 4.84457 45.4433 4.86213 45.446 4.89632C45.4466 4.90675 45.4464 4.91677 45.4462 4.92692C45.4461 4.93205 45.446 4.93725 45.446 4.94252V6.81829L45.446 6.83774C45.4458 6.878 45.4457 6.89784 45.4554 6.90751C45.4648 6.91688 45.4834 6.91672 45.5201 6.91638L45.5452 6.91624H47.574C47.6401 6.91624 47.6728 6.91624 47.6891 6.93289C47.705 6.94921 47.705 6.98155 47.705 7.0456V12.8291C47.705 12.8402 47.7048 12.85 47.7047 12.8588C47.7042 12.892 47.704 12.9094 47.7124 12.9184C47.7216 12.9283 47.7412 12.9282 47.7822 12.928L47.8023 12.9279H49.7492C49.8102 12.9279 49.8404 12.9279 49.8554 12.9126C49.8702 12.8974 49.8702 12.8674 49.8702 12.8078V7.02435C49.8702 7.0118 49.87 7.0007 49.8699 6.9909C49.8693 6.95515 49.8691 6.93656 49.8781 6.92696C49.8878 6.91657 49.9084 6.91672 49.9514 6.91703L49.9785 6.91716H52.0436C52.1328 6.91716 52.1328 6.91716 52.1337 6.82753V4.961C52.1337 4.94818 52.1338 4.93679 52.1339 4.92667C52.1344 4.886 52.1347 4.86582 52.1249 4.85595C52.1152 4.84623 52.0958 4.8465 52.0574 4.84704C52.0472 4.84718 52.0357 4.84735 52.0227 4.84735Z" fill="#0B0B0B" />
<path d="M16.9595 7.99323C17.3276 7.30298 17.916 6.97218 18.487 6.95925C19.6454 6.95647 20.4028 7.619 20.6093 8.53748C20.7344 9.09097 20.6787 9.62875 20.411 10.1314C20.0958 10.7219 19.6043 11.0656 18.9429 11.1423C18.3034 11.2171 17.7451 11.0333 17.2893 10.5657C16.9969 10.2663 16.8206 9.90134 16.7457 9.48923C16.6507 8.96715 16.7091 8.46171 16.9595 7.99323Z" fill="#F77D07" />
<path fillRule="evenodd" clipRule="evenodd" d="M25.96 0H0V18H25.96L33.04 9L25.96 0ZM11.4785 7.68469C11.5179 7.71717 11.5576 7.74984 11.5977 7.78259C11.6244 7.76611 11.6408 7.74355 11.6563 7.72231C11.6599 7.71737 11.6635 7.71245 11.6671 7.70775C11.8077 7.53793 11.9473 7.36719 12.0869 7.19644C12.3674 6.85548 12.6474 6.51391 12.927 6.17202C12.9827 6.10364 12.9809 6.07222 12.9169 6.01678C12.8667 5.97243 12.8155 5.929 12.7635 5.88557C12.3195 5.51596 11.8316 5.22767 11.2789 5.06042C10.9098 4.94953 10.5325 4.88855 10.1488 4.86175C9.6481 4.82756 9.15202 4.8442 8.66051 4.9597C6.9393 5.36257 5.65478 6.81144 5.50404 8.66873C5.46384 9.16955 5.50221 9.66576 5.62829 10.1527C5.91516 11.2551 6.53823 12.0996 7.52765 12.6559C8.06667 12.959 8.65046 13.1188 9.2644 13.1687C9.78423 13.2112 10.2986 13.1789 10.8065 13.0625C11.6653 12.8657 12.4245 12.4683 13.0997 11.9C13.1536 11.8548 13.1755 11.8095 13.1755 11.7374C13.1733 10.8533 13.1734 9.96857 13.1736 9.08421L13.1737 8.42109C13.1737 8.40961 13.1729 8.39795 13.1721 8.3863C13.1703 8.36046 13.1686 8.3347 13.1755 8.31114C13.1835 8.28378 13.169 8.26809 13.1549 8.25279C13.1432 8.24019 13.1318 8.22786 13.1335 8.20949C13.1371 8.179 13.117 8.17438 13.0933 8.17438H9.46721C9.46024 8.17438 9.45317 8.17458 9.44606 8.17479C9.43175 8.1752 9.4173 8.17562 9.40326 8.17438C9.36672 8.17068 9.35484 8.18917 9.35758 8.22335C9.3588 8.23756 9.35839 8.25217 9.35798 8.26665C9.35778 8.27383 9.35758 8.28099 9.35758 8.28804C9.35758 8.48208 9.35748 8.67613 9.35738 8.87017C9.35717 9.25826 9.35697 9.64635 9.35758 10.0344C9.35758 10.0505 9.35729 10.0643 9.35704 10.0762C9.3563 10.1117 9.35591 10.13 9.3647 10.1393C9.374 10.1491 9.39359 10.1488 9.4339 10.1484C9.44394 10.1482 9.45535 10.1481 9.46813 10.1481H10.9025C10.9151 10.1481 10.9263 10.148 10.9363 10.1478C10.976 10.1474 10.9953 10.1471 11.0045 10.1568C11.0132 10.166 11.013 10.184 11.0124 10.219C11.0122 10.2313 11.012 10.2458 11.0121 10.2627C11.0127 10.347 11.0125 10.431 11.0123 10.5151C11.0122 10.5572 11.0121 10.5993 11.0121 10.6415V10.6446C11.0121 10.818 11.0121 10.8194 10.8577 10.8947C10.4055 11.1146 9.92766 11.1775 9.43432 11.1146C8.88617 11.0453 8.44764 10.782 8.12606 10.3264C7.91684 10.0298 7.80264 9.69532 7.75971 9.33496C7.7058 8.87479 7.76062 8.43218 7.96618 8.01452C8.21376 7.51278 8.58834 7.15241 9.12644 6.98701C9.50376 6.87058 9.88564 6.90107 10.2639 6.98516C10.6065 7.06093 10.9052 7.23095 11.1802 7.4444C11.281 7.52185 11.379 7.60264 11.4785 7.68469ZM21.6261 6.00842C20.781 5.2267 19.7742 4.85432 18.7337 4.846C18.2531 4.84693 17.8941 4.88666 17.5131 4.98738C16.4076 5.28029 15.5425 5.90863 14.9678 6.91212C14.3776 7.94148 14.258 9.04569 14.5878 10.1813C14.9569 11.4509 15.7435 12.375 16.9604 12.8896C17.895 13.2842 18.8634 13.3369 19.84 13.0763C20.9747 12.7741 21.8444 12.1061 22.4145 11.0638C22.8951 10.185 23.0239 9.24251 22.8448 8.25842C22.684 7.37413 22.2821 6.61643 21.6261 6.00842Z" fill="#F77D07" />
</symbol>

<symbol id="hoverarrow" viewBox="0 0 40 40">
<rect width="40" height="40" rx="20" fill="#F77D07" />
<path d="M25.2451 13.8723C25.2162 13.4591 24.8578 13.1476 24.4446 13.1765L17.7111 13.6473C17.2979 13.6762 16.9863 14.0346 17.0152 14.4478C17.0441 14.861 17.4025 15.1726 17.8157 15.1437L23.8011 14.7251L24.2196 20.7105C24.2485 21.1237 24.6069 21.4353 25.0201 21.4064C25.4333 21.3775 25.7449 21.0191 25.716 20.6059L25.2451 13.8723ZM14.566 26.492L25.063 14.4167L23.9309 13.4326L13.434 25.508L14.566 26.492Z" fill="white" />
</symbol>
<svg id="close-button-component" width="14" height="14" viewBox="0 0 14 14" fill="none" xmlns="http://www.w3.org/2000/svg">
  <path d="M12.8333 1.16669L1.16666 12.8334M1.16666 1.16669L12.8333 12.8334" stroke="#0B0B0B" stroke-opacity="0.5" stroke-width="2" stroke-linecap="round" stroke-linejoin="round" />
</svg>
<symbol id="misto-hub-logo" width="357" height="121" fill="none" xmlns="http://www.w3.org/2000/svg"><g clip-path="url(#a)"><path d="M150.183 19.596h-.794v21.73H136.22V1.96h18.088l8.012 22.832h.952l8.013-22.832h18.087v39.365h-13.169v-21.73h-.872l-7.775 21.73h-9.52l-7.853-21.73ZM200.241 1.96h13.327v39.365h-13.327V1.96ZM265.697 25.58v2.519c-2.062 7.48-10.63 14.171-21.578 14.171-12.614 0-21.895-8.03-21.895-20.627s9.281-20.627 21.895-20.627c10.472 0 19.516 6.613 21.578 14.171v2.52h-13.962c-1.269-2.677-4.046-4.252-7.616-4.252-5.077 0-8.409 3.07-8.409 8.188 0 5.117 3.332 8.188 8.409 8.188 3.57 0 6.347-1.575 7.616-4.252h13.962ZM296.153 41.325h-13.328V14.242h-12.058V1.96h37.365v12.282h-11.979v27.083ZM313.209 21.643c0-12.597 9.282-20.627 21.896-20.627 12.613 0 21.895 8.03 21.895 20.627s-9.282 20.627-21.895 20.627c-12.614 0-21.896-8.03-21.896-20.627Zm13.486 0c0 5.117 3.332 8.188 8.41 8.188 5.077 0 8.409-3.07 8.409-8.188s-3.332-8.188-8.409-8.188c-5.078 0-8.41 3.07-8.41 8.188ZM158.52 110.371h-1.031l-7.536 9.684h-13.725v-2.519l13.328-16.297v-1.968L136.625 83.21v-2.52h14.121l7.378 9.133h.952l7.06-9.133h13.725v2.52l-12.773 15.824v1.89l13.407 16.612v2.519h-14.121l-7.854-9.684Zm-8.25-10.234v.236l.079-.158-.079-.078Zm16.104-.079v-.079h-.079l.079.079ZM228.411 120.055h-13.327v-3.7c-3.094 2.992-7.14 4.645-11.821 4.645-10.233 0-17.691-8.03-17.691-20.627s7.458-20.627 17.691-20.627c4.681 0 8.727 1.732 11.821 4.723V80.69h13.327v39.365Zm-12.851-19.682c0-5.118-3.253-8.188-8.251-8.188-4.998 0-8.25 3.07-8.25 8.188 0 5.117 3.252 8.188 8.25 8.188s8.251-3.071 8.251-8.188ZM280.929 101.554c0 11.809-10.472 19.446-20.944 19.446-13.486 0-22.847-9.684-22.847-26.374 0-17.636 12.058-26.847 25.386-28.343 2.142-.237 4.601-.709 4.601-2.205h12.297c0 10.156-6.268 13.384-16.898 14.644-7.457.945-11.979 2.992-14.121 8.975l.317.158c2.856-3.228 7.299-5.826 12.535-5.826 12.058 0 19.674 8.188 19.674 19.525Zm-21.19 7.164c4.919 0 8.251-2.755 8.251-7.715s-3.332-7.716-8.251-7.716c-4.918 0-8.25 2.756-8.25 7.716 0 4.96 3.332 7.715 8.25 7.715Z" fill="#fff"/><path d="M109.176 67.708H.087V32.106L54.636 0l54.54 32.106v35.602ZM109.263 119.811c-13.415 0-20.745-4.928-26.092-8.526-3.919-2.638-5.537-3.724-10.329-3.724-4.791 0-6.418 1.094-10.329 3.724-5.347 3.598-12.677 8.526-26.092 8.526s-20.745-4.928-26.092-8.534C6.41 108.639 4.792 107.553 0 107.553V79.69c13.415 0 20.745 4.929 26.092 8.535 3.92 2.637 5.538 3.724 10.33 3.724 4.79 0 6.417-1.095 10.328-3.724 5.347-3.598 12.677-8.527 26.092-8.527s20.746 4.929 26.092 8.535c3.919 2.637 5.538 3.724 10.329 3.724v27.862-.008ZM356.635 91.996v27.949h-48.392v-27.95c0-13.25 10.844-24.012 24.196-24.012 13.351 0 24.196 10.763 24.196 24.013Z" fill="#F77D07"/></g><defs><clipPath id="a"><path fill="#fff" d="M0 0h357v121H0z"/></clipPath></defs></symbol>
<symbol id="topscroll" width="12" height="8" fill="none" xmlns="http://www.w3.org/2000/svg"><path d="M11 6.5l-5-5-5 5" stroke="#fff" stroke-width="1.6" stroke-linecap="round" stroke-linejoin="round"/></symbol>

<symbol id="go-it" width="100" height="30" fill="none" xmlns="http://www.w3.org/2000/svg"><path fill-rule="evenodd" clip-rule="evenodd" d="M100 0H56v30h44V0ZM69.896 8.26v13.098c0 .028.002.055 0 .082-.007.075.013.12.1.108a.454.454 0 0 1 .062-.001h.03l1.093.001h2.252c.07.001.104.001.12-.015.015-.016.015-.048.013-.11V8.28l-.001-.031a.469.469 0 0 1 0-.062c.008-.077-.018-.117-.101-.108a.315.315 0 0 1-.051.001H72.283c-.737-.001-1.474-.002-2.21 0l-.058-.001c-.06-.001-.091-.001-.106.014s-.015.046-.014.108v.06Zm18.278-.181H82.7c-1.824 0-3.648 0-5.47-.002h-.124c-.062-.003-.084.027-.079.084v3.235c0 .067 0 .1.016.116s.047.016.11.015h3.481c.112 0 .167 0 .195.028.027.027.027.08.027.188v9.689c-.001.055-.002.084.013.099.015.016.048.016.118.016H84.32c.103 0 .154 0 .18-.026.025-.025.025-.075.025-.175V11.651c-.002-.06-.002-.09.013-.106.017-.017.052-.017.124-.017h3.546c.152 0 .152 0 .153-.149V8.211c.001-.068.002-.101-.015-.118-.016-.016-.049-.015-.114-.015h-.059Z" fill="#0B0B0B"/><path d="M28.745 13.322c.624-1.15 1.621-1.702 2.589-1.723 1.963-.005 3.247 1.1 3.597 2.63.212.923.118 1.819-.336 2.657-.534.984-1.367 1.557-2.488 1.684-1.084.125-2.03-.181-2.803-.96a3.356 3.356 0 0 1-.921-1.795c-.162-.87-.062-1.712.362-2.493Z" fill="#F77D07"/><path fill-rule="evenodd" clip-rule="evenodd" d="M44 0H0v30h44l12-15L44 0ZM19.455 12.808l.202.163c.045-.027.073-.065.1-.1a1.71 1.71 0 0 1 .018-.025c.238-.283.475-.567.711-.852h.001c.476-.57.95-1.137 1.423-1.707.095-.114.091-.167-.017-.259a12.043 12.043 0 0 0-.26-.219c-.753-.616-1.58-1.096-2.516-1.375a8.877 8.877 0 0 0-1.916-.331c-.848-.057-1.69-.03-2.522.163-2.918.672-5.095 3.086-5.35 6.182a7.317 7.317 0 0 0 .21 2.473c.487 1.838 1.543 3.245 3.22 4.172.913.505 1.903.772 2.943.855.881.07 1.753.017 2.614-.177 1.456-.328 2.742-.99 3.887-1.938a.314.314 0 0 0 .128-.27c-.003-1.474-.003-2.949-.003-4.423v-1.105l-.002-.058c-.003-.043-.006-.086.005-.125.014-.046-.01-.072-.035-.097-.02-.021-.039-.042-.036-.073.006-.05-.028-.058-.068-.058H16.01a.65.65 0 0 1-.072 0c-.062-.006-.082.025-.078.082a.619.619 0 0 1 0 .107v2.981c-.002.059-.002.09.012.105.016.016.05.016.118.015h2.546c.067-.002.1-.002.116.014.014.015.014.045.013.104v.073a42.131 42.131 0 0 1 0 .63v.006c0 .289 0 .291-.262.417-.767.366-1.576.471-2.413.366-.929-.115-1.672-.554-2.217-1.313a3.505 3.505 0 0 1-.621-1.653c-.091-.767.002-1.504.35-2.2.42-.837 1.054-1.437 1.966-1.713.64-.194 1.287-.143 1.928-.003.581.126 1.087.41 1.553.765.171.13.337.264.506.4Zm17.2-2.794c-1.433-1.303-3.14-1.923-4.903-1.937-.814.001-1.423.067-2.069.235-1.873.488-3.34 1.536-4.314 3.208-1 1.716-1.203 3.556-.644 5.449.626 2.116 1.959 3.656 4.021 4.514 1.585.657 3.226.745 4.881.31 1.923-.503 3.398-1.616 4.364-3.353.814-1.465 1.032-3.036.729-4.676-.273-1.474-.954-2.737-2.066-3.75Z" fill="#F77D07"/></symbol>
<symbol id="support" viewBox="0 0 129 62">
<path d="M61.6782 11.1041C61.6782 11.1041 60.3458 1.55238 51.9896 0.333349C43.6335 -0.885683 40.5503 9.70893 40.5503 9.70893C26.0669 -7.82643 19.7603 17.7225 19.7603 17.7225C19.7603 17.7225 8.4201 10.5644 1.82362 19.7709C-3.16918 26.7884 10.9766 34.915 10.9766 34.915C10.9766 34.915 1.78824 38.0798 11.5597 51.1583C21.3279 64.1481 37.6484 44.6483 37.6484 44.6483C37.6484 44.6483 35.0179 56.8269 46.3422 60.7862C57.7652 64.742 61.2152 45.0696 61.2152 45.0696C61.2152 45.0696 62.452 60.2236 72.8294 59.8612C83.2069 59.4988 85.8023 46.3439 85.8023 46.3439C85.8023 46.3439 85.9295 58.1595 97.273 57.1413C108.616 56.1231 109.544 46.1369 109.544 46.1369C109.544 46.1369 123.371 50.8976 127.631 45.5053C131.89 40.1131 119.992 33.952 119.992 33.952C119.992 33.952 128.279 24.9532 121.867 20.0225C115.456 15.0917 109.194 22.5979 109.194 22.5979C109.194 22.5979 111.142 10.7099 102.872 9.13234C94.5035 7.55827 87.1642 15.3687 87.1642 15.3687C87.1642 15.3687 88.5385 4.03392 78.4544 1.54214C68.1727 -0.942735 61.6782 11.1041 61.6782 11.1041Z" fill="#F77D07"/>
</symbol>

<symbol xmlns="http://www.w3.org/2000/svg" viewBox="0 0 12 12" id="instagramIcon">
<svg viewBox="0 0 14 14" fill="none" xmlns="http://www.w3.org/2000/svg">
<path d="M12.5638 4.70564C12.557 4.23561 12.4699 3.7693 12.3032 3.3297C12.0115 2.57901 11.4176 1.98542 10.6657 1.69484C10.2309 1.53154 9.77129 1.44399 9.30608 1.43405C8.70777 1.40735 8.51807 1.3999 6.99928 1.3999C5.48049 1.3999 5.28582 1.3999 4.69186 1.43405C4.22727 1.44399 3.76765 1.53154 3.33291 1.69484C2.58098 1.98542 1.9864 2.57901 1.69533 3.3297C1.53175 3.76371 1.44344 4.22257 1.43473 4.68639C1.40799 5.28433 1.3999 5.4737 1.3999 6.98997C1.3999 8.50624 1.3999 8.69996 1.43473 9.29355C1.44406 9.75799 1.53175 10.2162 1.69533 10.6515C1.98702 11.4015 2.58098 11.9951 3.33353 12.2857C3.76641 12.4546 4.22602 12.5502 4.69248 12.5651C5.29142 12.5918 5.48111 12.5999 6.9999 12.5999C8.51869 12.5999 8.71336 12.5999 9.30732 12.5651C9.77192 12.5558 10.2315 12.4683 10.6669 12.305C11.4188 12.0138 12.0128 11.4202 12.3045 10.6701C12.4681 10.2355 12.5557 9.77724 12.5651 9.31218C12.5918 8.71486 12.5999 8.52548 12.5999 7.0086C12.5987 5.49233 12.5987 5.29985 12.5638 4.70564ZM6.99555 9.85734C5.4071 9.85734 4.12029 8.57267 4.12029 6.98686C4.12029 5.40106 5.4071 4.11639 6.99555 4.11639C8.58276 4.11639 9.87081 5.40106 9.87081 6.98686C9.87081 8.57267 8.58276 9.85734 6.99555 9.85734ZM9.98524 4.67956C9.61394 4.67956 9.31479 4.38028 9.31479 4.01021C9.31479 3.64015 9.61394 3.34087 9.98524 3.34087C10.3553 3.34087 10.6551 3.64015 10.6551 4.01021C10.6551 4.38028 10.3553 4.67956 9.98524 4.67956Z" fill="white" />
<path d="M6.99638 8.73934C7.96384 8.73934 8.74813 7.95505 8.74813 6.98759C8.74813 6.02013 7.96384 5.23584 6.99638 5.23584C6.02891 5.23584 5.24463 6.02013 5.24463 6.98759C5.24463 7.95505 6.02891 8.73934 6.99638 8.73934Z" fill="white" />
</svg>
</symbol>
<symbol>
<svg id='facebookIcon' viewBox="0 0 16 16" fill="none" xmlns="http://www.w3.org/2000/svg">
<path d="M9.99459 1.53043C10.1459 1.53043 10.2973 1.53043 10.6 1.53043V3.8007C10.4486 3.8007 10.1459 3.8007 9.84324 3.8007C9.54054 3.8007 9.23784 3.8007 9.08649 3.95205C8.93514 4.1034 8.93513 4.25475 8.93513 4.60791C8.93513 4.91061 8.93513 5.11241 8.93513 5.41511H10.6V7.33223H8.93513V15.6565H6.36217V7.28178H5V5.36466H6.36217V4.70881C6.36217 3.5989 6.51352 2.79169 6.81622 2.43854C7.27027 1.78268 8.17838 1.47998 9.54054 1.47998C9.67368 1.47998 9.84324 1.53043 9.99459 1.53043Z" fill="white" />
</svg>
</symbol>
<symbol>
<svg id="zigzagIcon" viewBox="0 0 25 29" fill="none" xmlns="http://www.w3.org/2000/svg">
<path d="M14.8966 26.3788C14.7068 26.7797 14.7362 27.2327 14.9712 27.6354C14.9839 27.6549 14.9966 27.6744 15.0092 27.6939C15.2375 28.0455 15.6334 28.2882 16.0523 28.3216L23.4792 28.9129C24.2043 28.9695 24.7987 28.4169 24.8355 27.6989C24.8595 26.9613 24.2912 26.3308 23.5847 26.2621L18.1396 25.8277L20.5083 20.7909C20.6735 20.4338 20.6694 20.0199 20.497 19.6321C20.3187 19.2759 19.9973 18.9848 19.5903 18.8881L13.4468 17.2968L16.3779 12.9222C16.6303 12.5362 16.6568 12.0469 16.459 11.6201C16.2612 11.1932 15.8586 10.8994 15.4143 10.8269L8.64006 9.8951L11.1114 4.48631C11.2766 4.12913 11.2785 3.68361 11.0875 3.30789C10.8964 2.93217 10.5378 2.66531 10.1435 2.58817L1.70005 0.880042C0.992694 0.728552 0.316325 1.19557 0.211 1.93035C0.0929919 2.6456 0.580878 3.35609 1.30685 3.49548L8.04787 4.86533L5.52151 10.3932C5.35036 10.782 5.37973 11.2349 5.57077 11.6107C5.79312 11.9938 6.15178 12.2607 6.58332 12.3136L13.0259 13.1832L10.249 17.3467C10.0025 17.7011 9.96333 18.1707 10.1171 18.5707C10.2836 18.9901 10.6363 19.2886 11.056 19.4048L17.4499 21.0556L14.8966 26.3788Z" fill="#F77D07" />
</svg>
</symbol>
<symbol>
<svg id="octagonIcon" viewBox="0 0 154 154" fill="none" xmlns="http://www.w3.org/2000/svg">
<path d="M152.29 101.408L135.392 81.5061C133.139 78.8775 133.139 75.1225 135.392 72.4939L152.29 52.5917C156.045 48.2733 153.229 41.5141 147.596 41.1386L121.498 38.8855C118.119 38.51 115.302 35.8815 115.115 32.5019L112.861 6.40372C112.298 0.77104 105.727 -2.0453 101.408 1.70982L81.5062 18.6079C78.8776 20.8609 75.1224 20.8609 72.4938 18.6079L52.5917 1.70982C48.2733 -2.0453 41.5141 0.77104 41.1386 6.40372L38.8854 32.5019C38.5099 35.8815 35.8815 38.6977 32.5019 38.8855L6.40373 41.1386C0.77104 41.7019 -2.0453 48.2733 1.70982 52.5917L18.6079 72.4939C20.861 75.1225 20.861 78.8775 18.6079 81.5061L1.70982 101.408C-2.0453 105.727 0.77104 112.486 6.40373 112.861L32.5019 115.115C35.8815 115.49 38.6976 118.119 38.8854 121.498L41.1386 147.596C41.7019 153.229 48.2733 156.045 52.5917 152.29L72.4938 135.392C75.1224 133.139 78.8776 133.139 81.5062 135.392L101.408 152.29C105.727 156.045 112.486 153.229 112.861 147.596L115.115 121.498C115.49 118.119 118.119 115.302 121.498 115.115L147.596 112.861C153.229 112.486 156.045 105.914 152.29 101.408Z" fill="#F77D07" />
</svg>
</symbol>
<symbol>
<svg id="ovalIcon" viewBox="0 0 41 28" fill="none" xmlns="http://www.w3.org/2000/svg">
<path d="M40.0835 7.84087C38.3795 2.59647 32.6205 -0.248881 27.245 1.49773L7.74833 7.83258C2.37282 9.57918 -0.613838 15.2662 1.09017 20.5106C2.79418 25.755 8.55316 28.6003 13.9287 26.8537L33.4253 20.5189C38.8008 18.7722 41.7875 13.0853 40.0835 7.84087Z"
fill="#F77D07" />
</svg>
</symbol>
<symbol>
<svg id="blobIcon" viewBox="0 0 35 35" fill="none" xmlns="http://www.w3.org/2000/svg">
<path d="M2.99194 8.10608C2.14602 10.6317 5.44024 14.0373 7.70754 16.3123C4.40651 16.4286 0.877571 17.4716 0.33149 19.0228C-0.324916 20.8022 3.51616 23.3803 7.09288 23.8575C5.08384 27.9289 5.47487 33.3599 7.67918 34.3318C11.0448 35.8022 15.0262 26.9593 15.0262 26.9593C15.0262 26.9593 24.7515 36.6079 26.9011 34.2021C29.0506 31.7964 23.1769 22.4946 23.1769 22.4946C23.1769 22.4946 37.097 16.771 34.6468 14.0481C32.1965 11.3252 22.015 13.5652 22.015 13.5652C22.015 13.5652 22.3706 0.113762 20.4451 0.302191C18.5196 0.490621 14.1112 10.4696 14.1112 10.4696C14.1112 10.4696 4.20565 4.4318 2.99194 8.10608Z"
fill="#F77D07" />
</svg>
</symbol>
<symbol>
<svg id='sliceIcon' viewBox="0 0 201 186" fill="none" xmlns="http://www.w3.org/2000/svg">
<path d="M41.6248 27.3132C-6.1426 67.3948 -12.8092 138.364 26.9922 185.797L200.118 40.5272C160.44 -7.01009 89.5159 -12.8722 41.6248 27.3132Z"
fill="#F77D07" />
</svg>
</symbol>
<symbol>
<svg id='treeIcon' viewBox="0 0 211 158" fill="none" xmlns="http://www.w3.org/2000/svg">
<path d="M63.0224 36.66C63.0224 36.66 79.5303 11.1478 55.8866 2.4218C10.705 -14.0708 -17.8334 72.502 12.883 88.8343C26.2657 95.95 45.0229 70.5122 45.0229 70.5122C45.0229 70.5122 29.7949 96.3844 47.4734 108.027C65.1518 119.67 73.9353 90.8523 73.9353 90.8523C73.9353 90.8523 69.1406 119.548 81.326 125.226C92.1703 130.351 104.029 113.583 106.404 110.039C103.62 114.968 104.497 131.458 117.523 144.472C129.662 156.695 143.252 136.361 146.225 131.693C144.626 135.009 141.412 146.279 169.921 156.31C203.477 168.223 222.511 96.1448 200.955 85.6447C182.203 76.6355 168.499 92.2621 165.277 96.4774C169.03 91.2628 184.359 67.0462 165.472 54.6006C148.049 43.0931 131.21 72.9162 131.21 72.9162C131.21 72.9162 146.016 45.3774 131.952 36.7774C117.759 28.1096 102.248 51.7481 99.74 55.5421C101.987 51.9301 114.984 28.717 100.858 19.9243C82.2157 8.24942 63.0224 36.66 63.0224 36.66Z"
fill="#F77D07" />
</svg>
</symbol>

<symbol id="icon-logo-goit" viewBox="0 0 107 32">
<path fill="#0b0b0b" style="fill: var(--color1, #0b0b0b)" d="M106.667 0v32h-46.933v-32h46.933zM74.555 8.811v13.927c0 0.015 0 0.030 0.001 0.044 0.001 0.029 0.001 0.059-0.001 0.087-0.007 0.080 0.015 0.128 0.107 0.115 0.022-0.002 0.044-0.002 0.066-0.001l0.012 0c0.007 0 0.014 0 0.021 0 0.388 0 0.777 0 1.166 0h0.004c0.777 0 1.555 0.001 2.332-0 0.025 0 0.046 0 0.066 0 0.075 0.001 0.111 0.001 0.129-0.017s0.016-0.051 0.014-0.116c-0-0.022-0.001-0.048-0.001-0.078v-13.943c0-0.011-0-0.022-0.001-0.033-0.001-0.022-0.001-0.044 0.001-0.066 0.008-0.082-0.020-0.125-0.108-0.115-0.017 0.002-0.036 0.001-0.054 0.001-0.009-0-0.019-0.001-0.028-0.001-0.392 0-0.785-0-1.178-0-0.786-0-1.572-0.001-2.357 0-0.023 0-0.044-0-0.062-0.001-0.065-0.001-0.097-0.001-0.113 0.015s-0.016 0.049-0.015 0.116c0 0.019 0.001 0.040 0.001 0.064zM94.052 8.617h-5.839c-1.946 0-3.892 0-5.836-0.002-0.015 0-0.030 0-0.044 0-0.029 0-0.058 0.001-0.088-0-0.066-0.003-0.089 0.028-0.084 0.089 0.001 0.019 0.001 0.036 0 0.054-0 0.009-0 0.018-0 0.028v3.335l-0 0.035c-0 0.072-0.001 0.107 0.017 0.124s0.051 0.016 0.117 0.016l0.045-0h3.668c0.12 0 0.179 0 0.208 0.030s0.029 0.086 0.029 0.2v10.282c0 0.020-0 0.037-0.001 0.053-0.001 0.059-0.001 0.090 0.014 0.106 0.017 0.017 0.052 0.017 0.126 0.017l0.036-0h3.52c0.11 0 0.165 0 0.192-0.027s0.027-0.080 0.027-0.186v-10.282c0-0.022-0-0.042-0.001-0.059-0.001-0.064-0.001-0.097 0.015-0.114 0.018-0.018 0.055-0.018 0.133-0.018l0.049 0h3.734c0.161 0 0.161 0 0.163-0.159v-3.318c0-0.023 0-0.043 0-0.061 0.001-0.072 0.001-0.108-0.016-0.126s-0.052-0.017-0.122-0.016c-0.018 0-0.039 0.001-0.063 0.001z"></path>
<path fill="#f77d07" style="fill: var(--color2, #f77d07)" d="M30.661 14.21c0.666-1.227 1.729-1.815 2.762-1.838 2.094-0.005 3.464 1.173 3.837 2.806 0.226 0.984 0.125 1.94-0.358 2.834-0.57 1.050-1.458 1.661-2.654 1.797-1.156 0.133-2.165-0.194-2.99-1.025-0.529-0.532-0.847-1.181-0.983-1.914-0.172-0.928-0.066-1.827 0.386-2.66z"></path>
<path fill="#f77d07" style="fill: var(--color2, #f77d07)" d="M46.933 0l12.8 16-12.8 16h-46.933v-32h46.933zM20.752 13.662c0.071 0.058 0.143 0.116 0.215 0.174 0.048-0.029 0.078-0.069 0.106-0.107 0.006-0.009 0.013-0.018 0.020-0.026 0.254-0.302 0.506-0.605 0.759-0.909l0.001-0.001c0.507-0.606 1.012-1.212 1.518-1.82 0.101-0.122 0.097-0.177-0.018-0.276-0.091-0.079-0.183-0.156-0.277-0.233-0.803-0.657-1.685-1.17-2.684-1.467-0.667-0.197-1.349-0.306-2.043-0.353-0.905-0.061-1.802-0.031-2.691 0.174-3.112 0.716-5.434 3.292-5.707 6.594-0.073 0.89-0.003 1.772 0.225 2.638 0.519 1.96 1.645 3.461 3.434 4.45 0.975 0.539 2.030 0.823 3.14 0.912 0.94 0.076 1.87 0.018 2.788-0.189 1.553-0.35 2.925-1.056 4.146-2.067 0.098-0.080 0.137-0.161 0.137-0.289-0.004-1.572-0.004-3.145-0.003-4.717l0-1.179c0-0.020-0.001-0.041-0.003-0.062-0.003-0.046-0.006-0.092 0.006-0.134 0.015-0.049-0.012-0.077-0.037-0.104-0.021-0.022-0.042-0.044-0.039-0.077 0.007-0.054-0.030-0.062-0.073-0.062h-6.556c-0.013 0-0.025 0-0.038 0.001-0.026 0.001-0.052 0.002-0.077-0.001-0.066-0.007-0.087 0.026-0.083 0.087 0.002 0.025 0.002 0.051 0.001 0.077-0 0.013-0.001 0.025-0.001 0.038 0 0.345-0 0.69-0 1.035-0 0.69-0.001 1.38 0 2.070 0 0.028-0.001 0.053-0.001 0.074-0.001 0.063-0.002 0.096 0.014 0.112s0.052 0.017 0.125 0.016c0.018-0 0.039-0 0.062-0h2.593c0.023 0 0.043-0 0.061-0 0.072-0.001 0.107-0.001 0.124 0.016 0.016 0.016 0.015 0.048 0.014 0.11-0 0.022-0.001 0.048-0.001 0.078 0.001 0.15 0.001 0.299 0 0.449-0 0.075-0 0.15-0 0.225v0.005c0 0.308 0 0.311-0.279 0.445-0.818 0.391-1.681 0.503-2.573 0.391-0.991-0.123-1.784-0.591-2.365-1.401-0.378-0.527-0.585-1.122-0.662-1.763-0.097-0.818 0.002-1.605 0.373-2.348 0.448-0.892 1.125-1.533 2.098-1.827 0.682-0.207 1.373-0.153 2.056-0.003 0.619 0.135 1.159 0.437 1.657 0.816 0.182 0.138 0.359 0.281 0.539 0.427zM39.098 10.682c-1.528-1.39-3.348-2.052-5.229-2.066-0.869 0.002-1.518 0.072-2.207 0.251-1.998 0.521-3.563 1.638-4.602 3.422-1.067 1.83-1.283 3.793-0.687 5.812 0.667 2.257 2.089 3.9 4.29 4.815 1.69 0.701 3.44 0.795 5.206 0.332 2.051-0.537 3.624-1.725 4.654-3.578 0.869-1.562 1.102-3.238 0.778-4.987-0.291-1.572-1.017-2.919-2.203-4z"></path>
</symbol>
<symbol id="icon-goit-white" viewBox="0 0 107 32">
<path fill="#FFFFFF" d="M106.667 0v32h-46.933v-32h46.933zM74.555 8.811v13.927c0 0.015 0 0.030 0.001 0.044 0.001 0.029 0.001 0.059-0.001 0.087-0.007 0.080 0.015 0.128 0.107 0.115 0.022-0.002 0.044-0.002 0.066-0.001l0.012 0c0.007 0 0.014 0 0.021 0 0.388 0 0.777 0 1.166 0h0.004c0.777 0 1.555 0.001 2.332-0 0.025 0 0.046 0 0.066 0 0.075 0.001 0.111 0.001 0.129-0.017s0.016-0.051 0.014-0.116c-0-0.022-0.001-0.048-0.001-0.078v-13.943c0-0.011-0-0.022-0.001-0.033-0.001-0.022-0.001-0.044 0.001-0.066 0.008-0.082-0.020-0.125-0.108-0.115-0.017 0.002-0.036 0.001-0.054 0.001-0.009-0-0.019-0.001-0.028-0.001-0.392 0-0.785-0-1.178-0-0.786-0-1.572-0.001-2.357 0-0.023 0-0.044-0-0.062-0.001-0.065-0.001-0.097-0.001-0.113 0.015s-0.016 0.049-0.015 0.116c0 0.019 0.001 0.040 0.001 0.064zM94.052 8.617h-5.839c-1.946 0-3.892 0-5.836-0.002-0.015 0-0.030 0-0.044 0-0.029 0-0.058 0.001-0.088-0-0.066-0.003-0.089 0.028-0.084 0.089 0.001 0.019 0.001 0.036 0 0.054-0 0.009-0 0.018-0 0.028v3.335l-0 0.035c-0 0.072-0.001 0.107 0.017 0.124s0.051 0.016 0.117 0.016l0.045-0h3.668c0.12 0 0.179 0 0.208 0.030s0.029 0.086 0.029 0.2v10.282c0 0.020-0 0.037-0.001 0.053-0.001 0.059-0.001 0.090 0.014 0.106 0.017 0.017 0.052 0.017 0.126 0.017l0.036-0h3.52c0.11 0 0.165 0 0.192-0.027s0.027-0.080 0.027-0.186v-10.282c0-0.022-0-0.042-0.001-0.059-0.001-0.064-0.001-0.097 0.015-0.114 0.018-0.018 0.055-0.018 0.133-0.018l0.049 0h3.734c0.161 0 0.161 0 0.163-0.159v-3.318c0-0.023 0-0.043 0-0.061 0.001-0.072 0.001-0.108-0.016-0.126s-0.052-0.017-0.122-0.016c-0.018 0-0.039 0.001-0.063 0.001z"></path>
<path  d="M30.661 14.21c0.666-1.227 1.729-1.815 2.762-1.838 2.094-0.005 3.464 1.173 3.837 2.806 0.226 0.984 0.125 1.94-0.358 2.834-0.57 1.050-1.458 1.661-2.654 1.797-1.156 0.133-2.165-0.194-2.99-1.025-0.529-0.532-0.847-1.181-0.983-1.914-0.172-0.928-0.066-1.827 0.386-2.66z"></path>
<path  d="M46.933 0l12.8 16-12.8 16h-46.933v-32h46.933zM20.752 13.662c0.071 0.058 0.143 0.116 0.215 0.174 0.048-0.029 0.078-0.069 0.106-0.107 0.006-0.009 0.013-0.018 0.020-0.026 0.254-0.302 0.506-0.605 0.759-0.909l0.001-0.001c0.507-0.606 1.012-1.212 1.518-1.82 0.101-0.122 0.097-0.177-0.018-0.276-0.091-0.079-0.183-0.156-0.277-0.233-0.803-0.657-1.685-1.17-2.684-1.467-0.667-0.197-1.349-0.306-2.043-0.353-0.905-0.061-1.802-0.031-2.691 0.174-3.112 0.716-5.434 3.292-5.707 6.594-0.073 0.89-0.003 1.772 0.225 2.638 0.519 1.96 1.645 3.461 3.434 4.45 0.975 0.539 2.030 0.823 3.14 0.912 0.94 0.076 1.87 0.018 2.788-0.189 1.553-0.35 2.925-1.056 4.146-2.067 0.098-0.080 0.137-0.161 0.137-0.289-0.004-1.572-0.004-3.145-0.003-4.717l0-1.179c0-0.020-0.001-0.041-0.003-0.062-0.003-0.046-0.006-0.092 0.006-0.134 0.015-0.049-0.012-0.077-0.037-0.104-0.021-0.022-0.042-0.044-0.039-0.077 0.007-0.054-0.030-0.062-0.073-0.062h-6.556c-0.013 0-0.025 0-0.038 0.001-0.026 0.001-0.052 0.002-0.077-0.001-0.066-0.007-0.087 0.026-0.083 0.087 0.002 0.025 0.002 0.051 0.001 0.077-0 0.013-0.001 0.025-0.001 0.038 0 0.345-0 0.69-0 1.035-0 0.69-0.001 1.38 0 2.070 0 0.028-0.001 0.053-0.001 0.074-0.001 0.063-0.002 0.096 0.014 0.112s0.052 0.017 0.125 0.016c0.018-0 0.039-0 0.062-0h2.593c0.023 0 0.043-0 0.061-0 0.072-0.001 0.107-0.001 0.124 0.016 0.016 0.016 0.015 0.048 0.014 0.11-0 0.022-0.001 0.048-0.001 0.078 0.001 0.15 0.001 0.299 0 0.449-0 0.075-0 0.15-0 0.225v0.005c0 0.308 0 0.311-0.279 0.445-0.818 0.391-1.681 0.503-2.573 0.391-0.991-0.123-1.784-0.591-2.365-1.401-0.378-0.527-0.585-1.122-0.662-1.763-0.097-0.818 0.002-1.605 0.373-2.348 0.448-0.892 1.125-1.533 2.098-1.827 0.682-0.207 1.373-0.153 2.056-0.003 0.619 0.135 1.159 0.437 1.657 0.816 0.182 0.138 0.359 0.281 0.539 0.427zM39.098 10.682c-1.528-1.39-3.348-2.052-5.229-2.066-0.869 0.002-1.518 0.072-2.207 0.251-1.998 0.521-3.563 1.638-4.602 3.422-1.067 1.83-1.283 3.793-0.687 5.812 0.667 2.257 2.089 3.9 4.29 4.815 1.69 0.701 3.44 0.795 5.206 0.332 2.051-0.537 3.624-1.725 4.654-3.578 0.869-1.562 1.102-3.238 0.778-4.987-0.291-1.572-1.017-2.919-2.203-4z"></path>
</symbol>
<symbol id="icon-arrow-back" viewBox="0 0 37 32">
<path d="M34.126 13.99h-26.838l8.214-8.769c0.384-0.411 0.569-0.94 0.514-1.472s-0.346-1.022-0.808-1.364c-0.462-0.341-1.058-0.506-1.656-0.457s-1.15 0.307-1.534 0.718l-11.314 12.067c-0.076 0.096-0.144 0.197-0.204 0.302 0 0.101 0 0.161-0.158 0.261-0.103 0.231-0.156 0.476-0.158 0.724 0.002 0.248 0.056 0.493 0.158 0.724 0 0.101 0 0.161 0.158 0.261 0.059 0.105 0.128 0.206 0.204 0.302l11.314 12.068c0.213 0.227 0.479 0.41 0.78 0.535s0.63 0.19 0.962 0.189c0.529 0.001 1.041-0.163 1.448-0.462 0.229-0.169 0.419-0.376 0.557-0.61s0.224-0.49 0.252-0.754c0.027-0.263-0.004-0.529-0.092-0.782s-0.232-0.487-0.422-0.691l-8.214-8.769h26.838c0.6 0 1.176-0.212 1.6-0.589s0.663-0.889 0.663-1.422-0.238-1.045-0.663-1.422c-0.424-0.377-1-0.589-1.6-0.589z"></path>
</symbol>
<symbol id="icon-arrow-next" viewBox="0 0 37 32">
<path d="M2.446 13.99h26.837l-8.214-8.769c-0.384-0.411-0.569-0.94-0.514-1.472s0.346-1.022 0.808-1.364c0.462-0.341 1.058-0.506 1.656-0.457s1.15 0.307 1.534 0.718l11.314 12.067c0.076 0.096 0.144 0.197 0.204 0.302 0 0.101 0 0.161 0.158 0.261 0.103 0.231 0.156 0.476 0.158 0.724-0.002 0.248-0.056 0.493-0.158 0.724 0 0.101 0 0.161-0.158 0.261-0.059 0.105-0.128 0.206-0.204 0.302l-11.314 12.068c-0.213 0.227-0.479 0.41-0.78 0.535s-0.63 0.19-0.962 0.189c-0.529 0.001-1.041-0.163-1.448-0.462-0.229-0.169-0.419-0.376-0.557-0.61s-0.224-0.49-0.252-0.754c-0.027-0.263 0.004-0.529 0.092-0.782s0.232-0.487 0.422-0.691l8.214-8.769h-26.837c-0.6 0-1.176-0.212-1.6-0.589s-0.663-0.889-0.663-1.422c0-0.533 0.238-1.045 0.663-1.422s1-0.589 1.6-0.589z"></path>
</symbol>
<symbol id="icon-close" viewBox="0 0 32 32">
<path stroke-linejoin="round" stroke-linecap="round" stroke-miterlimit="4" stroke-width="4.5714" d="M29.334 2.667l-26.667 26.667M2.667 2.667l26.667 26.667"></path>
</symbol>
<symbol id="icon-linkedin" viewBox="0 0 32 32">
<path d="M12.081 11.383h5.659v2.819c0.815-1.621 2.906-3.078 6.047-3.078 6.021 0 7.45 3.227 7.45 9.149v10.967h-6.095v-9.618c0-3.372-0.815-5.274-2.891-5.274-2.878 0-4.075 2.050-4.075 5.272v9.62h-6.095v-19.857zM1.629 30.981h6.095v-19.857h-6.095v19.857zM8.598 4.649c0 0.511-0.101 1.017-0.298 1.488s-0.486 0.899-0.849 1.258c-0.737 0.732-1.734 1.142-2.773 1.14-1.037-0.001-2.032-0.41-2.77-1.138-0.362-0.36-0.65-0.788-0.847-1.26s-0.298-0.977-0.299-1.488c0-1.032 0.411-2.019 1.147-2.747 0.737-0.73 1.733-1.139 2.77-1.138 1.039 0 2.036 0.41 2.772 1.138 0.734 0.728 1.147 1.716 1.147 2.747z"></path>
</symbol>
<symbol id="icon-instagram" viewBox="0 0 32 32">
<path d="M28.718 10.756c-0.016-1.074-0.215-2.14-0.596-3.145-0.667-1.716-2.024-3.073-3.743-3.737-0.994-0.373-2.044-0.573-3.108-0.596-1.368-0.061-1.801-0.078-5.273-0.078s-3.916 0-5.274 0.078c-1.062 0.023-2.112 0.223-3.106 0.596-1.719 0.664-3.078 2.021-3.743 3.737-0.374 0.992-0.576 2.041-0.596 3.101-0.061 1.367-0.080 1.8-0.080 5.265s0 3.909 0.080 5.265c0.021 1.062 0.222 2.109 0.596 3.104 0.667 1.715 2.024 3.071 3.744 3.736 0.989 0.386 2.040 0.604 3.106 0.639 1.369 0.061 1.803 0.080 5.274 0.080s3.916 0 5.274-0.080c1.062-0.021 2.112-0.221 3.108-0.595 1.719-0.666 3.076-2.022 3.743-3.737 0.374-0.994 0.574-2.041 0.596-3.104 0.061-1.365 0.080-1.798 0.080-5.265-0.003-3.466-0.003-3.906-0.082-5.264zM15.99 22.531c-3.631 0-6.572-2.936-6.572-6.561s2.941-6.561 6.572-6.561c3.628 0 6.572 2.936 6.572 6.561s-2.944 6.561-6.572 6.561zM22.824 10.696c-0.849 0-1.532-0.684-1.532-1.53s0.684-1.53 1.532-1.53c0.846 0 1.531 0.684 1.531 1.53s-0.685 1.53-1.531 1.53z"></path>
<path d="M15.992 19.976c2.211 0 4.004-1.793 4.004-4.004s-1.793-4.004-4.004-4.004-4.004 1.793-4.004 4.004c0 2.211 1.793 4.004 4.004 4.004z"></path>
</symbol>
<symbol id="icon-faceb" viewBox="0 0 32 32">
<path d="M19.989 3.060c0.303 0 0.605 0 1.211 0v4.541c-0.303 0-0.908 0-1.513 0s-1.211 0-1.514 0.303-0.303 0.605-0.303 1.312c0 0.605 0 1.009 0 1.614h3.33v3.834h-3.33v16.649h-5.146v-16.75h-2.724v-3.834h2.724v-1.312c0-2.22 0.303-3.834 0.908-4.541 0.908-1.312 2.724-1.917 5.449-1.917 0.266 0 0.605 0.101 0.908 0.101z"></path>
</symbol>

<symbol id="join-us-bg" viewBox="0 0 375 740" fill="none" xmlns="http://www.w3.org/2000/svg">
  <path d="M283.844 114.983C283.844 114.983 270.325 20.1 179.168 1.80288C88.0115 -16.4943 50.0294 110.509 50.0294 110.509C-166.725 -90.252 -181.117 198.766 -181.117 198.766C-181.117 198.766 -302.66 107.281 -378.624 215.987C-436.139 298.863 -210.255 414.96 -210.255 414.96C-210.255 414.96 -386.219 437.705 -284.211 600.227C-182.202 761.672 14.5 594.5 14.5 594.5C14.5 594.5 -29.19 678.797 93.4373 731.536C217.15 784.275 266.495 573.319 266.495 573.319C266.495 573.319 270.325 731.536 384.27 731.536C498.216 731.536 531.857 573.319 531.857 573.319C531.857 573.319 528.601 716.468 653.398 708.934C778.196 701.4 792.304 580.854 792.304 580.854C792.304 580.854 942.062 644.355 990.896 580.854C1039.73 517.352 911.676 437.705 911.676 437.705C911.676 437.705 1006.09 332.228 937.721 269.802C869.353 207.377 797.73 295.633 797.73 295.633C797.73 295.633 823.775 152.485 733.703 129.883C642.547 107.281 564.635 182.502 564.635 182.502C564.635 182.502 578.52 62.0761 468.915 27.6344C357.139 -6.80728 283.844 114.983 283.844 114.983Z" fill="#F77D07" />
</symbol>
<symbol id='join-us-bg-big' viewBox="0 0 1390 740" fill="none" xmlns="http://www.w3.org/2000/svg">
  <path d="M671.844 114.983C671.844 114.983 658.325 20.1 567.168 1.80288C476.012 -16.4943 438.029 110.509 438.029 110.509C221.275 -90.252 206.883 198.766 206.883 198.766C206.883 198.766 85.3402 107.281 9.37638 215.987C-48.1391 298.863 177.745 414.96 177.745 414.96C177.745 414.96 1.78076 437.705 103.789 600.227C205.798 761.672 402.5 594.5 402.5 594.5C402.5 594.5 358.81 678.797 481.437 731.536C605.15 784.275 654.495 573.319 654.495 573.319C654.495 573.319 658.325 731.536 772.27 731.536C886.216 731.536 919.857 573.319 919.857 573.319C919.857 573.319 916.601 716.468 1041.4 708.934C1166.2 701.4 1180.3 580.854 1180.3 580.854C1180.3 580.854 1330.06 644.355 1378.9 580.854C1427.73 517.352 1299.68 437.705 1299.68 437.705C1299.68 437.705 1394.09 332.228 1325.72 269.802C1257.35 207.377 1185.73 295.633 1185.73 295.633C1185.73 295.633 1211.77 152.485 1121.7 129.883C1030.55 107.281 952.635 182.502 952.635 182.502C952.635 182.502 966.52 62.0761 856.915 27.6344C745.139 -6.80728 671.844 114.983 671.844 114.983Z" fill="#F77D07" />
</symbol>

<symbol id="arrows-top" viewBox="0 0 32 32">
<path fill="#fff" style="fill: var(--color1, #fff)" opacity="0.1" d="M16 0c8.837 0 16 7.163 16 16s-7.163 16-16 16c-8.837 0-16-7.163-16-16s7.163-16 16-16z"></path>
<path fill="none" stroke="#fff" style="stroke: var(--color1, #fff)" stroke-linejoin="miter" stroke-linecap="butt" stroke-miterlimit="4" stroke-width="0.5333" d="M16 0.267c8.689 0 15.733 7.044 15.733 15.733s-7.044 15.733-15.733 15.733c-8.689 0-15.733-7.044-15.733-15.733s7.044-15.733 15.733-15.733z"></path>
<path fill="#fff" style="fill: var(--color1, #fff)" opacity="0.8" d="M11.745 8.533c-0.079-0.002-0.157 0.014-0.229 0.046s-0.136 0.080-0.187 0.14l-3.2 3.733c-0.046 0.053-0.080 0.115-0.102 0.181s-0.030 0.137-0.025 0.207c0.005 0.070 0.025 0.138 0.056 0.2s0.075 0.118 0.129 0.164c0.053 0.046 0.115 0.080 0.181 0.102s0.137 0.030 0.207 0.025c0.070-0.005 0.138-0.025 0.2-0.056s0.118-0.075 0.164-0.129l2.261-2.639v12.425c0 0.295 0.239 0.533 0.533 0.533s0.533-0.239 0.533-0.533v-12.425l2.261 2.639c0.046 0.053 0.101 0.097 0.164 0.129s0.13 0.051 0.2 0.056c0.070 0.005 0.14-0.003 0.207-0.025s0.128-0.056 0.181-0.102c0.053-0.046 0.097-0.101 0.129-0.164s0.051-0.131 0.056-0.2c0.005-0.070-0.003-0.14-0.025-0.207s-0.056-0.128-0.102-0.181l-3.2-3.733c-0.049-0.057-0.109-0.103-0.177-0.135s-0.142-0.050-0.217-0.051z"></path>
<path fill="#fff" style="fill: var(--color1, #fff)" opacity="0.8" d="M20.267 8.533c-0.295 0-0.533 0.239-0.533 0.533v12.425l-2.261-2.639c-0.049-0.057-0.109-0.103-0.177-0.135s-0.142-0.050-0.217-0.051c-0.131-0.003-0.259 0.043-0.358 0.128-0.053 0.046-0.097 0.101-0.129 0.164s-0.051 0.131-0.056 0.2c-0.005 0.070 0.003 0.14 0.025 0.207s0.056 0.128 0.102 0.181l3.2 3.733c0.050 0.058 0.112 0.105 0.182 0.138s0.146 0.049 0.223 0.049 0.153-0.017 0.223-0.049c0.070-0.032 0.132-0.079 0.182-0.138l3.2-3.733c0.046-0.053 0.080-0.115 0.102-0.181s0.030-0.137 0.025-0.207c-0.005-0.070-0.025-0.138-0.056-0.2s-0.075-0.118-0.129-0.164c-0.053-0.046-0.115-0.080-0.181-0.102s-0.137-0.030-0.207-0.025c-0.070 0.005-0.138 0.025-0.2 0.056s-0.118 0.075-0.164 0.129l-2.261 2.639v-12.425c0-0.295-0.239-0.533-0.533-0.533z"></path>
</symbol>
<symbol id="arrows-bottom" viewBox="0 0 32 32">
<path fill="#fff" style="fill: var(--color1, #fff)" opacity="0.1" d="M0 16c0-8.837 7.163-16 16-16s16 7.163 16 16c0 8.837-7.163 16-16 16s-16-7.163-16-16z"></path>
<path fill="none" stroke="#fff" style="stroke: var(--color1, #fff)" stroke-linejoin="miter" stroke-linecap="butt" stroke-miterlimit="4" stroke-width="0.5333" d="M0.267 16c0-8.689 7.044-15.733 15.733-15.733s15.733 7.044 15.733 15.733c0 8.689-7.044 15.733-15.733 15.733s-15.733-7.044-15.733-15.733z"></path>
<path fill="#fff" style="fill: var(--color1, #fff)" opacity="0.8" d="M8.533 20.255c-0.002 0.079 0.014 0.157 0.046 0.229s0.080 0.136 0.14 0.187l3.733 3.2c0.053 0.046 0.115 0.080 0.181 0.102s0.137 0.030 0.207 0.025c0.070-0.005 0.138-0.025 0.2-0.056s0.118-0.075 0.164-0.129c0.046-0.053 0.080-0.115 0.102-0.181s0.030-0.137 0.025-0.207c-0.005-0.070-0.025-0.138-0.056-0.2s-0.075-0.118-0.129-0.164l-2.639-2.261h12.425c0.295 0 0.533-0.239 0.533-0.533s-0.239-0.533-0.533-0.533h-12.425l2.639-2.261c0.053-0.046 0.097-0.101 0.129-0.164s0.051-0.131 0.056-0.2c0.005-0.070-0.003-0.14-0.025-0.207s-0.056-0.128-0.102-0.181c-0.046-0.053-0.101-0.097-0.164-0.129s-0.131-0.051-0.2-0.056c-0.070-0.005-0.14 0.003-0.207 0.025s-0.128 0.056-0.181 0.102l-3.733 3.2c-0.057 0.049-0.103 0.109-0.135 0.177s-0.050 0.142-0.051 0.217z"></path>
<path fill="#fff" style="fill: var(--color1, #fff)" opacity="0.8" d="M8.533 11.733c0 0.295 0.239 0.533 0.533 0.533h12.425l-2.639 2.261c-0.057 0.049-0.103 0.109-0.135 0.177s-0.050 0.142-0.051 0.217c-0.003 0.131 0.043 0.259 0.128 0.358 0.046 0.053 0.101 0.097 0.164 0.129s0.131 0.051 0.2 0.056c0.070 0.005 0.14-0.003 0.207-0.025s0.128-0.056 0.181-0.102l3.733-3.2c0.058-0.050 0.105-0.112 0.138-0.182s0.049-0.146 0.049-0.223-0.017-0.153-0.049-0.223c-0.032-0.070-0.079-0.132-0.138-0.182l-3.733-3.2c-0.053-0.046-0.115-0.080-0.181-0.102s-0.137-0.030-0.207-0.025c-0.070 0.005-0.138 0.025-0.2 0.056s-0.118 0.075-0.164 0.129c-0.046 0.053-0.080 0.115-0.102 0.181s-0.030 0.137-0.025 0.207c0.005 0.070 0.025 0.138 0.056 0.2s0.075 0.118 0.129 0.164l2.639 2.261h-12.425c-0.295 0-0.533 0.239-0.533 0.533z"></path>
</symbol>
<symbol id="close-component-btn" viewBox="0 0 32 32">
<path stroke-linejoin="round" stroke-linecap="round" stroke-miterlimit="4" stroke-width="2.2857" d="M22.666 9.333l-13.333 13.333M9.333 9.333l13.333 13.333"></path>
</symbol>
</defs>
</svg>