<?xml version="1.0" encoding="utf-8"?>
<!-- Generated by IcoMoon.io -->
<svg version="1.1" xmlns="http://www.w3.org/2000/svg" xmlns:xlink="http://www.w3.org/1999/xlink" width="752" height="68" viewBox="0 0 752 68">
<svg id="icon-close" width="20" height="20" viewBox="0 0 20 20" x="0" y="0">
<path d="M10 8.586l-7.071-7.071-1.414 1.414 7.071 7.071-7.071 7.071 1.414 1.414 7.071-7.071 7.071 7.071 1.414-1.414-7.071-7.071 7.071-7.071-1.414-1.414-7.071 7.071z"></path>
</svg>
<svg id="logoGoIT" width="100" height="30" viewBox="0 0 100 30" fill="none" xmlns="http://www.w3.org/2000/svg">
<path fill-rule="evenodd" clip-rule="evenodd" d="M100 0H56V30H100V0ZM69.8956 8.26018V21.3166C69.8956 21.3306 69.8959 21.3445 69.8963 21.3583C69.8969 21.3859 69.8976 21.4132 69.8956 21.4399C69.8894 21.5153 69.9094 21.56 69.9958 21.5477C70.0163 21.5456 70.0369 21.5463 70.0575 21.547L70.0685 21.5473C70.0751 21.5475 70.0817 21.5477 70.0883 21.5477C70.4524 21.5477 70.8166 21.5478 71.181 21.548H71.1844C71.913 21.5483 72.6421 21.5487 73.3711 21.5477C73.3941 21.5477 73.4145 21.5479 73.4325 21.5481C73.5026 21.549 73.5367 21.5494 73.553 21.5326C73.5684 21.5166 73.5677 21.4851 73.5664 21.4236C73.566 21.4028 73.5654 21.3786 73.5654 21.3505V8.27866C73.5654 8.2684 73.5651 8.25813 73.5648 8.24786C73.5641 8.22733 73.5634 8.20679 73.5654 8.18626C73.5732 8.10926 73.5469 8.06922 73.4637 8.07846C73.4473 8.0805 73.4302 8.07983 73.4129 8.07915C73.4042 8.07881 73.3953 8.07846 73.3866 8.07846C73.0187 8.07846 72.6507 8.07829 72.2826 8.07812C71.5461 8.07777 70.809 8.07743 70.0729 8.07846C70.0511 8.07846 70.0319 8.07817 70.015 8.07792C69.9544 8.07701 69.9239 8.07655 69.9089 8.09156C69.8936 8.10673 69.8941 8.1377 69.895 8.19998C69.8953 8.21746 69.8956 8.23742 69.8956 8.26018ZM88.174 8.07891H82.7001C80.8759 8.07891 79.0518 8.07891 77.2292 8.07737C77.2153 8.07737 77.2015 8.07754 77.1879 8.07771C77.1606 8.07805 77.1335 8.07839 77.1058 8.07737C77.0441 8.07429 77.0225 8.10355 77.0272 8.16053C77.0282 8.17791 77.0278 8.19461 77.0275 8.21153C77.0273 8.22009 77.0272 8.22875 77.0272 8.23753V11.3638L77.0271 11.3962C77.0267 11.4633 77.0266 11.4964 77.043 11.5125C77.059 11.5281 77.0905 11.5279 77.1526 11.5273L77.1952 11.5271H80.6338C80.7459 11.5271 80.8014 11.5271 80.8289 11.5548C80.8559 11.582 80.8559 11.6359 80.8559 11.7427V21.3818C80.8559 21.4003 80.8556 21.4167 80.8554 21.4313C80.8546 21.4866 80.8542 21.5156 80.8685 21.5307C80.8841 21.5471 80.9172 21.547 80.9867 21.5467L81.0209 21.5466H84.3207C84.424 21.5466 84.4753 21.5466 84.5007 21.5209C84.5257 21.4957 84.5257 21.4457 84.5257 21.3464V11.7072C84.5257 11.6863 84.5255 11.6678 84.5252 11.6515C84.5243 11.5919 84.5238 11.5609 84.5391 11.5449C84.5556 11.5276 84.5905 11.5279 84.6634 11.5284L84.7092 11.5286H88.2095C88.3606 11.5286 88.3606 11.5286 88.3622 11.3792V8.26833C88.3622 8.24697 88.3624 8.22798 88.3626 8.21111C88.3634 8.14333 88.3638 8.1097 88.3472 8.09325C88.3309 8.07705 88.298 8.07751 88.2328 8.0784C88.2156 8.07864 88.1961 8.07891 88.174 8.07891Z" fill="#0B0B0B"/>
<path d="M28.7448 13.322C29.3689 12.1716 30.3661 11.6203 31.3339 11.5987C33.2973 11.5941 34.581 12.6983 34.931 14.2291C35.1431 15.1516 35.0486 16.0479 34.5949 16.8857C34.0607 17.8698 33.2276 18.4427 32.1066 18.5705C31.0226 18.6952 30.0765 18.3888 29.3038 17.6095C28.8083 17.1105 28.5095 16.5022 28.3825 15.8154C28.2215 14.9453 28.3206 14.1028 28.7448 13.322Z" fill="#F77D07"/>
<path fill-rule="evenodd" clip-rule="evenodd" d="M44 0H0V30H44L56 15L44 0ZM19.4551 12.8078C19.5219 12.8619 19.5891 12.9164 19.6571 12.971C19.7023 12.9435 19.7302 12.9059 19.7565 12.8705C19.7626 12.8623 19.7687 12.8541 19.7748 12.8462C20.013 12.5632 20.2496 12.2786 20.4863 11.9941L20.4871 11.9931C20.9625 11.4248 21.4363 10.8565 21.9102 10.2867C22.0046 10.1727 22.0015 10.1204 21.8931 10.028C21.808 9.95405 21.7212 9.88167 21.633 9.80929C20.8804 9.19327 20.0535 8.71278 19.1167 8.43403C18.4911 8.24922 17.8516 8.14758 17.2013 8.10292C16.3527 8.04594 15.5119 8.07366 14.6788 8.26616C11.7615 8.93762 9.58438 11.3524 9.32888 14.4479C9.26075 15.2826 9.32579 16.1096 9.53947 16.9212C10.0257 18.7585 11.0817 20.1661 12.7587 21.0932C13.6723 21.5983 14.6618 21.8647 15.7024 21.9479C16.5834 22.0187 17.4552 21.9648 18.3162 21.7708C19.7717 21.4428 21.0585 20.7805 22.2028 19.8334C22.2942 19.758 22.3313 19.6825 22.3313 19.5624C22.3276 18.0888 22.3279 16.6143 22.3281 15.1403L22.3282 14.0352C22.3282 14.016 22.3269 13.9966 22.3256 13.9772C22.3226 13.9341 22.3196 13.8912 22.3313 13.8519C22.3449 13.8063 22.3203 13.7801 22.2964 13.7547C22.2766 13.7337 22.2573 13.7131 22.2601 13.6825C22.2663 13.6317 22.2322 13.624 22.192 13.624H16.0461C16.0343 13.624 16.0223 13.6243 16.0103 13.6246C15.986 13.6253 15.9615 13.626 15.9377 13.624C15.8758 13.6178 15.8557 13.6486 15.8603 13.7056C15.8624 13.7293 15.8617 13.7536 15.861 13.7777C15.8606 13.7897 15.8603 13.8016 15.8603 13.8134C15.8603 14.1368 15.8601 14.4602 15.86 14.7836C15.8596 15.4304 15.8593 16.0773 15.8603 16.7241C15.8603 16.7508 15.8598 16.7739 15.8594 16.7937C15.8581 16.8529 15.8575 16.8833 15.8724 16.8988C15.8881 16.9151 15.9213 16.9147 15.9897 16.9139C16.0067 16.9137 16.026 16.9135 16.0477 16.9135H18.4788C18.5002 16.9135 18.5192 16.9133 18.536 16.9131C18.6034 16.9123 18.6361 16.9119 18.6518 16.928C18.6665 16.9433 18.666 16.9733 18.6651 17.0316C18.6648 17.0522 18.6644 17.0763 18.6646 17.1045C18.6656 17.2451 18.6653 17.385 18.6649 17.5251C18.6647 17.5953 18.6646 17.6655 18.6646 17.7359V17.741C18.6646 18.03 18.6646 18.0323 18.4029 18.1578C17.6364 18.5244 16.8265 18.6291 15.9904 18.5244C15.0613 18.4089 14.318 17.97 13.773 17.2107C13.4184 16.7164 13.2248 16.1589 13.152 15.5583C13.0607 14.7913 13.1536 14.0536 13.502 13.3575C13.9216 12.5213 14.5565 11.9207 15.4685 11.645C16.1081 11.451 16.7553 11.5018 17.3964 11.6419C17.9771 11.7682 18.4834 12.0516 18.9495 12.4073C19.1203 12.5364 19.2864 12.6711 19.4551 12.8078ZM36.6544 10.014C35.2221 8.71117 33.5157 8.09053 31.752 8.07667C30.9375 8.07821 30.3289 8.14443 29.6832 8.3123C27.8096 8.80049 26.3432 9.84772 25.3692 11.5202C24.3689 13.2358 24.166 15.0762 24.725 16.9689C25.3506 19.0849 26.6838 20.6249 28.7464 21.4827C30.3305 22.1403 31.9718 22.2281 33.6272 21.7938C35.5503 21.2902 37.0245 20.1768 37.9907 18.4396C38.8052 16.975 39.0235 15.4042 38.72 13.764C38.4475 12.2902 37.7662 11.0274 36.6544 10.014Z" fill="#F77D07"/>
</svg>

</svg>