<svg width="176" height="86" viewBox="0 0 176 86" fill="none" xmlns="http://www.w3.org/2000/svg">
<path d="M82.8912 14.7799C82.8912 14.7799 80.6072 1.54048 69.1069 0.235542C57.6065 -1.06939 53.8946 13.8299 53.8946 13.8299C33.2195 -9.9097 25.8133 25.9669 25.8133 25.9669C25.8133 25.9669 9.94129 16.5313 1.35197 29.6625C-5.14681 39.67 14.6133 50.3226 14.6133 50.3226C14.6133 50.3226 2.18439 55.1618 16.1932 72.9161C30.1933 90.547 51.6022 62.624 51.6022 62.624C51.6022 62.624 48.5862 79.7078 64.2825 84.6894C80.1139 89.6616 83.8913 62.103 83.8913 62.103C83.8913 62.103 86.3138 83.1488 100.506 82.1564C114.698 81.164 117.619 62.7221 117.619 62.7221C117.619 62.7221 118.361 79.171 133.844 77.2198C149.327 75.2687 150.118 61.318 150.118 61.318C150.118 61.318 169.279 67.298 174.852 59.5884C180.425 51.8789 163.837 43.858 163.837 43.858C163.837 43.858 174.75 30.9364 165.734 24.3711C156.718 17.8057 148.506 28.5534 148.506 28.5534C148.506 28.5534 150.601 11.9061 139.202 10.0979C127.667 8.2991 117.993 19.5211 117.993 19.5211C117.993 19.5211 119.33 3.67133 105.402 0.675141C91.2042 -2.30215 82.8912 14.7799 82.8912 14.7799Z" fill="#F77D07"/>
</svg>
