<svg aria-hidden="true" style="position: absolute; width: 0; height: 0; overflow: hidden;" version="1.1" xmlns="http://www.w3.org/2000/svg" xmlns:xlink="http://www.w3.org/1999/xlink">
<defs>
<symbol id="Vector" viewBox="0 0 43 32">
<path d="M26.139 31.457c-0.335 0.324-0.784 0.503-1.25 0.499s-0.912-0.191-1.242-0.521c-0.33-0.33-0.517-0.776-0.521-1.242s0.175-0.915 0.499-1.25l11.187-11.188h-31.264c-0.471 0-0.924-0.187-1.257-0.521s-0.521-0.786-0.521-1.257c0-0.472 0.187-0.924 0.521-1.257s0.786-0.521 1.257-0.521h31.264l-11.187-11.188c-0.324-0.335-0.503-0.784-0.499-1.25s0.191-0.912 0.521-1.242c0.33-0.33 0.776-0.517 1.242-0.521s0.915 0.175 1.25 0.499l14.222 14.222c0.165 0.166 0.295 0.362 0.384 0.578 0.090 0.215 0.137 0.446 0.137 0.679s-0.046 0.464-0.137 0.679c-0.089 0.216-0.219 0.412-0.384 0.578l-14.222 14.222z"></path>
</symbol>
<symbol id="icon-arrow-left" viewBox="0 0 32 32">
<path d="M26.080 14.721h-17.078l5.227-5.58c0.244-0.261 0.362-0.598 0.327-0.937s-0.22-0.651-0.514-0.868-0.673-0.322-1.054-0.291c-0.381 0.031-0.732 0.196-0.976 0.457l-7.2 7.679c-0.048 0.061-0.092 0.125-0.13 0.192 0 0.064 0 0.102-0.101 0.166-0.065 0.147-0.099 0.303-0.101 0.461 0.001 0.158 0.036 0.314 0.101 0.461 0 0.064 0 0.102 0.101 0.166 0.038 0.067 0.081 0.131 0.13 0.192l7.2 7.679c0.135 0.144 0.305 0.261 0.497 0.34s0.401 0.121 0.612 0.12c0.336 0.001 0.663-0.104 0.922-0.294 0.146-0.108 0.266-0.239 0.355-0.388s0.143-0.312 0.16-0.48c0.017-0.168-0.002-0.337-0.059-0.497s-0.148-0.31-0.269-0.439l-5.227-5.58h17.078c0.382 0 0.748-0.135 1.018-0.375s0.422-0.566 0.422-0.905-0.152-0.665-0.422-0.905c-0.27-0.24-0.636-0.375-1.018-0.375z"></path>
</symbol>
<symbol id="icon-arrow-right" viewBox="0 0 32 32">
<path d="M5.92 14.721h17.078l-5.227-5.58c-0.244-0.261-0.362-0.598-0.327-0.937s0.22-0.651 0.514-0.868 0.673-0.322 1.054-0.291c0.381 0.031 0.732 0.196 0.976 0.457l7.2 7.679c0.048 0.061 0.092 0.125 0.13 0.192 0 0.064 0 0.102 0.101 0.166 0.065 0.147 0.099 0.303 0.101 0.461-0.001 0.158-0.035 0.314-0.101 0.461 0 0.064 0 0.102-0.101 0.166-0.038 0.067-0.081 0.131-0.13 0.192l-7.2 7.679c-0.135 0.144-0.305 0.261-0.497 0.34s-0.401 0.121-0.612 0.12c-0.336 0.001-0.663-0.104-0.922-0.294-0.146-0.108-0.266-0.239-0.355-0.388s-0.143-0.312-0.16-0.48c-0.017-0.168 0.002-0.337 0.059-0.497s0.148-0.31 0.269-0.439l5.227-5.58h-17.078c-0.382 0-0.748-0.135-1.018-0.375s-0.422-0.566-0.422-0.905c0-0.339 0.152-0.665 0.422-0.905s0.636-0.375 1.018-0.375z"></path>
</symbol>
<symbol id="icon-closeX" viewBox="0 0 32 32">
<path stroke-linejoin="round" stroke-linecap="round" stroke-miterlimit="4" stroke-width="4.5714" d="M29.333 2.667l-26.667 26.667M2.667 2.667l26.667 26.667"></path>
</symbol>
<symbol id="icon-screen" viewBox="0 0 32 32">
<path fill="none" stroke="#fff" style="stroke: var(--color1, #fff)" stroke-linejoin="round" stroke-linecap="round" stroke-miterlimit="4" stroke-width="2.6667" d="M5.333 12v-4c0-1.473 1.194-2.667 2.667-2.667h4"></path>
<path fill="none" stroke="#fff" style="stroke: var(--color1, #fff)" stroke-linejoin="round" stroke-linecap="round" stroke-miterlimit="4" stroke-width="2.6667" d="M26.667 20v4c0 1.473-1.194 2.667-2.667 2.667h-4"></path>
<path fill="none" stroke="#fff" style="stroke: var(--color1, #fff)" stroke-linejoin="round" stroke-linecap="round" stroke-miterlimit="4" stroke-width="2.6667" d="M20 5.333h4c1.473 0 2.667 1.194 2.667 2.667v4"></path>
<path fill="none" stroke="#fff" style="stroke: var(--color1, #fff)" stroke-linejoin="round" stroke-linecap="round" stroke-miterlimit="4" stroke-width="2.6667" d="M12 26.667h-4c-1.473 0-2.667-1.194-2.667-2.667v-4"></path>
</symbol>
<symbol id="icon-full-screen" viewBox="0 0 32 32">
<path fill="none" stroke="#fff" style="stroke: var(--color1, #fff)" stroke-linejoin="round" stroke-linecap="round" stroke-miterlimit="4" stroke-width="2.6667" d="M12 5.333v4c0 1.473-1.194 2.667-2.667 2.667h-4"></path>
<path fill="none" stroke="#fff" style="stroke: var(--color1, #fff)" stroke-linejoin="round" stroke-linecap="round" stroke-miterlimit="4" stroke-width="2.6667" d="M20 26.667v-4c0-1.473 1.194-2.667 2.667-2.667h4"></path>
<path fill="none" stroke="#fff" style="stroke: var(--color1, #fff)" stroke-linejoin="round" stroke-linecap="round" stroke-miterlimit="4" stroke-width="2.6667" d="M26.667 12h-4c-1.473 0-2.667-1.194-2.667-2.667v-4"></path>
<path fill="none" stroke="#fff" style="stroke: var(--color1, #fff)" stroke-linejoin="round" stroke-linecap="round" stroke-miterlimit="4" stroke-width="2.6667" d="M5.333 20h4c1.473 0 2.667 1.194 2.667 2.667v4"></path>
</symbol>
<symbol id="icon-zoom-minus" viewBox="0 0 32 32">
<path fill="none" stroke="#fff" style="stroke: var(--color1, #fff)" stroke-linejoin="round" stroke-linecap="round" stroke-miterlimit="4" stroke-width="2.6667" d="M28.001 28l-5.8-5.8"></path>
<path fill="none" stroke="#fff" style="stroke: var(--color1, #fff)" stroke-linejoin="round" stroke-linecap="round" stroke-miterlimit="4" stroke-width="2.6667" d="M10.667 14.667h8M25.333 14.667c0 5.891-4.776 10.667-10.667 10.667s-10.667-4.776-10.667-10.667c0-5.891 4.776-10.667 10.667-10.667s10.667 4.776 10.667 10.667z"></path>
</symbol>
<symbol id="icon-zoom-plus" viewBox="0 0 32 32">
<path fill="none" stroke="#fff" style="stroke: var(--color1, #fff)" stroke-linejoin="round" stroke-linecap="round" stroke-miterlimit="4" stroke-width="2.6667" d="M28.001 28l-5.8-5.8"></path>
<path fill="none" stroke="#fff" style="stroke: var(--color1, #fff)" stroke-linejoin="round" stroke-linecap="round" stroke-miterlimit="4" stroke-width="2.6667" d="M14.667 10.667v8M10.667 14.667h8M25.333 14.667c0 5.891-4.776 10.667-10.667 10.667s-10.667-4.776-10.667-10.667c0-5.891 4.776-10.667 10.667-10.667s10.667 4.776 10.667 10.667z"></path>
</symbol>
</defs>
</svg>


