<svg aria-hidden="true" style="position: absolute; width: 0; height: 0; overflow: hidden;" version="1.1" xmlns="http://www.w3.org/2000/svg" xmlns:xlink="http://www.w3.org/1999/xlink">
<defs>
<symbol id="Vector" viewBox="0 0 43 32">
<path d="M26.139 31.457c-0.335 0.324-0.784 0.503-1.25 0.499s-0.912-0.191-1.242-0.521c-0.33-0.33-0.517-0.776-0.521-1.242s0.175-0.915 0.499-1.25l11.187-11.188h-31.264c-0.471 0-0.924-0.187-1.257-0.521s-0.521-0.786-0.521-1.257c0-0.472 0.187-0.924 0.521-1.257s0.786-0.521 1.257-0.521h31.264l-11.187-11.188c-0.324-0.335-0.503-0.784-0.499-1.25s0.191-0.912 0.521-1.242c0.33-0.33 0.776-0.517 1.242-0.521s0.915 0.175 1.25 0.499l14.222 14.222c0.165 0.166 0.295 0.362 0.384 0.578 0.090 0.215 0.137 0.446 0.137 0.679s-0.046 0.464-0.137 0.679c-0.089 0.216-0.219 0.412-0.384 0.578l-14.222 14.222z"></path>
</symbol>

<symbol id="house" viewBox="0 0 50 50">
     <path d="M36.087 22.883H.029v-11.77L18.06.5l18.028 10.614v11.769Z" />
    </symbol>
    <symbol id="wave" viewBox="0 0 64 64">
     <path d="M36.115 14.107c-4.434 0-6.857-1.63-8.624-2.819-1.296-.872-1.83-1.23-3.414-1.23s-2.122.361-3.414 1.23c-1.768 1.19-4.19 2.819-8.625 2.819-4.434 0-6.857-1.63-8.624-2.821-1.295-.872-1.83-1.231-3.414-1.231V.844c4.434 0 6.857 1.63 8.624 2.821 1.296.872 1.83 1.231 3.414 1.231s2.122-.362 3.414-1.23c1.768-1.19 4.19-2.82 8.625-2.82 4.434 0 6.857 1.63 8.624 2.822 1.295.872 1.83 1.23 3.414 1.23v9.212-.003Z"/>
    </symbol>

</defs>
</svg>


