<svg aria-hidden="true" style="position: absolute; width: 0; height: 0; overflow: hidden;" version="1.1" xmlns="http://www.w3.org/2000/svg" xmlns:xlink="http://www.w3.org/1999/xlink">
<defs>
<symbol id="main-logo" viewBox="0 0 92 32">
<title>MISTOHUB</title>
<path d="M38.744 5.446h-0.205v5.606h-3.397v-10.157h4.666l2.067 5.891h0.246l2.067-5.891h4.666v10.157h-3.397v-5.606h-0.225l-2.006 5.606h-2.456l-2.026-5.606z"></path>
<path d="M51.657 0.896h3.438v10.157h-3.438v-10.157z"></path>
<path d="M68.544 6.99v0.65c-0.532 1.93-2.742 3.656-5.567 3.656-3.254 0-5.649-2.072-5.649-5.322s2.395-5.322 5.649-5.322c2.701 0 5.035 1.706 5.567 3.656v0.65h-3.602c-0.327-0.691-1.044-1.097-1.965-1.097-1.31 0-2.169 0.792-2.169 2.113s0.86 2.113 2.169 2.113c0.921 0 1.637-0.406 1.965-1.097h3.602z"></path>
<path d="M76.4 11.053h-3.438v-6.988h-3.111v-3.169h9.639v3.169h-3.090v6.988z"></path>
<path d="M80.8 5.974c0-3.25 2.395-5.322 5.649-5.322s5.648 2.072 5.648 5.322c0 3.25-2.395 5.322-5.648 5.322s-5.649-2.072-5.649-5.322zM84.279 5.974c0 1.32 0.859 2.113 2.17 2.113s2.169-0.792 2.169-2.113-0.859-2.113-2.169-2.113c-1.31 0-2.17 0.792-2.17 2.113z"></path>
<path d="M40.894 28.867h-0.266l-1.944 2.498h-3.541v-0.65l3.438-4.205v-0.508l-3.336-4.144v-0.65h3.643l1.903 2.356h0.246l1.821-2.356h3.541v0.65l-3.295 4.083v0.488l3.459 4.286v0.65h-3.643l-2.026-2.498zM38.766 26.227v0.061l0.020-0.041-0.020-0.020zM42.92 26.206v-0.020h-0.021l0.021 0.020z"></path>
<path d="M58.925 31.366h-3.438v-0.955c-0.798 0.772-1.842 1.198-3.049 1.198-2.64 0-4.564-2.072-4.564-5.322s1.924-5.322 4.564-5.322c1.208 0 2.251 0.447 3.049 1.219v-0.975h3.438v10.157zM55.61 26.288c0-1.32-0.839-2.113-2.128-2.113s-2.128 0.792-2.128 2.113 0.839 2.113 2.128 2.113c1.289 0 2.128-0.792 2.128-2.113z"></path>
<path d="M72.473 26.592c0 3.047-2.701 5.017-5.403 5.017-3.479 0-5.894-2.499-5.894-6.805 0-4.55 3.111-6.927 6.549-7.313 0.552-0.061 1.187-0.183 1.187-0.569h3.172c0 2.62-1.617 3.453-4.359 3.778-1.924 0.244-3.090 0.772-3.643 2.316l0.082 0.041c0.737-0.833 1.883-1.503 3.234-1.503 3.111 0 5.076 2.113 5.076 5.038zM67.007 28.441c1.269 0 2.128-0.711 2.128-1.991s-0.86-1.991-2.128-1.991c-1.269 0-2.128 0.711-2.128 1.991s0.86 1.991 2.128 1.991z"></path>
<path fill="#f77d07" style="fill: var(--color2, #f77d07)" d="M28.165 17.86h-28.142v-9.186l14.072-8.284 14.070 8.284v9.186z"></path>
<path fill="#f77d07" style="fill: var(--color2, #f77d07)" d="M28.187 31.303c-3.461 0-5.352-1.272-6.731-2.2-1.011-0.68-1.429-0.961-2.665-0.961s-1.656 0.282-2.665 0.961c-1.379 0.928-3.27 2.2-6.731 2.2s-5.352-1.272-6.731-2.202c-1.011-0.68-1.429-0.961-2.665-0.961v-7.189c3.461 0 5.352 1.272 6.731 2.202 1.011 0.68 1.429 0.961 2.665 0.961s1.656-0.282 2.665-0.961c1.379-0.928 3.27-2.2 6.731-2.2s5.352 1.272 6.731 2.202c1.011 0.68 1.429 0.961 2.665 0.961v7.187z"></path>
<path fill="#f77d07" style="fill: var(--color2, #f77d07)" d="M92.003 24.126v7.211h-12.484v-7.211c0-3.419 2.797-6.195 6.242-6.195s6.242 2.777 6.242 6.195z"></path>
</symbol>
<symbol id="burger-menu" viewBox="0 0 37 32">
<title>Menu</title>
<path stroke-linejoin="round" stroke-linecap="round" stroke-width="2.1787" d="M31.5 18.673h-27.234"></path>
<path stroke-linejoin="round" stroke-linecap="round" stroke-width="2.1787" d="M31.5 13.34h-27.234"></path>
</symbol>
<symbol id="cloud" viewBox="0 0 66 32">
<path d="M31.206 5.564c0 0-0.86-4.984-5.189-5.476s-5.727 5.118-5.727 5.118c-7.784-8.937-10.572 4.569-10.572 4.569s-5.975-3.552-9.209 1.391c-2.447 3.768 4.992 7.778 4.992 7.778s-4.679 1.822 0.595 8.506c5.271 6.638 13.33-3.875 13.33-3.875s-1.135 6.432 4.774 8.307c5.96 1.872 7.382-8.503 7.382-8.503s0.912 7.923 6.255 7.55c5.343-0.374 6.443-7.316 6.443-7.316s0.279 6.193 6.108 5.458c5.829-0.735 6.127-5.987 6.127-5.987s7.214 2.251 9.312-0.651c2.098-2.902-4.147-5.922-4.147-5.922s4.108-4.865 0.714-7.336c-3.394-2.472-6.486 1.575-6.486 1.575s0.789-6.267-3.503-6.948c-4.343-0.677-7.985 3.548-7.985 3.548s0.503-5.967-4.74-7.095c-5.345-1.121-8.475 5.31-8.475 5.31z"></path>
</symbol>
<symbol id="icon-building1" viewBox="0 0 64 32">
<path d="M32.023 0C14.365 0 0 14.309 0 32h64c.046-17.691-14.273-32-31.977-32z"/>
</symbol>
<symbol id="icon-building2" viewBox="0 0 32 32">
<path d="M23.361 8.674 22.635 0 16 5.633 9.365 0l-.691 8.674L0 9.4 5.633 16 0 22.635l8.674.726L9.365 32 16 26.402 22.635 32l.726-8.639L32 22.635 26.402 16 32 9.4l-8.639-.726z"/>
</symbol>
<symbol id="icon-building3" viewBox="0 0 15 32">
<path d="M4.854 24.529s-4.347-.37-3.86 3.184c.955 6.778 13.855 4.58 13.855-.37 0-2.157-4.49-2.814-4.49-2.814s4.307.185 4.591-2.814c.284-2.999-3.961-2.177-3.961-2.177s3.961-1.315 3.86-3.225c-.081-1.705-3.007-2.075-3.616-2.136.813.021 2.844-1.191 3.616-3.697.731-2.342-2.763-2.691-3.555-2.752.528-.021 2.174-.37 1.524-4.621-.752-5.012-11.173-2.588-11.051.822.122 2.958 3.027 3.636 3.779 3.759-.914-.123-5.018-.431-5.322 2.773-.284 2.958 4.632 3.081 4.632 3.081s-4.49-.021-4.632 2.321c-.142 2.362 3.9 2.732 4.551 2.793-.609-.041-4.429-.123-4.591 2.239-.223 3.122 4.672 3.636 4.672 3.636z"/>
</symbol>
<symbol id="icon-building4" viewBox="0 0 47 32">
<path d="M44.556 7.393c-9.092-5.591-12.494 8.718-12.494 8.718S33.62-1.452 22.08.096c-11.572 1.548-4.578 14.751-4.578 14.751S7.456 2.528 1.384 9.446c-6.072 6.918 8.933 22.522 23.621 22.553 16.913.031 25.687-20.816 19.551-24.607z"/>
</symbol>
<symbol id="icon-building1" viewBox="0 0 64 32">
<path d="M32.023 0C14.365 0 0 14.309 0 32h64c.046-17.691-14.273-32-31.977-32z"/>
</symbol>
<symbol id="icon-building2" viewBox="0 0 32 32">
<path d="M23.361 8.674 22.635 0 16 5.633 9.365 0l-.691 8.674L0 9.4 5.633 16 0 22.635l8.674.726L9.365 32 16 26.402 22.635 32l.726-8.639L32 22.635 26.402 16 32 9.4l-8.639-.726z"/>
</symbol>
<symbol id="icon-building3" viewBox="0 0 15 32">
<path d="M4.854 24.529s-4.347-.37-3.86 3.184c.955 6.778 13.855 4.58 13.855-.37 0-2.157-4.49-2.814-4.49-2.814s4.307.185 4.591-2.814c.284-2.999-3.961-2.177-3.961-2.177s3.961-1.315 3.86-3.225c-.081-1.705-3.007-2.075-3.616-2.136.813.021 2.844-1.191 3.616-3.697.731-2.342-2.763-2.691-3.555-2.752.528-.021 2.174-.37 1.524-4.621-.752-5.012-11.173-2.588-11.051.822.122 2.958 3.027 3.636 3.779 3.759-.914-.123-5.018-.431-5.322 2.773-.284 2.958 4.632 3.081 4.632 3.081s-4.49-.021-4.632 2.321c-.142 2.362 3.9 2.732 4.551 2.793-.609-.041-4.429-.123-4.591 2.239-.223 3.122 4.672 3.636 4.672 3.636z"/>
</symbol>
<symbol id="icon-building4" viewBox="0 0 47 32">
<path d="M44.556 7.393c-9.092-5.591-12.494 8.718-12.494 8.718S33.62-1.452 22.08.096c-11.572 1.548-4.578 14.751-4.578 14.751S7.456 2.528 1.384 9.446c-6.072 6.918 8.933 22.522 23.621 22.553 16.913.031 25.687-20.816 19.551-24.607z"/>
</symbol>
<symbol id="house" viewBox="0 0 50 50">
<path d="M36.087 22.883H.029v-11.77L18.06.5l18.028 10.614v11.769Z" />
</symbol>
<symbol id="wave" viewBox="0 0 64 64">
<path d="M36.115 14.107c-4.434 0-6.857-1.63-8.624-2.819-1.296-.872-1.83-1.23-3.414-1.23s-2.122.361-3.414 1.23c-1.768 1.19-4.19 2.819-8.625 2.819-4.434 0-6.857-1.63-8.624-2.821-1.295-.872-1.83-1.231-3.414-1.231V.844c4.434 0 6.857 1.63 8.624 2.821 1.296.872 1.83 1.231 3.414 1.231s2.122-.362 3.414-1.23c1.768-1.19 4.19-2.82 8.625-2.82 4.434 0 6.857 1.63 8.624 2.822 1.295.872 1.83 1.23 3.414 1.23v9.212-.003Z"/>
</symbol>

<symbol id="goit" viewBox="0 0 59 18">
<path fillRule="evenodd" clipRule="evenodd" d="M59.0003 0H33.04V18H59.0003V0ZM41.2384 4.95611V12.79C41.2384 12.7983 41.2386 12.8067 41.2388 12.815C41.2392 12.8315 41.2396 12.8479 41.2384 12.8639C41.2347 12.9092 41.2466 12.936 41.2975 12.9286C41.3096 12.9274 41.3218 12.9278 41.3339 12.9282L41.3404 12.9284C41.3443 12.9285 41.3482 12.9286 41.3521 12.9286C41.5669 12.9286 41.7818 12.9287 41.9968 12.9288H41.9988C42.4287 12.929 42.8588 12.9292 43.289 12.9286C43.3026 12.9286 43.3146 12.9287 43.3252 12.9289C43.3665 12.9294 43.3867 12.9297 43.3963 12.9196C43.4054 12.91 43.405 12.891 43.4042 12.8541C43.4039 12.8417 43.4036 12.8272 43.4036 12.8103V4.9672C43.4036 4.96104 43.4034 4.95488 43.4032 4.94872C43.4028 4.9364 43.4024 4.92408 43.4036 4.91176C43.4082 4.86556 43.3927 4.84153 43.3436 4.84707C43.3339 4.8483 43.3238 4.8479 43.3136 4.84749C43.3085 4.84728 43.3033 4.84707 43.2981 4.84707C43.0811 4.84707 42.8639 4.84697 42.6468 4.84687C42.2122 4.84666 41.7773 4.84646 41.343 4.84707C41.3301 4.84707 41.3188 4.8469 41.3089 4.84675C41.2731 4.8462 41.2551 4.84593 41.2462 4.85493C41.2372 4.86404 41.2375 4.88262 41.2381 4.91999C41.2382 4.93048 41.2384 4.94245 41.2384 4.95611ZM52.0227 4.84735H48.793C47.7168 4.84735 46.6405 4.84735 45.5652 4.84642C45.557 4.84642 45.5489 4.84653 45.5408 4.84663C45.5248 4.84683 45.5088 4.84704 45.4924 4.84642C45.456 4.84457 45.4433 4.86213 45.446 4.89632C45.4466 4.90675 45.4464 4.91677 45.4462 4.92692C45.4461 4.93205 45.446 4.93725 45.446 4.94252V6.81829L45.446 6.83774C45.4458 6.878 45.4457 6.89784 45.4554 6.90751C45.4648 6.91688 45.4834 6.91672 45.5201 6.91638L45.5452 6.91624H47.574C47.6401 6.91624 47.6728 6.91624 47.6891 6.93289C47.705 6.94921 47.705 6.98155 47.705 7.0456V12.8291C47.705 12.8402 47.7048 12.85 47.7047 12.8588C47.7042 12.892 47.704 12.9094 47.7124 12.9184C47.7216 12.9283 47.7412 12.9282 47.7822 12.928L47.8023 12.9279H49.7492C49.8102 12.9279 49.8404 12.9279 49.8554 12.9126C49.8702 12.8974 49.8702 12.8674 49.8702 12.8078V7.02435C49.8702 7.0118 49.87 7.0007 49.8699 6.9909C49.8693 6.95515 49.8691 6.93656 49.8781 6.92696C49.8878 6.91657 49.9084 6.91672 49.9514 6.91703L49.9785 6.91716H52.0436C52.1328 6.91716 52.1328 6.91716 52.1337 6.82753V4.961C52.1337 4.94818 52.1338 4.93679 52.1339 4.92667C52.1344 4.886 52.1347 4.86582 52.1249 4.85595C52.1152 4.84623 52.0958 4.8465 52.0574 4.84704C52.0472 4.84718 52.0357 4.84735 52.0227 4.84735Z" fill="#0B0B0B" />
<path d="M16.9595 7.99323C17.3276 7.30298 17.916 6.97218 18.487 6.95925C19.6454 6.95647 20.4028 7.619 20.6093 8.53748C20.7344 9.09097 20.6787 9.62875 20.411 10.1314C20.0958 10.7219 19.6043 11.0656 18.9429 11.1423C18.3034 11.2171 17.7451 11.0333 17.2893 10.5657C16.9969 10.2663 16.8206 9.90134 16.7457 9.48923C16.6507 8.96715 16.7091 8.46171 16.9595 7.99323Z" fill="#F77D07" />
<path fillRule="evenodd" clipRule="evenodd" d="M25.96 0H0V18H25.96L33.04 9L25.96 0ZM11.4785 7.68469C11.5179 7.71717 11.5576 7.74984 11.5977 7.78259C11.6244 7.76611 11.6408 7.74355 11.6563 7.72231C11.6599 7.71737 11.6635 7.71245 11.6671 7.70775C11.8077 7.53793 11.9473 7.36719 12.0869 7.19644C12.3674 6.85548 12.6474 6.51391 12.927 6.17202C12.9827 6.10364 12.9809 6.07222 12.9169 6.01678C12.8667 5.97243 12.8155 5.929 12.7635 5.88557C12.3195 5.51596 11.8316 5.22767 11.2789 5.06042C10.9098 4.94953 10.5325 4.88855 10.1488 4.86175C9.6481 4.82756 9.15202 4.8442 8.66051 4.9597C6.9393 5.36257 5.65478 6.81144 5.50404 8.66873C5.46384 9.16955 5.50221 9.66576 5.62829 10.1527C5.91516 11.2551 6.53823 12.0996 7.52765 12.6559C8.06667 12.959 8.65046 13.1188 9.2644 13.1687C9.78423 13.2112 10.2986 13.1789 10.8065 13.0625C11.6653 12.8657 12.4245 12.4683 13.0997 11.9C13.1536 11.8548 13.1755 11.8095 13.1755 11.7374C13.1733 10.8533 13.1734 9.96857 13.1736 9.08421L13.1737 8.42109C13.1737 8.40961 13.1729 8.39795 13.1721 8.3863C13.1703 8.36046 13.1686 8.3347 13.1755 8.31114C13.1835 8.28378 13.169 8.26809 13.1549 8.25279C13.1432 8.24019 13.1318 8.22786 13.1335 8.20949C13.1371 8.179 13.117 8.17438 13.0933 8.17438H9.46721C9.46024 8.17438 9.45317 8.17458 9.44606 8.17479C9.43175 8.1752 9.4173 8.17562 9.40326 8.17438C9.36672 8.17068 9.35484 8.18917 9.35758 8.22335C9.3588 8.23756 9.35839 8.25217 9.35798 8.26665C9.35778 8.27383 9.35758 8.28099 9.35758 8.28804C9.35758 8.48208 9.35748 8.67613 9.35738 8.87017C9.35717 9.25826 9.35697 9.64635 9.35758 10.0344C9.35758 10.0505 9.35729 10.0643 9.35704 10.0762C9.3563 10.1117 9.35591 10.13 9.3647 10.1393C9.374 10.1491 9.39359 10.1488 9.4339 10.1484C9.44394 10.1482 9.45535 10.1481 9.46813 10.1481H10.9025C10.9151 10.1481 10.9263 10.148 10.9363 10.1478C10.976 10.1474 10.9953 10.1471 11.0045 10.1568C11.0132 10.166 11.013 10.184 11.0124 10.219C11.0122 10.2313 11.012 10.2458 11.0121 10.2627C11.0127 10.347 11.0125 10.431 11.0123 10.5151C11.0122 10.5572 11.0121 10.5993 11.0121 10.6415V10.6446C11.0121 10.818 11.0121 10.8194 10.8577 10.8947C10.4055 11.1146 9.92766 11.1775 9.43432 11.1146C8.88617 11.0453 8.44764 10.782 8.12606 10.3264C7.91684 10.0298 7.80264 9.69532 7.75971 9.33496C7.7058 8.87479 7.76062 8.43218 7.96618 8.01452C8.21376 7.51278 8.58834 7.15241 9.12644 6.98701C9.50376 6.87058 9.88564 6.90107 10.2639 6.98516C10.6065 7.06093 10.9052 7.23095 11.1802 7.4444C11.281 7.52185 11.379 7.60264 11.4785 7.68469ZM21.6261 6.00842C20.781 5.2267 19.7742 4.85432 18.7337 4.846C18.2531 4.84693 17.8941 4.88666 17.5131 4.98738C16.4076 5.28029 15.5425 5.90863 14.9678 6.91212C14.3776 7.94148 14.258 9.04569 14.5878 10.1813C14.9569 11.4509 15.7435 12.375 16.9604 12.8896C17.895 13.2842 18.8634 13.3369 19.84 13.0763C20.9747 12.7741 21.8444 12.1061 22.4145 11.0638C22.8951 10.185 23.0239 9.24251 22.8448 8.25842C22.684 7.37413 22.2821 6.61643 21.6261 6.00842Z" fill="#F77D07" /></symbol>

<symbol id="close" viewBox="0 0 14 15" >
  <path d="M12.8332 1.66669L1.1665 13.3334M1.1665 1.66669L12.8332 13.3334" stroke="#0B0B0B" stroke-opacity="0.5" stroke-width="2" stroke-linecap="round" stroke-linejoin="round" /></symbol>


<symbol id="hoverarrow" viewBox="0 0 40 40">
  <rect width="40" height="40" rx="20" fill="#F77D07" />
  <path d="M25.2451 13.8723C25.2162 13.4591 24.8578 13.1476 24.4446 13.1765L17.7111 13.6473C17.2979 13.6762 16.9863 14.0346 17.0152 14.4478C17.0441 14.861 17.4025 15.1726 17.8157 15.1437L23.8011 14.7251L24.2196 20.7105C24.2485 21.1237 24.6069 21.4353 25.0201 21.4064C25.4333 21.3775 25.7449 21.0191 25.716 20.6059L25.2451 13.8723ZM14.566 26.492L25.063 14.4167L23.9309 13.4326L13.434 25.508L14.566 26.492Z" fill="white" />
</symbol>

<symbol id="misto-hub-logo" width="357" height="121" fill="none" xmlns="http://www.w3.org/2000/svg"><g clip-path="url(#a)"><path d="M150.183 19.596h-.794v21.73H136.22V1.96h18.088l8.012 22.832h.952l8.013-22.832h18.087v39.365h-13.169v-21.73h-.872l-7.775 21.73h-9.52l-7.853-21.73ZM200.241 1.96h13.327v39.365h-13.327V1.96ZM265.697 25.58v2.519c-2.062 7.48-10.63 14.171-21.578 14.171-12.614 0-21.895-8.03-21.895-20.627s9.281-20.627 21.895-20.627c10.472 0 19.516 6.613 21.578 14.171v2.52h-13.962c-1.269-2.677-4.046-4.252-7.616-4.252-5.077 0-8.409 3.07-8.409 8.188 0 5.117 3.332 8.188 8.409 8.188 3.57 0 6.347-1.575 7.616-4.252h13.962ZM296.153 41.325h-13.328V14.242h-12.058V1.96h37.365v12.282h-11.979v27.083ZM313.209 21.643c0-12.597 9.282-20.627 21.896-20.627 12.613 0 21.895 8.03 21.895 20.627s-9.282 20.627-21.895 20.627c-12.614 0-21.896-8.03-21.896-20.627Zm13.486 0c0 5.117 3.332 8.188 8.41 8.188 5.077 0 8.409-3.07 8.409-8.188s-3.332-8.188-8.409-8.188c-5.078 0-8.41 3.07-8.41 8.188ZM158.52 110.371h-1.031l-7.536 9.684h-13.725v-2.519l13.328-16.297v-1.968L136.625 83.21v-2.52h14.121l7.378 9.133h.952l7.06-9.133h13.725v2.52l-12.773 15.824v1.89l13.407 16.612v2.519h-14.121l-7.854-9.684Zm-8.25-10.234v.236l.079-.158-.079-.078Zm16.104-.079v-.079h-.079l.079.079ZM228.411 120.055h-13.327v-3.7c-3.094 2.992-7.14 4.645-11.821 4.645-10.233 0-17.691-8.03-17.691-20.627s7.458-20.627 17.691-20.627c4.681 0 8.727 1.732 11.821 4.723V80.69h13.327v39.365Zm-12.851-19.682c0-5.118-3.253-8.188-8.251-8.188-4.998 0-8.25 3.07-8.25 8.188 0 5.117 3.252 8.188 8.25 8.188s8.251-3.071 8.251-8.188ZM280.929 101.554c0 11.809-10.472 19.446-20.944 19.446-13.486 0-22.847-9.684-22.847-26.374 0-17.636 12.058-26.847 25.386-28.343 2.142-.237 4.601-.709 4.601-2.205h12.297c0 10.156-6.268 13.384-16.898 14.644-7.457.945-11.979 2.992-14.121 8.975l.317.158c2.856-3.228 7.299-5.826 12.535-5.826 12.058 0 19.674 8.188 19.674 19.525Zm-21.19 7.164c4.919 0 8.251-2.755 8.251-7.715s-3.332-7.716-8.251-7.716c-4.918 0-8.25 2.756-8.25 7.716 0 4.96 3.332 7.715 8.25 7.715Z" fill="#fff"/><path d="M109.176 67.708H.087V32.106L54.636 0l54.54 32.106v35.602ZM109.263 119.811c-13.415 0-20.745-4.928-26.092-8.526-3.919-2.638-5.537-3.724-10.329-3.724-4.791 0-6.418 1.094-10.329 3.724-5.347 3.598-12.677 8.526-26.092 8.526s-20.745-4.928-26.092-8.534C6.41 108.639 4.792 107.553 0 107.553V79.69c13.415 0 20.745 4.929 26.092 8.535 3.92 2.637 5.538 3.724 10.33 3.724 4.79 0 6.417-1.095 10.328-3.724 5.347-3.598 12.677-8.527 26.092-8.527s20.746 4.929 26.092 8.535c3.919 2.637 5.538 3.724 10.329 3.724v27.862-.008ZM356.635 91.996v27.949h-48.392v-27.95c0-13.25 10.844-24.012 24.196-24.012 13.351 0 24.196 10.763 24.196 24.013Z" fill="#F77D07"/></g><defs><clipPath id="a"><path fill="#fff" d="M0 0h357v121H0z"/></clipPath></defs></symbol>


<symbol id="topscroll" width="12" height="8" fill="none" xmlns="http://www.w3.org/2000/svg"><path d="M11 6.5l-5-5-5 5" stroke="#fff" stroke-width="1.6" stroke-linecap="round" stroke-linejoin="round"/></symbol>

<symbol id="instagram-menu" xmlns="http://www.w3.org/2000/svg" width="36" height="36" fill="none"><rect width="36" height="36" fill="#F77D07" rx="18"/><path fill="#fff" d="M24.359 15.378a4.626 4.626 0 0 0-.298-1.572 3.273 3.273 0 0 0-1.872-1.869 4.704 4.704 0 0 0-1.553-.298c-.684-.03-.9-.039-2.637-.039-1.735 0-1.958 0-2.637.039a4.705 4.705 0 0 0-1.553.298 3.272 3.272 0 0 0-1.871 1.869 4.646 4.646 0 0 0-.298 1.55c-.03.683-.04.9-.04 2.633 0 1.732 0 1.954.04 2.632.01.531.11 1.055.298 1.552a3.274 3.274 0 0 0 1.872 1.868c.495.193 1.02.302 1.553.32.684.03.901.039 2.637.039s1.958 0 2.637-.04a4.69 4.69 0 0 0 1.554-.297 3.278 3.278 0 0 0 1.872-1.868c.186-.497.287-1.02.297-1.552.03-.683.04-.9.04-2.633-.001-1.733-.001-1.953-.041-2.632Zm-6.364 5.888a3.283 3.283 0 0 1-3.286-3.28c0-1.813 1.47-3.282 3.286-3.282a3.283 3.283 0 0 1 3.286 3.281 3.283 3.283 0 0 1-3.286 3.28Zm3.417-5.918a.765.765 0 1 1 0-1.53.765.765 0 1 1 0 1.53Z"/><path fill="#fff" d="M17.996 19.988a2.002 2.002 0 1 0 0-4.004 2.002 2.002 0 0 0 0 4.004Z"/></symbol>

<symbol id="facebook-menu" xmlns="http://www.w3.org/2000/svg" width="36" height="36" fill="none"><rect width="36" height="36" fill="#F77D07" rx="18"/><path fill="#fff" d="M19.995 11.53h.605v2.27h-.757c-.302 0-.605 0-.756.152-.152.151-.152.303-.152.656v.807H20.6v1.917h-1.665v8.324h-2.573v-8.374H15v-1.918h1.362v-.655c0-1.11.152-1.918.454-2.27.454-.657 1.362-.96 2.725-.96.133 0 .302.051.454.051Z"/></symbol>

<symbol id="go-it" width="100" height="30" fill="none" xmlns="http://www.w3.org/2000/svg"><path fill-rule="evenodd" clip-rule="evenodd" d="M100 0H56v30h44V0ZM69.896 8.26v13.098c0 .028.002.055 0 .082-.007.075.013.12.1.108a.454.454 0 0 1 .062-.001h.03l1.093.001h2.252c.07.001.104.001.12-.015.015-.016.015-.048.013-.11V8.28l-.001-.031a.469.469 0 0 1 0-.062c.008-.077-.018-.117-.101-.108a.315.315 0 0 1-.051.001H72.283c-.737-.001-1.474-.002-2.21 0l-.058-.001c-.06-.001-.091-.001-.106.014s-.015.046-.014.108v.06Zm18.278-.181H82.7c-1.824 0-3.648 0-5.47-.002h-.124c-.062-.003-.084.027-.079.084v3.235c0 .067 0 .1.016.116s.047.016.11.015h3.481c.112 0 .167 0 .195.028.027.027.027.08.027.188v9.689c-.001.055-.002.084.013.099.015.016.048.016.118.016H84.32c.103 0 .154 0 .18-.026.025-.025.025-.075.025-.175V11.651c-.002-.06-.002-.09.013-.106.017-.017.052-.017.124-.017h3.546c.152 0 .152 0 .153-.149V8.211c.001-.068.002-.101-.015-.118-.016-.016-.049-.015-.114-.015h-.059Z" fill="#0B0B0B"/><path d="M28.745 13.322c.624-1.15 1.621-1.702 2.589-1.723 1.963-.005 3.247 1.1 3.597 2.63.212.923.118 1.819-.336 2.657-.534.984-1.367 1.557-2.488 1.684-1.084.125-2.03-.181-2.803-.96a3.356 3.356 0 0 1-.921-1.795c-.162-.87-.062-1.712.362-2.493Z" fill="#F77D07"/><path fill-rule="evenodd" clip-rule="evenodd" d="M44 0H0v30h44l12-15L44 0ZM19.455 12.808l.202.163c.045-.027.073-.065.1-.1a1.71 1.71 0 0 1 .018-.025c.238-.283.475-.567.711-.852h.001c.476-.57.95-1.137 1.423-1.707.095-.114.091-.167-.017-.259a12.043 12.043 0 0 0-.26-.219c-.753-.616-1.58-1.096-2.516-1.375a8.877 8.877 0 0 0-1.916-.331c-.848-.057-1.69-.03-2.522.163-2.918.672-5.095 3.086-5.35 6.182a7.317 7.317 0 0 0 .21 2.473c.487 1.838 1.543 3.245 3.22 4.172.913.505 1.903.772 2.943.855.881.07 1.753.017 2.614-.177 1.456-.328 2.742-.99 3.887-1.938a.314.314 0 0 0 .128-.27c-.003-1.474-.003-2.949-.003-4.423v-1.105l-.002-.058c-.003-.043-.006-.086.005-.125.014-.046-.01-.072-.035-.097-.02-.021-.039-.042-.036-.073.006-.05-.028-.058-.068-.058H16.01a.65.65 0 0 1-.072 0c-.062-.006-.082.025-.078.082a.619.619 0 0 1 0 .107v2.981c-.002.059-.002.09.012.105.016.016.05.016.118.015h2.546c.067-.002.1-.002.116.014.014.015.014.045.013.104v.073a42.131 42.131 0 0 1 0 .63v.006c0 .289 0 .291-.262.417-.767.366-1.576.471-2.413.366-.929-.115-1.672-.554-2.217-1.313a3.505 3.505 0 0 1-.621-1.653c-.091-.767.002-1.504.35-2.2.42-.837 1.054-1.437 1.966-1.713.64-.194 1.287-.143 1.928-.003.581.126 1.087.41 1.553.765.171.13.337.264.506.4Zm17.2-2.794c-1.433-1.303-3.14-1.923-4.903-1.937-.814.001-1.423.067-2.069.235-1.873.488-3.34 1.536-4.314 3.208-1 1.716-1.203 3.556-.644 5.449.626 2.116 1.959 3.656 4.021 4.514 1.585.657 3.226.745 4.881.31 1.923-.503 3.398-1.616 4.364-3.353.814-1.465 1.032-3.036.729-4.676-.273-1.474-.954-2.737-2.066-3.75Z" fill="#F77D07"/></symbol>

<symbol id="support" viewBox="0 0 129 62">
  <path d="M61.6782 11.1041C61.6782 11.1041 60.3458 1.55238 51.9896 0.333349C43.6335 -0.885683 40.5503 9.70893 40.5503 9.70893C26.0669 -7.82643 19.7603 17.7225 19.7603 17.7225C19.7603 17.7225 8.4201 10.5644 1.82362 19.7709C-3.16918 26.7884 10.9766 34.915 10.9766 34.915C10.9766 34.915 1.78824 38.0798 11.5597 51.1583C21.3279 64.1481 37.6484 44.6483 37.6484 44.6483C37.6484 44.6483 35.0179 56.8269 46.3422 60.7862C57.7652 64.742 61.2152 45.0696 61.2152 45.0696C61.2152 45.0696 62.452 60.2236 72.8294 59.8612C83.2069 59.4988 85.8023 46.3439 85.8023 46.3439C85.8023 46.3439 85.9295 58.1595 97.273 57.1413C108.616 56.1231 109.544 46.1369 109.544 46.1369C109.544 46.1369 123.371 50.8976 127.631 45.5053C131.89 40.1131 119.992 33.952 119.992 33.952C119.992 33.952 128.279 24.9532 121.867 20.0225C115.456 15.0917 109.194 22.5979 109.194 22.5979C109.194 22.5979 111.142 10.7099 102.872 9.13234C94.5035 7.55827 87.1642 15.3687 87.1642 15.3687C87.1642 15.3687 88.5385 4.03392 78.4544 1.54214C68.1727 -0.942735 61.6782 11.1041 61.6782 11.1041Z" fill="#F77D07"/></symbol>
</defs>
</svg>


