<svg aria-hidden="true" style="position: absolute; width: 0; height: 0; overflow: hidden;"
    version="1.1" xmlns="http://www.w3.org/2000/svg" xmlns:xlink="http://www.w3.org/1999/xlink">
<defs>
   
 
    <symbol id="Vector" viewBox="0 0 43 32">
        <path
            d="M26.139 31.457c-0.335 0.324-0.784 0.503-1.25 0.499s-0.912-0.191-1.242-0.521c-0.33-0.33-0.517-0.776-0.521-1.242s0.175-0.915 0.499-1.25l11.187-11.188h-31.264c-0.471 0-0.924-0.187-1.257-0.521s-0.521-0.786-0.521-1.257c0-0.472 0.187-0.924 0.521-1.257s0.786-0.521 1.257-0.521h31.264l-11.187-11.188c-0.324-0.335-0.503-0.784-0.499-1.25s0.191-0.912 0.521-1.242c0.33-0.33 0.776-0.517 1.242-0.521s0.915 0.175 1.25 0.499l14.222 14.222c0.165 0.166 0.295 0.362 0.384 0.578 0.090 0.215 0.137 0.446 0.137 0.679s-0.046 0.464-0.137 0.679c-0.089 0.216-0.219 0.412-0.384 0.578l-14.222 14.222z"></path>
    </symbol>
    <symbol id="icon-Vector-1" viewBox="0 0 35 32">
        <path fill="none" stroke="#fff" style="stroke: var(--color1, #fff)"
            stroke-linejoin="miter"
            stroke-linecap="butt" stroke-miterlimit="4" stroke-width="6.4324"
            d="M1.778 19.555l10.667 7.111 19.556-21.333"></path>
    </symbol>
</defs>
<svg aria-hidden="true" style="position: absolute; width: 0; height: 0; overflow: hidden;"
    version="1.1" xmlns="http://www.w3.org/2000/svg" xmlns:xlink="http://www.w3.org/1999/xlink">
    <defs>
        <symbol id="main-logo" viewBox="0 0 92 32">
            <title>MISTOHUB</title>
            <path
                d="M38.744 5.446h-0.205v5.606h-3.397v-10.157h4.666l2.067 5.891h0.246l2.067-5.891h4.666v10.157h-3.397v-5.606h-0.225l-2.006 5.606h-2.456l-2.026-5.606z"></path>
            <path d="M51.657 0.896h3.438v10.157h-3.438v-10.157z"></path>
            <path
                d="M68.544 6.99v0.65c-0.532 1.93-2.742 3.656-5.567 3.656-3.254 0-5.649-2.072-5.649-5.322s2.395-5.322 5.649-5.322c2.701 0 5.035 1.706 5.567 3.656v0.65h-3.602c-0.327-0.691-1.044-1.097-1.965-1.097-1.31 0-2.169 0.792-2.169 2.113s0.86 2.113 2.169 2.113c0.921 0 1.637-0.406 1.965-1.097h3.602z"></path>
            <path d="M76.4 11.053h-3.438v-6.988h-3.111v-3.169h9.639v3.169h-3.090v6.988z"></path>
            <path
                d="M80.8 5.974c0-3.25 2.395-5.322 5.649-5.322s5.648 2.072 5.648 5.322c0 3.25-2.395 5.322-5.648 5.322s-5.649-2.072-5.649-5.322zM84.279 5.974c0 1.32 0.859 2.113 2.17 2.113s2.169-0.792 2.169-2.113-0.859-2.113-2.169-2.113c-1.31 0-2.17 0.792-2.17 2.113z"></path>
            <path
                d="M40.894 28.867h-0.266l-1.944 2.498h-3.541v-0.65l3.438-4.205v-0.508l-3.336-4.144v-0.65h3.643l1.903 2.356h0.246l1.821-2.356h3.541v0.65l-3.295 4.083v0.488l3.459 4.286v0.65h-3.643l-2.026-2.498zM38.766 26.227v0.061l0.020-0.041-0.020-0.020zM42.92 26.206v-0.020h-0.021l0.021 0.020z"></path>
            <path
                d="M58.925 31.366h-3.438v-0.955c-0.798 0.772-1.842 1.198-3.049 1.198-2.64 0-4.564-2.072-4.564-5.322s1.924-5.322 4.564-5.322c1.208 0 2.251 0.447 3.049 1.219v-0.975h3.438v10.157zM55.61 26.288c0-1.32-0.839-2.113-2.128-2.113s-2.128 0.792-2.128 2.113 0.839 2.113 2.128 2.113c1.289 0 2.128-0.792 2.128-2.113z"></path>
            <path
                d="M72.473 26.592c0 3.047-2.701 5.017-5.403 5.017-3.479 0-5.894-2.499-5.894-6.805 0-4.55 3.111-6.927 6.549-7.313 0.552-0.061 1.187-0.183 1.187-0.569h3.172c0 2.62-1.617 3.453-4.359 3.778-1.924 0.244-3.090 0.772-3.643 2.316l0.082 0.041c0.737-0.833 1.883-1.503 3.234-1.503 3.111 0 5.076 2.113 5.076 5.038zM67.007 28.441c1.269 0 2.128-0.711 2.128-1.991s-0.86-1.991-2.128-1.991c-1.269 0-2.128 0.711-2.128 1.991s0.86 1.991 2.128 1.991z"></path>
            <path fill="#f77d07" style="fill: var(--color2, #f77d07)"
                d="M28.165 17.86h-28.142v-9.186l14.072-8.284 14.070 8.284v9.186z"></path>
            <path fill="#f77d07" style="fill: var(--color2, #f77d07)"
                d="M28.187 31.303c-3.461 0-5.352-1.272-6.731-2.2-1.011-0.68-1.429-0.961-2.665-0.961s-1.656 0.282-2.665 0.961c-1.379 0.928-3.27 2.2-6.731 2.2s-5.352-1.272-6.731-2.202c-1.011-0.68-1.429-0.961-2.665-0.961v-7.189c3.461 0 5.352 1.272 6.731 2.202 1.011 0.68 1.429 0.961 2.665 0.961s1.656-0.282 2.665-0.961c1.379-0.928 3.27-2.2 6.731-2.2s5.352 1.272 6.731 2.202c1.011 0.68 1.429 0.961 2.665 0.961v7.187z"></path>
            <path fill="#f77d07" style="fill: var(--color2, #f77d07)"
                d="M92.003 24.126v7.211h-12.484v-7.211c0-3.419 2.797-6.195 6.242-6.195s6.242 2.777 6.242 6.195z"></path>
        </symbol>
        <symbol id="burger-menu" viewBox="0 0 37 32">
            <title>Menu</title>
            <path stroke-linejoin="round" stroke-linecap="round" stroke-width="2.1787"
                d="M31.5 18.673h-27.234"></path>
            <path stroke-linejoin="round" stroke-linecap="round" stroke-width="2.1787"
                d="M31.5 13.34h-27.234"></path>
        </symbol>
       
        <symbol id="icon-building1" viewBox="0 0 64 32">
            <path d="M32.023 0C14.365 0 0 14.309 0 32h64c.046-17.691-14.273-32-31.977-32z" />
        </symbol>
        <symbol id="icon-building2" viewBox="0 0 32 32">
            <path
                d="M23.361 8.674 22.635 0 16 5.633 9.365 0l-.691 8.674L0 9.4 5.633 16 0 22.635l8.674.726L9.365 32 16 26.402 22.635 32l.726-8.639L32 22.635 26.402 16 32 9.4l-8.639-.726z" />
        </symbol>
        <symbol id="icon-building3" viewBox="0 0 15 32">
            <path
                d="M4.854 24.529s-4.347-.37-3.86 3.184c.955 6.778 13.855 4.58 13.855-.37 0-2.157-4.49-2.814-4.49-2.814s4.307.185 4.591-2.814c.284-2.999-3.961-2.177-3.961-2.177s3.961-1.315 3.86-3.225c-.081-1.705-3.007-2.075-3.616-2.136.813.021 2.844-1.191 3.616-3.697.731-2.342-2.763-2.691-3.555-2.752.528-.021 2.174-.37 1.524-4.621-.752-5.012-11.173-2.588-11.051.822.122 2.958 3.027 3.636 3.779 3.759-.914-.123-5.018-.431-5.322 2.773-.284 2.958 4.632 3.081 4.632 3.081s-4.49-.021-4.632 2.321c-.142 2.362 3.9 2.732 4.551 2.793-.609-.041-4.429-.123-4.591 2.239-.223 3.122 4.672 3.636 4.672 3.636z" />
        </symbol>
        <symbol id="icon-building4" viewBox="0 0 47 32">
            <path
                d="M44.556 7.393c-9.092-5.591-12.494 8.718-12.494 8.718S33.62-1.452 22.08.096c-11.572 1.548-4.578 14.751-4.578 14.751S7.456 2.528 1.384 9.446c-6.072 6.918 8.933 22.522 23.621 22.553 16.913.031 25.687-20.816 19.551-24.607z" />
        </symbol>
        <symbol id="icon-building1" viewBox="0 0 64 32">
            <path d="M32.023 0C14.365 0 0 14.309 0 32h64c.046-17.691-14.273-32-31.977-32z" />
        </symbol>
        <symbol id="icon-building2" viewBox="0 0 32 32">
            <path
                d="M23.361 8.674 22.635 0 16 5.633 9.365 0l-.691 8.674L0 9.4 5.633 16 0 22.635l8.674.726L9.365 32 16 26.402 22.635 32l.726-8.639L32 22.635 26.402 16 32 9.4l-8.639-.726z" />
        </symbol>
        <symbol id="icon-building3" viewBox="0 0 15 32">
            <path
                d="M4.854 24.529s-4.347-.37-3.86 3.184c.955 6.778 13.855 4.58 13.855-.37 0-2.157-4.49-2.814-4.49-2.814s4.307.185 4.591-2.814c.284-2.999-3.961-2.177-3.961-2.177s3.961-1.315 3.86-3.225c-.081-1.705-3.007-2.075-3.616-2.136.813.021 2.844-1.191 3.616-3.697.731-2.342-2.763-2.691-3.555-2.752.528-.021 2.174-.37 1.524-4.621-.752-5.012-11.173-2.588-11.051.822.122 2.958 3.027 3.636 3.779 3.759-.914-.123-5.018-.431-5.322 2.773-.284 2.958 4.632 3.081 4.632 3.081s-4.49-.021-4.632 2.321c-.142 2.362 3.9 2.732 4.551 2.793-.609-.041-4.429-.123-4.591 2.239-.223 3.122 4.672 3.636 4.672 3.636z" />
        </symbol>
        <symbol id="icon-building4" viewBox="0 0 47 32">
            <path
                d="M44.556 7.393c-9.092-5.591-12.494 8.718-12.494 8.718S33.62-1.452 22.08.096c-11.572 1.548-4.578 14.751-4.578 14.751S7.456 2.528 1.384 9.446c-6.072 6.918 8.933 22.522 23.621 22.553 16.913.031 25.687-20.816 19.551-24.607z" />
        </symbol>
        <symbol id="house" viewBox="0 0 50 50">
            <path d="M36.087 22.883H.029v-11.77L18.06.5l18.028 10.614v11.769Z" />
        </symbol>
        <symbol id="wave" viewBox="0 0 64 64">
            <path
                d="M36.115 14.107c-4.434 0-6.857-1.63-8.624-2.819-1.296-.872-1.83-1.23-3.414-1.23s-2.122.361-3.414 1.23c-1.768 1.19-4.19 2.819-8.625 2.819-4.434 0-6.857-1.63-8.624-2.821-1.295-.872-1.83-1.231-3.414-1.231V.844c4.434 0 6.857 1.63 8.624 2.821 1.296.872 1.83 1.231 3.414 1.231s2.122-.362 3.414-1.23c1.768-1.19 4.19-2.82 8.625-2.82 4.434 0 6.857 1.63 8.624 2.822 1.295.872 1.83 1.23 3.414 1.23v9.212-.003Z" />
        </symbol>
    </defs>
</svg>
<svg aria-hidden="true" style="position: absolute; width: 0; height: 0; overflow: hidden;"
    version="1.1" xmlns="http://www.w3.org/2000/svg" xmlns:xlink="http://www.w3.org/1999/xlink">
    <defs>
        <symbol id="main-logo" viewBox="0 0 92 32">
            <title>MISTOHUB</title>
            <path
                d="M38.744 5.446h-0.205v5.606h-3.397v-10.157h4.666l2.067 5.891h0.246l2.067-5.891h4.666v10.157h-3.397v-5.606h-0.225l-2.006 5.606h-2.456l-2.026-5.606z"></path>
            <path d="M51.657 0.896h3.438v10.157h-3.438v-10.157z"></path>
            <path
                d="M68.544 6.99v0.65c-0.532 1.93-2.742 3.656-5.567 3.656-3.254 0-5.649-2.072-5.649-5.322s2.395-5.322 5.649-5.322c2.701 0 5.035 1.706 5.567 3.656v0.65h-3.602c-0.327-0.691-1.044-1.097-1.965-1.097-1.31 0-2.169 0.792-2.169 2.113s0.86 2.113 2.169 2.113c0.921 0 1.637-0.406 1.965-1.097h3.602z"></path>
            <path d="M76.4 11.053h-3.438v-6.988h-3.111v-3.169h9.639v3.169h-3.090v6.988z"></path>
            <path
                d="M80.8 5.974c0-3.25 2.395-5.322 5.649-5.322s5.648 2.072 5.648 5.322c0 3.25-2.395 5.322-5.648 5.322s-5.649-2.072-5.649-5.322zM84.279 5.974c0 1.32 0.859 2.113 2.17 2.113s2.169-0.792 2.169-2.113-0.859-2.113-2.169-2.113c-1.31 0-2.17 0.792-2.17 2.113z"></path>
            <path
                d="M40.894 28.867h-0.266l-1.944 2.498h-3.541v-0.65l3.438-4.205v-0.508l-3.336-4.144v-0.65h3.643l1.903 2.356h0.246l1.821-2.356h3.541v0.65l-3.295 4.083v0.488l3.459 4.286v0.65h-3.643l-2.026-2.498zM38.766 26.227v0.061l0.020-0.041-0.020-0.020zM42.92 26.206v-0.020h-0.021l0.021 0.020z"></path>
            <path
                d="M58.925 31.366h-3.438v-0.955c-0.798 0.772-1.842 1.198-3.049 1.198-2.64 0-4.564-2.072-4.564-5.322s1.924-5.322 4.564-5.322c1.208 0 2.251 0.447 3.049 1.219v-0.975h3.438v10.157zM55.61 26.288c0-1.32-0.839-2.113-2.128-2.113s-2.128 0.792-2.128 2.113 0.839 2.113 2.128 2.113c1.289 0 2.128-0.792 2.128-2.113z"></path>
            <path
                d="M72.473 26.592c0 3.047-2.701 5.017-5.403 5.017-3.479 0-5.894-2.499-5.894-6.805 0-4.55 3.111-6.927 6.549-7.313 0.552-0.061 1.187-0.183 1.187-0.569h3.172c0 2.62-1.617 3.453-4.359 3.778-1.924 0.244-3.090 0.772-3.643 2.316l0.082 0.041c0.737-0.833 1.883-1.503 3.234-1.503 3.111 0 5.076 2.113 5.076 5.038zM67.007 28.441c1.269 0 2.128-0.711 2.128-1.991s-0.86-1.991-2.128-1.991c-1.269 0-2.128 0.711-2.128 1.991s0.86 1.991 2.128 1.991z"></path>
            <path fill="#f77d07" style="fill: var(--color2, #f77d07)"
                d="M28.165 17.86h-28.142v-9.186l14.072-8.284 14.070 8.284v9.186z"></path>
            <path fill="#f77d07" style="fill: var(--color2, #f77d07)"
                d="M28.187 31.303c-3.461 0-5.352-1.272-6.731-2.2-1.011-0.68-1.429-0.961-2.665-0.961s-1.656 0.282-2.665 0.961c-1.379 0.928-3.27 2.2-6.731 2.2s-5.352-1.272-6.731-2.202c-1.011-0.68-1.429-0.961-2.665-0.961v-7.189c3.461 0 5.352 1.272 6.731 2.202 1.011 0.68 1.429 0.961 2.665 0.961s1.656-0.282 2.665-0.961c1.379-0.928 3.27-2.2 6.731-2.2s5.352 1.272 6.731 2.202c1.011 0.68 1.429 0.961 2.665 0.961v7.187z"></path>
            <path fill="#f77d07" style="fill: var(--color2, #f77d07)"
                d="M92.003 24.126v7.211h-12.484v-7.211c0-3.419 2.797-6.195 6.242-6.195s6.242 2.777 6.242 6.195z"></path>
        </symbol>


<symbol id="cloud" viewBox="0 0 66 32">
        <path
            d="M31.206 5.564c0 0-0.86-4.984-5.189-5.476s-5.727 5.118-5.727 5.118c-7.784-8.937-10.572 4.569-10.572 4.569s-5.975-3.552-9.209 1.391c-2.447 3.768 4.992 7.778 4.992 7.778s-4.679 1.822 0.595 8.506c5.271 6.638 13.33-3.875 13.33-3.875s-1.135 6.432 4.774 8.307c5.96 1.872 7.382-8.503 7.382-8.503s0.912 7.923 6.255 7.55c5.343-0.374 6.443-7.316 6.443-7.316s0.279 6.193 6.108 5.458c5.829-0.735 6.127-5.987 6.127-5.987s7.214 2.251 9.312-0.651c2.098-2.902-4.147-5.922-4.147-5.922s4.108-4.865 0.714-7.336c-3.394-2.472-6.486 1.575-6.486 1.575s0.789-6.267-3.503-6.948c-4.343-0.677-7.985 3.548-7.985 3.548s0.503-5.967-4.74-7.095c-5.345-1.121-8.475 5.31-8.475 5.31z"></path>
    </symbol>

<symbol
        id="arrow-right2" viewBox="0 0 32 32">
        <title>Arrow Right</title>
        <path
            d="M19.414 27.414l10-10c0.781-0.781 0.781-2.047 0-2.828l-10-10c-0.781-0.781-2.047-0.781-2.828 0s-0.781 2.047 0 2.828l6.586 6.586h-19.172c-1.105 0-2 0.895-2 2s0.895 2 2 2h19.172l-6.586 6.586c-0.39 0.39-0.586 0.902-0.586 1.414s0.195 1.024 0.586 1.414c0.781 0.781 2.047 0.781 2.828 0z"></path>
    </symbol>

<symbol
        id="arrow-left2" viewBox="0 0 32 32">
        <title>Arrow Left</title>
        <path
            d="M12.586 27.414l-10-10c-0.781-0.781-0.781-2.047 0-2.828l10-10c0.781-0.781 2.047-0.781 2.828 0s0.781 2.047 0 2.828l-6.586 6.586h19.172c1.105 0 2 0.895 2 2s-0.895 2-2 2h-19.172l6.586 6.586c0.39 0.39 0.586 0.902 0.586 1.414s-0.195 1.024-0.586 1.414c-0.781 0.781-2.047 0.781-2.828 0z"></path>
    </symbol>

<symbol
        id="close" viewBox="0 0 20 20">
        <title>Close</title>
        <path
            d="M10 8.586l-7.071-7.071-1.414 1.414 7.071 7.071-7.071 7.071 1.414 1.414 7.071-7.071 7.071 7.071 1.414-1.414-7.071-7.071 7.071-7.071-1.414-1.414-7.071 7.071z"></path>
    </symbol>

<symbol
        id="heart" viewBox="0 0 32 32">
        <title>Heart</title>
        <path
            d="M23.6 2c-3.363 0-6.258 2.736-7.599 5.594-1.342-2.858-4.237-5.594-7.601-5.594-4.637 0-8.4 3.764-8.4 8.401 0 9.433 9.516 11.906 16.001 21.232 6.13-9.268 15.999-12.1 15.999-21.232 0-4.637-3.763-8.401-8.4-8.401z"></path>
    </symbol>

<symbol
        id="logoGoIT" viewBox="0 0 107 32">
        <title>Logo Black Go IT</title>
        <path fill="#0b0b0b" style="fill: var(--color1, #0b0b0b)"
            d="M106.667 0v32h-46.933v-32h46.933zM74.555 8.811v13.927c0 0.015 0 0.030 0.001 0.044 0.001 0.029 0.001 0.059-0.001 0.087-0.007 0.080 0.015 0.128 0.107 0.115 0.022-0.002 0.044-0.002 0.066-0.001l0.012 0c0.007 0 0.014 0 0.021 0 0.388 0 0.777 0 1.166 0h0.004c0.777 0 1.555 0.001 2.332-0 0.025 0 0.046 0 0.066 0 0.075 0.001 0.111 0.001 0.129-0.017s0.016-0.051 0.014-0.116c-0-0.022-0.001-0.048-0.001-0.078v-13.943c0-0.011-0-0.022-0.001-0.033-0.001-0.022-0.001-0.044 0.001-0.066 0.008-0.082-0.020-0.125-0.108-0.115-0.017 0.002-0.036 0.001-0.054 0.001-0.009-0-0.019-0.001-0.028-0.001-0.392 0-0.785-0-1.178-0-0.786-0-1.572-0.001-2.357 0-0.023 0-0.044-0-0.062-0.001-0.065-0.001-0.097-0.001-0.113 0.015s-0.016 0.049-0.015 0.116c0 0.019 0.001 0.040 0.001 0.064zM94.052 8.617h-5.839c-1.946 0-3.892 0-5.836-0.002-0.015 0-0.030 0-0.044 0-0.029 0-0.058 0.001-0.088-0-0.066-0.003-0.089 0.028-0.084 0.089 0.001 0.019 0.001 0.036 0 0.054-0 0.009-0 0.018-0 0.028v3.335l-0 0.035c-0 0.072-0.001 0.107 0.017 0.124s0.051 0.016 0.117 0.016l0.045-0h3.668c0.12 0 0.179 0 0.208 0.030s0.029 0.086 0.029 0.2v10.282c0 0.020-0 0.037-0.001 0.053-0.001 0.059-0.001 0.090 0.014 0.106 0.017 0.017 0.052 0.017 0.126 0.017l0.036-0h3.52c0.11 0 0.165 0 0.192-0.027s0.027-0.080 0.027-0.186v-10.282c0-0.022-0-0.042-0.001-0.059-0.001-0.064-0.001-0.097 0.015-0.114 0.018-0.018 0.055-0.018 0.133-0.018l0.049 0h3.734c0.161 0 0.161 0 0.163-0.159v-3.318c0-0.023 0-0.043 0-0.061 0.001-0.072 0.001-0.108-0.016-0.126s-0.052-0.017-0.122-0.016c-0.018 0-0.039 0.001-0.063 0.001z"></path>
        <path
            d="M30.661 14.21c0.666-1.227 1.729-1.815 2.762-1.838 2.094-0.005 3.464 1.173 3.837 2.806 0.226 0.984 0.125 1.94-0.358 2.834-0.57 1.050-1.458 1.661-2.654 1.797-1.156 0.133-2.165-0.194-2.99-1.025-0.529-0.532-0.847-1.181-0.983-1.914-0.172-0.928-0.066-1.827 0.386-2.66z"></path>
        <path
            d="M46.933 0l12.8 16-12.8 16h-46.933v-32h46.933zM20.752 13.662c0.071 0.058 0.143 0.116 0.215 0.174 0.048-0.029 0.078-0.069 0.106-0.107 0.006-0.009 0.013-0.018 0.020-0.026 0.254-0.302 0.506-0.605 0.759-0.909l0.001-0.001c0.507-0.606 1.012-1.212 1.518-1.82 0.101-0.122 0.097-0.177-0.018-0.276-0.091-0.079-0.183-0.156-0.277-0.233-0.803-0.657-1.685-1.17-2.684-1.467-0.667-0.197-1.349-0.306-2.043-0.353-0.905-0.061-1.802-0.031-2.691 0.174-3.112 0.716-5.434 3.292-5.707 6.594-0.073 0.89-0.003 1.772 0.225 2.638 0.519 1.96 1.645 3.461 3.434 4.45 0.975 0.539 2.030 0.823 3.14 0.912 0.94 0.076 1.87 0.018 2.788-0.189 1.553-0.35 2.925-1.056 4.146-2.067 0.098-0.080 0.137-0.161 0.137-0.289-0.004-1.572-0.004-3.145-0.003-4.717l0-1.179c0-0.020-0.001-0.041-0.003-0.062-0.003-0.046-0.006-0.092 0.006-0.134 0.015-0.049-0.012-0.077-0.037-0.104-0.021-0.022-0.042-0.044-0.039-0.077 0.007-0.054-0.030-0.062-0.073-0.062h-6.556c-0.013 0-0.025 0-0.038 0.001-0.026 0.001-0.052 0.002-0.077-0.001-0.066-0.007-0.087 0.026-0.083 0.087 0.002 0.025 0.002 0.051 0.001 0.077-0 0.013-0.001 0.025-0.001 0.038 0 0.345-0 0.69-0 1.035-0 0.69-0.001 1.38 0 2.070 0 0.028-0.001 0.053-0.001 0.074-0.001 0.063-0.002 0.096 0.014 0.112s0.052 0.017 0.125 0.016c0.018-0 0.039-0 0.062-0h2.593c0.023 0 0.043-0 0.061-0 0.072-0.001 0.107-0.001 0.124 0.016 0.016 0.016 0.015 0.048 0.014 0.11-0 0.022-0.001 0.048-0.001 0.078 0.001 0.15 0.001 0.299 0 0.449-0 0.075-0 0.15-0 0.225v0.005c0 0.308 0 0.311-0.279 0.445-0.818 0.391-1.681 0.503-2.573 0.391-0.991-0.123-1.784-0.591-2.365-1.401-0.378-0.527-0.585-1.122-0.662-1.763-0.097-0.818 0.002-1.605 0.373-2.348 0.448-0.892 1.125-1.533 2.098-1.827 0.682-0.207 1.373-0.153 2.056-0.003 0.619 0.135 1.159 0.437 1.657 0.816 0.182 0.138 0.359 0.281 0.539 0.427zM39.098 10.682c-1.528-1.39-3.348-2.052-5.229-2.066-0.869 0.002-1.518 0.072-2.207 0.251-1.998 0.521-3.563 1.638-4.602 3.422-1.067 1.83-1.283 3.793-0.687 5.812 0.667 2.257 2.089 3.9 4.29 4.815 1.69 0.701 3.44 0.795 5.206 0.332 2.051-0.537 3.624-1.725 4.654-3.578 0.869-1.562 1.102-3.238 0.778-4.987-0.291-1.572-1.017-2.919-2.203-4z"></path>
    </symbol>

<symbol
        id="icon-building1" viewBox="0 0 64 32">
        <path d="M32.023 0C14.365 0 0 14.309 0 32h64c.046-17.691-14.273-32-31.977-32z" />
    </symbol>

<symbol
        id="icon-building2" viewBox="0 0 32 32">
        <path
            d="M23.361 8.674 22.635 0 16 5.633 9.365 0l-.691 8.674L0 9.4 5.633 16 0 22.635l8.674.726L9.365 32 16 26.402 22.635 32l.726-8.639L32 22.635 26.402 16 32 9.4l-8.639-.726z" />
    </symbol>

<symbol
        id="icon-building3" viewBox="0 0 15 32">
        <path
            d="M4.854 24.529s-4.347-.37-3.86 3.184c.955 6.778 13.855 4.58 13.855-.37 0-2.157-4.49-2.814-4.49-2.814s4.307.185 4.591-2.814c.284-2.999-3.961-2.177-3.961-2.177s3.961-1.315 3.86-3.225c-.081-1.705-3.007-2.075-3.616-2.136.813.021 2.844-1.191 3.616-3.697.731-2.342-2.763-2.691-3.555-2.752.528-.021 2.174-.37 1.524-4.621-.752-5.012-11.173-2.588-11.051.822.122 2.958 3.027 3.636 3.779 3.759-.914-.123-5.018-.431-5.322 2.773-.284 2.958 4.632 3.081 4.632 3.081s-4.49-.021-4.632 2.321c-.142 2.362 3.9 2.732 4.551 2.793-.609-.041-4.429-.123-4.591 2.239-.223 3.122 4.672 3.636 4.672 3.636z" />
    </symbol>

<symbol
        id="icon-building4" viewBox="0 0 47 32">
        <path
            d="M44.556 7.393c-9.092-5.591-12.494 8.718-12.494 8.718S33.62-1.452 22.08.096c-11.572 1.548-4.578 14.751-4.578 14.751S7.456 2.528 1.384 9.446c-6.072 6.918 8.933 22.522 23.621 22.553 16.913.031 25.687-20.816 19.551-24.607z" />
    </symbol>

<symbol
        id="icon-building1" viewBox="0 0 64 32">
        <path d="M32.023 0C14.365 0 0 14.309 0 32h64c.046-17.691-14.273-32-31.977-32z" />
    </symbol>

<symbol
        id="icon-building2" viewBox="0 0 32 32">
        <path
            d="M23.361 8.674 22.635 0 16 5.633 9.365 0l-.691 8.674L0 9.4 5.633 16 0 22.635l8.674.726L9.365 32 16 26.402 22.635 32l.726-8.639L32 22.635 26.402 16 32 9.4l-8.639-.726z" />
    </symbol>

<symbol
        id="icon-building3" viewBox="0 0 15 32">
        <path
            d="M4.854 24.529s-4.347-.37-3.86 3.184c.955 6.778 13.855 4.58 13.855-.37 0-2.157-4.49-2.814-4.49-2.814s4.307.185 4.591-2.814c.284-2.999-3.961-2.177-3.961-2.177s3.961-1.315 3.86-3.225c-.081-1.705-3.007-2.075-3.616-2.136.813.021 2.844-1.191 3.616-3.697.731-2.342-2.763-2.691-3.555-2.752.528-.021 2.174-.37 1.524-4.621-.752-5.012-11.173-2.588-11.051.822.122 2.958 3.027 3.636 3.779 3.759-.914-.123-5.018-.431-5.322 2.773-.284 2.958 4.632 3.081 4.632 3.081s-4.49-.021-4.632 2.321c-.142 2.362 3.9 2.732 4.551 2.793-.609-.041-4.429-.123-4.591 2.239-.223 3.122 4.672 3.636 4.672 3.636z" />
    </symbol>

<symbol
        id="icon-building4" viewBox="0 0 47 32">
        <path
            d="M44.556 7.393c-9.092-5.591-12.494 8.718-12.494 8.718S33.62-1.452 22.08.096c-11.572 1.548-4.578 14.751-4.578 14.751S7.456 2.528 1.384 9.446c-6.072 6.918 8.933 22.522 23.621 22.553 16.913.031 25.687-20.816 19.551-24.607z" />
    </symbol>

<symbol
        id="house" viewBox="0 0 50 50">
        <path d="M36.087 22.883H.029v-11.77L18.06.5l18.028 10.614v11.769Z" />
    </symbol>

<symbol
        id="wave" viewBox="0 0 64 64">
        <path
            d="M36.115 14.107c-4.434 0-6.857-1.63-8.624-2.819-1.296-.872-1.83-1.23-3.414-1.23s-2.122.361-3.414 1.23c-1.768 1.19-4.19 2.819-8.625 2.819-4.434 0-6.857-1.63-8.624-2.821-1.295-.872-1.83-1.231-3.414-1.231V.844c4.434 0 6.857 1.63 8.624 2.821 1.296.872 1.83 1.231 3.414 1.231s2.122-.362 3.414-1.23c1.768-1.19 4.19-2.82 8.625-2.82 4.434 0 6.857 1.63 8.624 2.822 1.295.872 1.83 1.23 3.414 1.23v9.212-.003Z" />
    </symbol>

<symbol
        xmlns="http://www.w3.org/2000/svg" viewBox="0 0 12 12" id="instagramIcon">
        <svg viewBox="0 0 14 14" fill="none" xmlns="http://www.w3.org/2000/svg">
            <path
                d="M12.5638 4.70564C12.557 4.23561 12.4699 3.7693 12.3032 3.3297C12.0115 2.57901 11.4176 1.98542 10.6657 1.69484C10.2309 1.53154 9.77129 1.44399 9.30608 1.43405C8.70777 1.40735 8.51807 1.3999 6.99928 1.3999C5.48049 1.3999 5.28582 1.3999 4.69186 1.43405C4.22727 1.44399 3.76765 1.53154 3.33291 1.69484C2.58098 1.98542 1.9864 2.57901 1.69533 3.3297C1.53175 3.76371 1.44344 4.22257 1.43473 4.68639C1.40799 5.28433 1.3999 5.4737 1.3999 6.98997C1.3999 8.50624 1.3999 8.69996 1.43473 9.29355C1.44406 9.75799 1.53175 10.2162 1.69533 10.6515C1.98702 11.4015 2.58098 11.9951 3.33353 12.2857C3.76641 12.4546 4.22602 12.5502 4.69248 12.5651C5.29142 12.5918 5.48111 12.5999 6.9999 12.5999C8.51869 12.5999 8.71336 12.5999 9.30732 12.5651C9.77192 12.5558 10.2315 12.4683 10.6669 12.305C11.4188 12.0138 12.0128 11.4202 12.3045 10.6701C12.4681 10.2355 12.5557 9.77724 12.5651 9.31218C12.5918 8.71486 12.5999 8.52548 12.5999 7.0086C12.5987 5.49233 12.5987 5.29985 12.5638 4.70564ZM6.99555 9.85734C5.4071 9.85734 4.12029 8.57267 4.12029 6.98686C4.12029 5.40106 5.4071 4.11639 6.99555 4.11639C8.58276 4.11639 9.87081 5.40106 9.87081 6.98686C9.87081 8.57267 8.58276 9.85734 6.99555 9.85734ZM9.98524 4.67956C9.61394 4.67956 9.31479 4.38028 9.31479 4.01021C9.31479 3.64015 9.61394 3.34087 9.98524 3.34087C10.3553 3.34087 10.6551 3.64015 10.6551 4.01021C10.6551 4.38028 10.3553 4.67956 9.98524 4.67956Z"
                fill="white" />
            <path
                d="M6.99638 8.73934C7.96384 8.73934 8.74813 7.95505 8.74813 6.98759C8.74813 6.02013 7.96384 5.23584 6.99638 5.23584C6.02891 5.23584 5.24463 6.02013 5.24463 6.98759C5.24463 7.95505 6.02891 8.73934 6.99638 8.73934Z"
                fill="white" />
        </svg>
    </symbol>
<symbol>
        <svg id='facebookIcon' viewBox="0 0 16 16" fill="none" xmlns="http://www.w3.org/2000/svg">
            <path
                d="M9.99459 1.53043C10.1459 1.53043 10.2973 1.53043 10.6 1.53043V3.8007C10.4486 3.8007 10.1459 3.8007 9.84324 3.8007C9.54054 3.8007 9.23784 3.8007 9.08649 3.95205C8.93514 4.1034 8.93513 4.25475 8.93513 4.60791C8.93513 4.91061 8.93513 5.11241 8.93513 5.41511H10.6V7.33223H8.93513V15.6565H6.36217V7.28178H5V5.36466H6.36217V4.70881C6.36217 3.5989 6.51352 2.79169 6.81622 2.43854C7.27027 1.78268 8.17838 1.47998 9.54054 1.47998C9.67368 1.47998 9.84324 1.53043 9.99459 1.53043Z"
                fill="white" />
        </svg>
    </symbol>
<symbol>
        <svg id="zigzagIcon" viewBox="0 0 25 29" fill="none" xmlns="http://www.w3.org/2000/svg">
            <path
                d="M14.8966 26.3788C14.7068 26.7797 14.7362 27.2327 14.9712 27.6354C14.9839 27.6549 14.9966 27.6744 15.0092 27.6939C15.2375 28.0455 15.6334 28.2882 16.0523 28.3216L23.4792 28.9129C24.2043 28.9695 24.7987 28.4169 24.8355 27.6989C24.8595 26.9613 24.2912 26.3308 23.5847 26.2621L18.1396 25.8277L20.5083 20.7909C20.6735 20.4338 20.6694 20.0199 20.497 19.6321C20.3187 19.2759 19.9973 18.9848 19.5903 18.8881L13.4468 17.2968L16.3779 12.9222C16.6303 12.5362 16.6568 12.0469 16.459 11.6201C16.2612 11.1932 15.8586 10.8994 15.4143 10.8269L8.64006 9.8951L11.1114 4.48631C11.2766 4.12913 11.2785 3.68361 11.0875 3.30789C10.8964 2.93217 10.5378 2.66531 10.1435 2.58817L1.70005 0.880042C0.992694 0.728552 0.316325 1.19557 0.211 1.93035C0.0929919 2.6456 0.580878 3.35609 1.30685 3.49548L8.04787 4.86533L5.52151 10.3932C5.35036 10.782 5.37973 11.2349 5.57077 11.6107C5.79312 11.9938 6.15178 12.2607 6.58332 12.3136L13.0259 13.1832L10.249 17.3467C10.0025 17.7011 9.96333 18.1707 10.1171 18.5707C10.2836 18.9901 10.6363 19.2886 11.056 19.4048L17.4499 21.0556L14.8966 26.3788Z"
                fill="#F77D07" />
        </svg>
    </symbol>
<symbol>
        <svg id="octagonIcon" viewBox="0 0 154 154" fill="none" xmlns="http://www.w3.org/2000/svg">
            <path
                d="M152.29 101.408L135.392 81.5061C133.139 78.8775 133.139 75.1225 135.392 72.4939L152.29 52.5917C156.045 48.2733 153.229 41.5141 147.596 41.1386L121.498 38.8855C118.119 38.51 115.302 35.8815 115.115 32.5019L112.861 6.40372C112.298 0.77104 105.727 -2.0453 101.408 1.70982L81.5062 18.6079C78.8776 20.8609 75.1224 20.8609 72.4938 18.6079L52.5917 1.70982C48.2733 -2.0453 41.5141 0.77104 41.1386 6.40372L38.8854 32.5019C38.5099 35.8815 35.8815 38.6977 32.5019 38.8855L6.40373 41.1386C0.77104 41.7019 -2.0453 48.2733 1.70982 52.5917L18.6079 72.4939C20.861 75.1225 20.861 78.8775 18.6079 81.5061L1.70982 101.408C-2.0453 105.727 0.77104 112.486 6.40373 112.861L32.5019 115.115C35.8815 115.49 38.6976 118.119 38.8854 121.498L41.1386 147.596C41.7019 153.229 48.2733 156.045 52.5917 152.29L72.4938 135.392C75.1224 133.139 78.8776 133.139 81.5062 135.392L101.408 152.29C105.727 156.045 112.486 153.229 112.861 147.596L115.115 121.498C115.49 118.119 118.119 115.302 121.498 115.115L147.596 112.861C153.229 112.486 156.045 105.914 152.29 101.408Z"
                fill="#F77D07" />
        </svg>
    </symbol>
<symbol>
        <svg id="ovalIcon" viewBox="0 0 41 28" fill="none" xmlns="http://www.w3.org/2000/svg">
            <path
                d="M40.0835 7.84087C38.3795 2.59647 32.6205 -0.248881 27.245 1.49773L7.74833 7.83258C2.37282 9.57918 -0.613838 15.2662 1.09017 20.5106C2.79418 25.755 8.55316 28.6003 13.9287 26.8537L33.4253 20.5189C38.8008 18.7722 41.7875 13.0853 40.0835 7.84087Z"
                fill="#F77D07" />
        </svg>
    </symbol>
<symbol>
        <svg id="blobIcon" viewBox="0 0 35 35" fill="none" xmlns="http://www.w3.org/2000/svg">
            <path
                d="M2.99194 8.10608C2.14602 10.6317 5.44024 14.0373 7.70754 16.3123C4.40651 16.4286 0.877571 17.4716 0.33149 19.0228C-0.324916 20.8022 3.51616 23.3803 7.09288 23.8575C5.08384 27.9289 5.47487 33.3599 7.67918 34.3318C11.0448 35.8022 15.0262 26.9593 15.0262 26.9593C15.0262 26.9593 24.7515 36.6079 26.9011 34.2021C29.0506 31.7964 23.1769 22.4946 23.1769 22.4946C23.1769 22.4946 37.097 16.771 34.6468 14.0481C32.1965 11.3252 22.015 13.5652 22.015 13.5652C22.015 13.5652 22.3706 0.113762 20.4451 0.302191C18.5196 0.490621 14.1112 10.4696 14.1112 10.4696C14.1112 10.4696 4.20565 4.4318 2.99194 8.10608Z"
                fill="#F77D07" />
        </svg>
    </symbol>
<symbol>
        <svg id='sliceIcon' viewBox="0 0 201 186" fill="none" xmlns="http://www.w3.org/2000/svg">
            <path
                d="M41.6248 27.3132C-6.1426 67.3948 -12.8092 138.364 26.9922 185.797L200.118 40.5272C160.44 -7.01009 89.5159 -12.8722 41.6248 27.3132Z"
                fill="#F77D07" />
        </svg>
    </symbol>
<symbol>
        <svg id='treeIcon' viewBox="0 0 211 158" fill="none" xmlns="http://www.w3.org/2000/svg">
            <path
                d="M63.0224 36.66C63.0224 36.66 79.5303 11.1478 55.8866 2.4218C10.705 -14.0708 -17.8334 72.502 12.883 88.8343C26.2657 95.95 45.0229 70.5122 45.0229 70.5122C45.0229 70.5122 29.7949 96.3844 47.4734 108.027C65.1518 119.67 73.9353 90.8523 73.9353 90.8523C73.9353 90.8523 69.1406 119.548 81.326 125.226C92.1703 130.351 104.029 113.583 106.404 110.039C103.62 114.968 104.497 131.458 117.523 144.472C129.662 156.695 143.252 136.361 146.225 131.693C144.626 135.009 141.412 146.279 169.921 156.31C203.477 168.223 222.511 96.1448 200.955 85.6447C182.203 76.6355 168.499 92.2621 165.277 96.4774C169.03 91.2628 184.359 67.0462 165.472 54.6006C148.049 43.0931 131.21 72.9162 131.21 72.9162C131.21 72.9162 146.016 45.3774 131.952 36.7774C117.759 28.1096 102.248 51.7481 99.74 55.5421C101.987 51.9301 114.984 28.717 100.858 19.9243C82.2157 8.24942 63.0224 36.66 63.0224 36.66Z"
                fill="#F77D07" />
        </svg>
    </symbol>
</defs>
</svg>