<svg aria-hidden="true" style="position: absolute; width: 0; height: 0; overflow: hidden;" version="1.1" xmlns="http://www.w3.org/2000/svg" xmlns:xlink="http://www.w3.org/1999/xlink">
<defs>
<symbol id="Vector" viewBox="0 0 43 32">
<path d="M26.139 31.457c-0.335 0.324-0.784 0.503-1.25 0.499s-0.912-0.191-1.242-0.521c-0.33-0.33-0.517-0.776-0.521-1.242s0.175-0.915 0.499-1.25l11.187-11.188h-31.264c-0.471 0-0.924-0.187-1.257-0.521s-0.521-0.786-0.521-1.257c0-0.472 0.187-0.924 0.521-1.257s0.786-0.521 1.257-0.521h31.264l-11.187-11.188c-0.324-0.335-0.503-0.784-0.499-1.25s0.191-0.912 0.521-1.242c0.33-0.33 0.776-0.517 1.242-0.521s0.915 0.175 1.25 0.499l14.222 14.222c0.165 0.166 0.295 0.362 0.384 0.578 0.090 0.215 0.137 0.446 0.137 0.679s-0.046 0.464-0.137 0.679c-0.089 0.216-0.219 0.412-0.384 0.578l-14.222 14.222z"></path>
</symbol>
<symbol id="icon-building1" viewBox="0 0 64 32">
<path d="M32.023 0C14.365 0 0 14.309 0 32h64c.046-17.691-14.273-32-31.977-32z"/>
</symbol>
<symbol id="icon-building2" viewBox="0 0 32 32">
<path d="M23.361 8.674 22.635 0 16 5.633 9.365 0l-.691 8.674L0 9.4 5.633 16 0 22.635l8.674.726L9.365 32 16 26.402 22.635 32l.726-8.639L32 22.635 26.402 16 32 9.4l-8.639-.726z"/>
</symbol>
<symbol id="icon-building3" viewBox="0 0 15 32">
<path d="M4.854 24.529s-4.347-.37-3.86 3.184c.955 6.778 13.855 4.58 13.855-.37 0-2.157-4.49-2.814-4.49-2.814s4.307.185 4.591-2.814c.284-2.999-3.961-2.177-3.961-2.177s3.961-1.315 3.86-3.225c-.081-1.705-3.007-2.075-3.616-2.136.813.021 2.844-1.191 3.616-3.697.731-2.342-2.763-2.691-3.555-2.752.528-.021 2.174-.37 1.524-4.621-.752-5.012-11.173-2.588-11.051.822.122 2.958 3.027 3.636 3.779 3.759-.914-.123-5.018-.431-5.322 2.773-.284 2.958 4.632 3.081 4.632 3.081s-4.49-.021-4.632 2.321c-.142 2.362 3.9 2.732 4.551 2.793-.609-.041-4.429-.123-4.591 2.239-.223 3.122 4.672 3.636 4.672 3.636z"/>
</symbol>
<symbol id="icon-building4" viewBox="0 0 47 32">
<path d="M44.556 7.393c-9.092-5.591-12.494 8.718-12.494 8.718S33.62-1.452 22.08.096c-11.572 1.548-4.578 14.751-4.578 14.751S7.456 2.528 1.384 9.446c-6.072 6.918 8.933 22.522 23.621 22.553 16.913.031 25.687-20.816 19.551-24.607z"/>
</symbol>
</defs>
</svg>


