<svg aria-hidden="true" style="position: absolute; width: 0; height: 0; overflow: hidden;" version="1.1" xmlns="http://www.w3.org/2000/svg" xmlns:xlink="http://www.w3.org/1999/xlink">
<defs>

<symbol id="Vector" viewBox="0 0 43 32">
<path d="M26.139 31.457c-0.335 0.324-0.784 0.503-1.25 0.499s-0.912-0.191-1.242-0.521c-0.33-0.33-0.517-0.776-0.521-1.242s0.175-0.915 0.499-1.25l11.187-11.188h-31.264c-0.471 0-0.924-0.187-1.257-0.521s-0.521-0.786-0.521-1.257c0-0.472 0.187-0.924 0.521-1.257s0.786-0.521 1.257-0.521h31.264l-11.187-11.188c-0.324-0.335-0.503-0.784-0.499-1.25s0.191-0.912 0.521-1.242c0.33-0.33 0.776-0.517 1.242-0.521s0.915 0.175 1.25 0.499l14.222 14.222c0.165 0.166 0.295 0.362 0.384 0.578 0.090 0.215 0.137 0.446 0.137 0.679s-0.046 0.464-0.137 0.679c-0.089 0.216-0.219 0.412-0.384 0.578l-14.222 14.222z"></path></symbol>

<symbol id="topscroll" viewBox="0 0 32 20">
<path d="m11 6.5-5-5-5 5" stroke="#fff" stroke-width="1.6" stroke-linecap="round" stroke-linejoin="round"/></symbol>

<symbol id="close" viewBox="0 0 14 15" >
  <path d="M12.8332 1.66669L1.1665 13.3334M1.1665 1.66669L12.8332 13.3334" stroke="#0B0B0B" stroke-opacity="0.5" stroke-width="2" stroke-linecap="round" stroke-linejoin="round" /></symbol>

<symbol id="support" viewBox="0 0 129 62">
  <path d="M61.6782 11.1041C61.6782 11.1041 60.3458 1.55238 51.9896 0.333349C43.6335 -0.885683 40.5503 9.70893 40.5503 9.70893C26.0669 -7.82643 19.7603 17.7225 19.7603 17.7225C19.7603 17.7225 8.4201 10.5644 1.82362 19.7709C-3.16918 26.7884 10.9766 34.915 10.9766 34.915C10.9766 34.915 1.78824 38.0798 11.5597 51.1583C21.3279 64.1481 37.6484 44.6483 37.6484 44.6483C37.6484 44.6483 35.0179 56.8269 46.3422 60.7862C57.7652 64.742 61.2152 45.0696 61.2152 45.0696C61.2152 45.0696 62.452 60.2236 72.8294 59.8612C83.2069 59.4988 85.8023 46.3439 85.8023 46.3439C85.8023 46.3439 85.9295 58.1595 97.273 57.1413C108.616 56.1231 109.544 46.1369 109.544 46.1369C109.544 46.1369 123.371 50.8976 127.631 45.5053C131.89 40.1131 119.992 33.952 119.992 33.952C119.992 33.952 128.279 24.9532 121.867 20.0225C115.456 15.0917 109.194 22.5979 109.194 22.5979C109.194 22.5979 111.142 10.7099 102.872 9.13234C94.5035 7.55827 87.1642 15.3687 87.1642 15.3687C87.1642 15.3687 88.5385 4.03392 78.4544 1.54214C68.1727 -0.942735 61.6782 11.1041 61.6782 11.1041Z" fill="#F77D07"/></symbol>

<symbol id="instagram"  viewBox="0 0 36 36" >
<rect width="36" height="36" rx="18" fill="#F77D07"/>
<path d="M24.3589 15.378C24.3511 14.8408 24.2515 14.3079 24.061 13.8055C23.7277 12.9475 23.0489 12.2691 22.1895 11.937C21.6927 11.7504 21.1674 11.6504 20.6357 11.639C19.9519 11.6085 19.7351 11.6 17.9994 11.6C16.2636 11.6 16.0411 11.6 15.3623 11.639C14.8314 11.6504 14.3061 11.7504 13.8092 11.937C12.9499 12.2691 12.2704 12.9475 11.9377 13.8055C11.7508 14.3015 11.6499 14.8259 11.6399 15.356C11.6093 16.0393 11.6001 16.2557 11.6001 17.9886C11.6001 19.7215 11.6001 19.9429 11.6399 20.6213C11.6506 21.1521 11.7508 21.6758 11.9377 22.1732C12.2711 23.0304 12.9499 23.7088 13.81 24.0409C14.3047 24.2339 14.83 24.3432 15.363 24.3602C16.0475 24.3907 16.2643 24.4 18.0001 24.4C19.7359 24.4 19.9583 24.4 20.6371 24.3602C21.1681 24.3496 21.6934 24.2495 22.1909 24.0629C23.0503 23.7301 23.7291 23.0517 24.0625 22.1945C24.2494 21.6978 24.3496 21.1741 24.3603 20.6426C24.3909 19.9599 24.4001 19.7435 24.4001 18.0099C24.3987 16.277 24.3987 16.0571 24.3589 15.378ZM17.9951 21.2656C16.1798 21.2656 14.7091 19.7974 14.7091 17.9851C14.7091 16.1727 16.1798 14.7045 17.9951 14.7045C19.8091 14.7045 21.2811 16.1727 21.2811 17.9851C21.2811 19.7974 19.8091 21.2656 17.9951 21.2656ZM21.4119 15.3482C20.9876 15.3482 20.6457 15.0061 20.6457 14.5832C20.6457 14.1603 20.9876 13.8182 21.4119 13.8182C21.8348 13.8182 22.1774 14.1603 22.1774 14.5832C22.1774 15.0061 21.8348 15.3482 21.4119 15.3482Z" fill="white"/>
<path d="M17.9961 19.988C19.1018 19.988 19.9981 19.0917 19.9981 17.986C19.9981 16.8803 19.1018 15.984 17.9961 15.984C16.8905 15.984 15.9941 16.8803 15.9941 17.986C15.9941 19.0917 16.8905 19.988 17.9961 19.988Z" fill="white"/>
</symbol>



<symbol id="facebook" viewBox="0 0 36 36" >
<rect width="36" height="36" rx="18" fill="#F77D07"/>
<path d="M19.9946 11.5302C20.1459 11.5302 20.2973 11.5302 20.6 11.5302V13.8005C20.4486 13.8005 20.1459 13.8005 19.8432 13.8005C19.5405 13.8005 19.2378 13.8005 19.0865 13.9518C18.9351 14.1032 18.9351 14.2545 18.9351 14.6077C18.9351 14.9104 18.9351 15.1122 18.9351 15.4149H20.6V17.332H18.9351V25.6563H16.3622V17.2815H15V15.3644H16.3622V14.7086C16.3622 13.5987 16.5135 12.7914 16.8162 12.4383C17.2703 11.7824 18.1784 11.4797 19.5405 11.4797C19.6737 11.4797 19.8432 11.5302 19.9946 11.5302Z" fill="white"/>
</symbol>

<symbol id="hoverarrow" viewBox="0 0 40 40">
  <rect width="40" height="40" rx="20" fill="#F77D07" />
  <path d="M25.2451 13.8723C25.2162 13.4591 24.8578 13.1476 24.4446 13.1765L17.7111 13.6473C17.2979 13.6762 16.9863 14.0346 17.0152 14.4478C17.0441 14.861 17.4025 15.1726 17.8157 15.1437L23.8011 14.7251L24.2196 20.7105C24.2485 21.1237 24.6069 21.4353 25.0201 21.4064C25.4333 21.3775 25.7449 21.0191 25.716 20.6059L25.2451 13.8723ZM14.566 26.492L25.063 14.4167L23.9309 13.4326L13.434 25.508L14.566 26.492Z" fill="white" />
</symbol>


<symbol id="goit" viewBox="0 0 59 18">
<path fillRule="evenodd" clipRule="evenodd" d="M59.0003 0H33.04V18H59.0003V0ZM41.2384 4.95611V12.79C41.2384 12.7983 41.2386 12.8067 41.2388 12.815C41.2392 12.8315 41.2396 12.8479 41.2384 12.8639C41.2347 12.9092 41.2466 12.936 41.2975 12.9286C41.3096 12.9274 41.3218 12.9278 41.3339 12.9282L41.3404 12.9284C41.3443 12.9285 41.3482 12.9286 41.3521 12.9286C41.5669 12.9286 41.7818 12.9287 41.9968 12.9288H41.9988C42.4287 12.929 42.8588 12.9292 43.289 12.9286C43.3026 12.9286 43.3146 12.9287 43.3252 12.9289C43.3665 12.9294 43.3867 12.9297 43.3963 12.9196C43.4054 12.91 43.405 12.891 43.4042 12.8541C43.4039 12.8417 43.4036 12.8272 43.4036 12.8103V4.9672C43.4036 4.96104 43.4034 4.95488 43.4032 4.94872C43.4028 4.9364 43.4024 4.92408 43.4036 4.91176C43.4082 4.86556 43.3927 4.84153 43.3436 4.84707C43.3339 4.8483 43.3238 4.8479 43.3136 4.84749C43.3085 4.84728 43.3033 4.84707 43.2981 4.84707C43.0811 4.84707 42.8639 4.84697 42.6468 4.84687C42.2122 4.84666 41.7773 4.84646 41.343 4.84707C41.3301 4.84707 41.3188 4.8469 41.3089 4.84675C41.2731 4.8462 41.2551 4.84593 41.2462 4.85493C41.2372 4.86404 41.2375 4.88262 41.2381 4.91999C41.2382 4.93048 41.2384 4.94245 41.2384 4.95611ZM52.0227 4.84735H48.793C47.7168 4.84735 46.6405 4.84735 45.5652 4.84642C45.557 4.84642 45.5489 4.84653 45.5408 4.84663C45.5248 4.84683 45.5088 4.84704 45.4924 4.84642C45.456 4.84457 45.4433 4.86213 45.446 4.89632C45.4466 4.90675 45.4464 4.91677 45.4462 4.92692C45.4461 4.93205 45.446 4.93725 45.446 4.94252V6.81829L45.446 6.83774C45.4458 6.878 45.4457 6.89784 45.4554 6.90751C45.4648 6.91688 45.4834 6.91672 45.5201 6.91638L45.5452 6.91624H47.574C47.6401 6.91624 47.6728 6.91624 47.6891 6.93289C47.705 6.94921 47.705 6.98155 47.705 7.0456V12.8291C47.705 12.8402 47.7048 12.85 47.7047 12.8588C47.7042 12.892 47.704 12.9094 47.7124 12.9184C47.7216 12.9283 47.7412 12.9282 47.7822 12.928L47.8023 12.9279H49.7492C49.8102 12.9279 49.8404 12.9279 49.8554 12.9126C49.8702 12.8974 49.8702 12.8674 49.8702 12.8078V7.02435C49.8702 7.0118 49.87 7.0007 49.8699 6.9909C49.8693 6.95515 49.8691 6.93656 49.8781 6.92696C49.8878 6.91657 49.9084 6.91672 49.9514 6.91703L49.9785 6.91716H52.0436C52.1328 6.91716 52.1328 6.91716 52.1337 6.82753V4.961C52.1337 4.94818 52.1338 4.93679 52.1339 4.92667C52.1344 4.886 52.1347 4.86582 52.1249 4.85595C52.1152 4.84623 52.0958 4.8465 52.0574 4.84704C52.0472 4.84718 52.0357 4.84735 52.0227 4.84735Z" fill="#0B0B0B" />
<path d="M16.9595 7.99323C17.3276 7.30298 17.916 6.97218 18.487 6.95925C19.6454 6.95647 20.4028 7.619 20.6093 8.53748C20.7344 9.09097 20.6787 9.62875 20.411 10.1314C20.0958 10.7219 19.6043 11.0656 18.9429 11.1423C18.3034 11.2171 17.7451 11.0333 17.2893 10.5657C16.9969 10.2663 16.8206 9.90134 16.7457 9.48923C16.6507 8.96715 16.7091 8.46171 16.9595 7.99323Z" fill="#F77D07" />
<path fillRule="evenodd" clipRule="evenodd" d="M25.96 0H0V18H25.96L33.04 9L25.96 0ZM11.4785 7.68469C11.5179 7.71717 11.5576 7.74984 11.5977 7.78259C11.6244 7.76611 11.6408 7.74355 11.6563 7.72231C11.6599 7.71737 11.6635 7.71245 11.6671 7.70775C11.8077 7.53793 11.9473 7.36719 12.0869 7.19644C12.3674 6.85548 12.6474 6.51391 12.927 6.17202C12.9827 6.10364 12.9809 6.07222 12.9169 6.01678C12.8667 5.97243 12.8155 5.929 12.7635 5.88557C12.3195 5.51596 11.8316 5.22767 11.2789 5.06042C10.9098 4.94953 10.5325 4.88855 10.1488 4.86175C9.6481 4.82756 9.15202 4.8442 8.66051 4.9597C6.9393 5.36257 5.65478 6.81144 5.50404 8.66873C5.46384 9.16955 5.50221 9.66576 5.62829 10.1527C5.91516 11.2551 6.53823 12.0996 7.52765 12.6559C8.06667 12.959 8.65046 13.1188 9.2644 13.1687C9.78423 13.2112 10.2986 13.1789 10.8065 13.0625C11.6653 12.8657 12.4245 12.4683 13.0997 11.9C13.1536 11.8548 13.1755 11.8095 13.1755 11.7374C13.1733 10.8533 13.1734 9.96857 13.1736 9.08421L13.1737 8.42109C13.1737 8.40961 13.1729 8.39795 13.1721 8.3863C13.1703 8.36046 13.1686 8.3347 13.1755 8.31114C13.1835 8.28378 13.169 8.26809 13.1549 8.25279C13.1432 8.24019 13.1318 8.22786 13.1335 8.20949C13.1371 8.179 13.117 8.17438 13.0933 8.17438H9.46721C9.46024 8.17438 9.45317 8.17458 9.44606 8.17479C9.43175 8.1752 9.4173 8.17562 9.40326 8.17438C9.36672 8.17068 9.35484 8.18917 9.35758 8.22335C9.3588 8.23756 9.35839 8.25217 9.35798 8.26665C9.35778 8.27383 9.35758 8.28099 9.35758 8.28804C9.35758 8.48208 9.35748 8.67613 9.35738 8.87017C9.35717 9.25826 9.35697 9.64635 9.35758 10.0344C9.35758 10.0505 9.35729 10.0643 9.35704 10.0762C9.3563 10.1117 9.35591 10.13 9.3647 10.1393C9.374 10.1491 9.39359 10.1488 9.4339 10.1484C9.44394 10.1482 9.45535 10.1481 9.46813 10.1481H10.9025C10.9151 10.1481 10.9263 10.148 10.9363 10.1478C10.976 10.1474 10.9953 10.1471 11.0045 10.1568C11.0132 10.166 11.013 10.184 11.0124 10.219C11.0122 10.2313 11.012 10.2458 11.0121 10.2627C11.0127 10.347 11.0125 10.431 11.0123 10.5151C11.0122 10.5572 11.0121 10.5993 11.0121 10.6415V10.6446C11.0121 10.818 11.0121 10.8194 10.8577 10.8947C10.4055 11.1146 9.92766 11.1775 9.43432 11.1146C8.88617 11.0453 8.44764 10.782 8.12606 10.3264C7.91684 10.0298 7.80264 9.69532 7.75971 9.33496C7.7058 8.87479 7.76062 8.43218 7.96618 8.01452C8.21376 7.51278 8.58834 7.15241 9.12644 6.98701C9.50376 6.87058 9.88564 6.90107 10.2639 6.98516C10.6065 7.06093 10.9052 7.23095 11.1802 7.4444C11.281 7.52185 11.379 7.60264 11.4785 7.68469ZM21.6261 6.00842C20.781 5.2267 19.7742 4.85432 18.7337 4.846C18.2531 4.84693 17.8941 4.88666 17.5131 4.98738C16.4076 5.28029 15.5425 5.90863 14.9678 6.91212C14.3776 7.94148 14.258 9.04569 14.5878 10.1813C14.9569 11.4509 15.7435 12.375 16.9604 12.8896C17.895 13.2842 18.8634 13.3369 19.84 13.0763C20.9747 12.7741 21.8444 12.1061 22.4145 11.0638C22.8951 10.185 23.0239 9.24251 22.8448 8.25842C22.684 7.37413 22.2821 6.61643 21.6261 6.00842Z" fill="#F77D07" /></symbol>
</defs>
</svg>




