<svg aria-hidden="true" style="position: absolute; width: 0; height: 0; overflow: hidden;" version="1.1" xmlns="http://www.w3.org/2000/svg" xmlns:xlink="http://www.w3.org/1999/xlink">
<defs>
<symbol id="main-logo" viewBox="0 0 92 32">
<title>MISTOHUB</title>
<path d="M38.744 5.446h-0.205v5.606h-3.397v-10.157h4.666l2.067 5.891h0.246l2.067-5.891h4.666v10.157h-3.397v-5.606h-0.225l-2.006 5.606h-2.456l-2.026-5.606z"></path>
<path d="M51.657 0.896h3.438v10.157h-3.438v-10.157z"></path>
<path d="M68.544 6.99v0.65c-0.532 1.93-2.742 3.656-5.567 3.656-3.254 0-5.649-2.072-5.649-5.322s2.395-5.322 5.649-5.322c2.701 0 5.035 1.706 5.567 3.656v0.65h-3.602c-0.327-0.691-1.044-1.097-1.965-1.097-1.31 0-2.169 0.792-2.169 2.113s0.86 2.113 2.169 2.113c0.921 0 1.637-0.406 1.965-1.097h3.602z"></path>
<path d="M76.4 11.053h-3.438v-6.988h-3.111v-3.169h9.639v3.169h-3.090v6.988z"></path>
<path d="M80.8 5.974c0-3.25 2.395-5.322 5.649-5.322s5.648 2.072 5.648 5.322c0 3.25-2.395 5.322-5.648 5.322s-5.649-2.072-5.649-5.322zM84.279 5.974c0 1.32 0.859 2.113 2.17 2.113s2.169-0.792 2.169-2.113-0.859-2.113-2.169-2.113c-1.31 0-2.17 0.792-2.17 2.113z"></path>
<path d="M40.894 28.867h-0.266l-1.944 2.498h-3.541v-0.65l3.438-4.205v-0.508l-3.336-4.144v-0.65h3.643l1.903 2.356h0.246l1.821-2.356h3.541v0.65l-3.295 4.083v0.488l3.459 4.286v0.65h-3.643l-2.026-2.498zM38.766 26.227v0.061l0.020-0.041-0.020-0.020zM42.92 26.206v-0.020h-0.021l0.021 0.020z"></path>
<path d="M58.925 31.366h-3.438v-0.955c-0.798 0.772-1.842 1.198-3.049 1.198-2.64 0-4.564-2.072-4.564-5.322s1.924-5.322 4.564-5.322c1.208 0 2.251 0.447 3.049 1.219v-0.975h3.438v10.157zM55.61 26.288c0-1.32-0.839-2.113-2.128-2.113s-2.128 0.792-2.128 2.113 0.839 2.113 2.128 2.113c1.289 0 2.128-0.792 2.128-2.113z"></path>
<path d="M72.473 26.592c0 3.047-2.701 5.017-5.403 5.017-3.479 0-5.894-2.499-5.894-6.805 0-4.55 3.111-6.927 6.549-7.313 0.552-0.061 1.187-0.183 1.187-0.569h3.172c0 2.62-1.617 3.453-4.359 3.778-1.924 0.244-3.090 0.772-3.643 2.316l0.082 0.041c0.737-0.833 1.883-1.503 3.234-1.503 3.111 0 5.076 2.113 5.076 5.038zM67.007 28.441c1.269 0 2.128-0.711 2.128-1.991s-0.86-1.991-2.128-1.991c-1.269 0-2.128 0.711-2.128 1.991s0.86 1.991 2.128 1.991z"></path>
<path fill="#f77d07" style="fill: var(--color2, #f77d07)" d="M28.165 17.86h-28.142v-9.186l14.072-8.284 14.070 8.284v9.186z"></path>
<path fill="#f77d07" style="fill: var(--color2, #f77d07)" d="M28.187 31.303c-3.461 0-5.352-1.272-6.731-2.2-1.011-0.68-1.429-0.961-2.665-0.961s-1.656 0.282-2.665 0.961c-1.379 0.928-3.27 2.2-6.731 2.2s-5.352-1.272-6.731-2.202c-1.011-0.68-1.429-0.961-2.665-0.961v-7.189c3.461 0 5.352 1.272 6.731 2.202 1.011 0.68 1.429 0.961 2.665 0.961s1.656-0.282 2.665-0.961c1.379-0.928 3.27-2.2 6.731-2.2s5.352 1.272 6.731 2.202c1.011 0.68 1.429 0.961 2.665 0.961v7.187z"></path>
<path fill="#f77d07" style="fill: var(--color2, #f77d07)" d="M92.003 24.126v7.211h-12.484v-7.211c0-3.419 2.797-6.195 6.242-6.195s6.242 2.777 6.242 6.195z"></path>
</symbol>
<symbol id="burger-menu" viewBox="0 0 37 32">
<title>Menu</title>
<path stroke-linejoin="round" stroke-linecap="round" stroke-width="2.1787" d="M31.5 18.673h-27.234"></path>
<path stroke-linejoin="round" stroke-linecap="round" stroke-width="2.1787" d="M31.5 13.34h-27.234"></path>
</symbol>
<symbol id="cloud" viewBox="0 0 66 32">
<path d="M31.206 5.564c0 0-0.86-4.984-5.189-5.476s-5.727 5.118-5.727 5.118c-7.784-8.937-10.572 4.569-10.572 4.569s-5.975-3.552-9.209 1.391c-2.447 3.768 4.992 7.778 4.992 7.778s-4.679 1.822 0.595 8.506c5.271 6.638 13.33-3.875 13.33-3.875s-1.135 6.432 4.774 8.307c5.96 1.872 7.382-8.503 7.382-8.503s0.912 7.923 6.255 7.55c5.343-0.374 6.443-7.316 6.443-7.316s0.279 6.193 6.108 5.458c5.829-0.735 6.127-5.987 6.127-5.987s7.214 2.251 9.312-0.651c2.098-2.902-4.147-5.922-4.147-5.922s4.108-4.865 0.714-7.336c-3.394-2.472-6.486 1.575-6.486 1.575s0.789-6.267-3.503-6.948c-4.343-0.677-7.985 3.548-7.985 3.548s0.503-5.967-4.74-7.095c-5.345-1.121-8.475 5.31-8.475 5.31z"></path>
</symbol>
<symbol id="icon-logo-goit" viewBox="0 0 107 32">
<path fill="#0b0b0b" style="fill: var(--color1, #0b0b0b)" d="M106.667 0v32h-46.933v-32h46.933zM74.555 8.811v13.927c0 0.015 0 0.030 0.001 0.044 0.001 0.029 0.001 0.059-0.001 0.087-0.007 0.080 0.015 0.128 0.107 0.115 0.022-0.002 0.044-0.002 0.066-0.001l0.012 0c0.007 0 0.014 0 0.021 0 0.388 0 0.777 0 1.166 0h0.004c0.777 0 1.555 0.001 2.332-0 0.025 0 0.046 0 0.066 0 0.075 0.001 0.111 0.001 0.129-0.017s0.016-0.051 0.014-0.116c-0-0.022-0.001-0.048-0.001-0.078v-13.943c0-0.011-0-0.022-0.001-0.033-0.001-0.022-0.001-0.044 0.001-0.066 0.008-0.082-0.020-0.125-0.108-0.115-0.017 0.002-0.036 0.001-0.054 0.001-0.009-0-0.019-0.001-0.028-0.001-0.392 0-0.785-0-1.178-0-0.786-0-1.572-0.001-2.357 0-0.023 0-0.044-0-0.062-0.001-0.065-0.001-0.097-0.001-0.113 0.015s-0.016 0.049-0.015 0.116c0 0.019 0.001 0.040 0.001 0.064zM94.052 8.617h-5.839c-1.946 0-3.892 0-5.836-0.002-0.015 0-0.030 0-0.044 0-0.029 0-0.058 0.001-0.088-0-0.066-0.003-0.089 0.028-0.084 0.089 0.001 0.019 0.001 0.036 0 0.054-0 0.009-0 0.018-0 0.028v3.335l-0 0.035c-0 0.072-0.001 0.107 0.017 0.124s0.051 0.016 0.117 0.016l0.045-0h3.668c0.12 0 0.179 0 0.208 0.030s0.029 0.086 0.029 0.2v10.282c0 0.020-0 0.037-0.001 0.053-0.001 0.059-0.001 0.090 0.014 0.106 0.017 0.017 0.052 0.017 0.126 0.017l0.036-0h3.52c0.11 0 0.165 0 0.192-0.027s0.027-0.080 0.027-0.186v-10.282c0-0.022-0-0.042-0.001-0.059-0.001-0.064-0.001-0.097 0.015-0.114 0.018-0.018 0.055-0.018 0.133-0.018l0.049 0h3.734c0.161 0 0.161 0 0.163-0.159v-3.318c0-0.023 0-0.043 0-0.061 0.001-0.072 0.001-0.108-0.016-0.126s-0.052-0.017-0.122-0.016c-0.018 0-0.039 0.001-0.063 0.001z"></path>
<path fill="#f77d07" style="fill: var(--color2, #f77d07)" d="M30.661 14.21c0.666-1.227 1.729-1.815 2.762-1.838 2.094-0.005 3.464 1.173 3.837 2.806 0.226 0.984 0.125 1.94-0.358 2.834-0.57 1.050-1.458 1.661-2.654 1.797-1.156 0.133-2.165-0.194-2.99-1.025-0.529-0.532-0.847-1.181-0.983-1.914-0.172-0.928-0.066-1.827 0.386-2.66z"></path>
<path fill="#f77d07" style="fill: var(--color2, #f77d07)" d="M46.933 0l12.8 16-12.8 16h-46.933v-32h46.933zM20.752 13.662c0.071 0.058 0.143 0.116 0.215 0.174 0.048-0.029 0.078-0.069 0.106-0.107 0.006-0.009 0.013-0.018 0.020-0.026 0.254-0.302 0.506-0.605 0.759-0.909l0.001-0.001c0.507-0.606 1.012-1.212 1.518-1.82 0.101-0.122 0.097-0.177-0.018-0.276-0.091-0.079-0.183-0.156-0.277-0.233-0.803-0.657-1.685-1.17-2.684-1.467-0.667-0.197-1.349-0.306-2.043-0.353-0.905-0.061-1.802-0.031-2.691 0.174-3.112 0.716-5.434 3.292-5.707 6.594-0.073 0.89-0.003 1.772 0.225 2.638 0.519 1.96 1.645 3.461 3.434 4.45 0.975 0.539 2.030 0.823 3.14 0.912 0.94 0.076 1.87 0.018 2.788-0.189 1.553-0.35 2.925-1.056 4.146-2.067 0.098-0.080 0.137-0.161 0.137-0.289-0.004-1.572-0.004-3.145-0.003-4.717l0-1.179c0-0.020-0.001-0.041-0.003-0.062-0.003-0.046-0.006-0.092 0.006-0.134 0.015-0.049-0.012-0.077-0.037-0.104-0.021-0.022-0.042-0.044-0.039-0.077 0.007-0.054-0.030-0.062-0.073-0.062h-6.556c-0.013 0-0.025 0-0.038 0.001-0.026 0.001-0.052 0.002-0.077-0.001-0.066-0.007-0.087 0.026-0.083 0.087 0.002 0.025 0.002 0.051 0.001 0.077-0 0.013-0.001 0.025-0.001 0.038 0 0.345-0 0.69-0 1.035-0 0.69-0.001 1.38 0 2.070 0 0.028-0.001 0.053-0.001 0.074-0.001 0.063-0.002 0.096 0.014 0.112s0.052 0.017 0.125 0.016c0.018-0 0.039-0 0.062-0h2.593c0.023 0 0.043-0 0.061-0 0.072-0.001 0.107-0.001 0.124 0.016 0.016 0.016 0.015 0.048 0.014 0.11-0 0.022-0.001 0.048-0.001 0.078 0.001 0.15 0.001 0.299 0 0.449-0 0.075-0 0.15-0 0.225v0.005c0 0.308 0 0.311-0.279 0.445-0.818 0.391-1.681 0.503-2.573 0.391-0.991-0.123-1.784-0.591-2.365-1.401-0.378-0.527-0.585-1.122-0.662-1.763-0.097-0.818 0.002-1.605 0.373-2.348 0.448-0.892 1.125-1.533 2.098-1.827 0.682-0.207 1.373-0.153 2.056-0.003 0.619 0.135 1.159 0.437 1.657 0.816 0.182 0.138 0.359 0.281 0.539 0.427zM39.098 10.682c-1.528-1.39-3.348-2.052-5.229-2.066-0.869 0.002-1.518 0.072-2.207 0.251-1.998 0.521-3.563 1.638-4.602 3.422-1.067 1.83-1.283 3.793-0.687 5.812 0.667 2.257 2.089 3.9 4.29 4.815 1.69 0.701 3.44 0.795 5.206 0.332 2.051-0.537 3.624-1.725 4.654-3.578 0.869-1.562 1.102-3.238 0.778-4.987-0.291-1.572-1.017-2.919-2.203-4z"></path>
</symbol>
<symbol id="icon-goit-white" viewBox="0 0 107 32">
<path fill="#FFFFFF" d="M106.667 0v32h-46.933v-32h46.933zM74.555 8.811v13.927c0 0.015 0 0.030 0.001 0.044 0.001 0.029 0.001 0.059-0.001 0.087-0.007 0.080 0.015 0.128 0.107 0.115 0.022-0.002 0.044-0.002 0.066-0.001l0.012 0c0.007 0 0.014 0 0.021 0 0.388 0 0.777 0 1.166 0h0.004c0.777 0 1.555 0.001 2.332-0 0.025 0 0.046 0 0.066 0 0.075 0.001 0.111 0.001 0.129-0.017s0.016-0.051 0.014-0.116c-0-0.022-0.001-0.048-0.001-0.078v-13.943c0-0.011-0-0.022-0.001-0.033-0.001-0.022-0.001-0.044 0.001-0.066 0.008-0.082-0.020-0.125-0.108-0.115-0.017 0.002-0.036 0.001-0.054 0.001-0.009-0-0.019-0.001-0.028-0.001-0.392 0-0.785-0-1.178-0-0.786-0-1.572-0.001-2.357 0-0.023 0-0.044-0-0.062-0.001-0.065-0.001-0.097-0.001-0.113 0.015s-0.016 0.049-0.015 0.116c0 0.019 0.001 0.040 0.001 0.064zM94.052 8.617h-5.839c-1.946 0-3.892 0-5.836-0.002-0.015 0-0.030 0-0.044 0-0.029 0-0.058 0.001-0.088-0-0.066-0.003-0.089 0.028-0.084 0.089 0.001 0.019 0.001 0.036 0 0.054-0 0.009-0 0.018-0 0.028v3.335l-0 0.035c-0 0.072-0.001 0.107 0.017 0.124s0.051 0.016 0.117 0.016l0.045-0h3.668c0.12 0 0.179 0 0.208 0.030s0.029 0.086 0.029 0.2v10.282c0 0.020-0 0.037-0.001 0.053-0.001 0.059-0.001 0.090 0.014 0.106 0.017 0.017 0.052 0.017 0.126 0.017l0.036-0h3.52c0.11 0 0.165 0 0.192-0.027s0.027-0.080 0.027-0.186v-10.282c0-0.022-0-0.042-0.001-0.059-0.001-0.064-0.001-0.097 0.015-0.114 0.018-0.018 0.055-0.018 0.133-0.018l0.049 0h3.734c0.161 0 0.161 0 0.163-0.159v-3.318c0-0.023 0-0.043 0-0.061 0.001-0.072 0.001-0.108-0.016-0.126s-0.052-0.017-0.122-0.016c-0.018 0-0.039 0.001-0.063 0.001z"></path>
<path  d="M30.661 14.21c0.666-1.227 1.729-1.815 2.762-1.838 2.094-0.005 3.464 1.173 3.837 2.806 0.226 0.984 0.125 1.94-0.358 2.834-0.57 1.050-1.458 1.661-2.654 1.797-1.156 0.133-2.165-0.194-2.99-1.025-0.529-0.532-0.847-1.181-0.983-1.914-0.172-0.928-0.066-1.827 0.386-2.66z"></path>
<path  d="M46.933 0l12.8 16-12.8 16h-46.933v-32h46.933zM20.752 13.662c0.071 0.058 0.143 0.116 0.215 0.174 0.048-0.029 0.078-0.069 0.106-0.107 0.006-0.009 0.013-0.018 0.020-0.026 0.254-0.302 0.506-0.605 0.759-0.909l0.001-0.001c0.507-0.606 1.012-1.212 1.518-1.82 0.101-0.122 0.097-0.177-0.018-0.276-0.091-0.079-0.183-0.156-0.277-0.233-0.803-0.657-1.685-1.17-2.684-1.467-0.667-0.197-1.349-0.306-2.043-0.353-0.905-0.061-1.802-0.031-2.691 0.174-3.112 0.716-5.434 3.292-5.707 6.594-0.073 0.89-0.003 1.772 0.225 2.638 0.519 1.96 1.645 3.461 3.434 4.45 0.975 0.539 2.030 0.823 3.14 0.912 0.94 0.076 1.87 0.018 2.788-0.189 1.553-0.35 2.925-1.056 4.146-2.067 0.098-0.080 0.137-0.161 0.137-0.289-0.004-1.572-0.004-3.145-0.003-4.717l0-1.179c0-0.020-0.001-0.041-0.003-0.062-0.003-0.046-0.006-0.092 0.006-0.134 0.015-0.049-0.012-0.077-0.037-0.104-0.021-0.022-0.042-0.044-0.039-0.077 0.007-0.054-0.030-0.062-0.073-0.062h-6.556c-0.013 0-0.025 0-0.038 0.001-0.026 0.001-0.052 0.002-0.077-0.001-0.066-0.007-0.087 0.026-0.083 0.087 0.002 0.025 0.002 0.051 0.001 0.077-0 0.013-0.001 0.025-0.001 0.038 0 0.345-0 0.69-0 1.035-0 0.69-0.001 1.38 0 2.070 0 0.028-0.001 0.053-0.001 0.074-0.001 0.063-0.002 0.096 0.014 0.112s0.052 0.017 0.125 0.016c0.018-0 0.039-0 0.062-0h2.593c0.023 0 0.043-0 0.061-0 0.072-0.001 0.107-0.001 0.124 0.016 0.016 0.016 0.015 0.048 0.014 0.11-0 0.022-0.001 0.048-0.001 0.078 0.001 0.15 0.001 0.299 0 0.449-0 0.075-0 0.15-0 0.225v0.005c0 0.308 0 0.311-0.279 0.445-0.818 0.391-1.681 0.503-2.573 0.391-0.991-0.123-1.784-0.591-2.365-1.401-0.378-0.527-0.585-1.122-0.662-1.763-0.097-0.818 0.002-1.605 0.373-2.348 0.448-0.892 1.125-1.533 2.098-1.827 0.682-0.207 1.373-0.153 2.056-0.003 0.619 0.135 1.159 0.437 1.657 0.816 0.182 0.138 0.359 0.281 0.539 0.427zM39.098 10.682c-1.528-1.39-3.348-2.052-5.229-2.066-0.869 0.002-1.518 0.072-2.207 0.251-1.998 0.521-3.563 1.638-4.602 3.422-1.067 1.83-1.283 3.793-0.687 5.812 0.667 2.257 2.089 3.9 4.29 4.815 1.69 0.701 3.44 0.795 5.206 0.332 2.051-0.537 3.624-1.725 4.654-3.578 0.869-1.562 1.102-3.238 0.778-4.987-0.291-1.572-1.017-2.919-2.203-4z"></path>
</symbol>
<symbol id="icon-arrow-back" viewBox="0 0 37 32">
<path d="M34.126 13.99h-26.838l8.214-8.769c0.384-0.411 0.569-0.94 0.514-1.472s-0.346-1.022-0.808-1.364c-0.462-0.341-1.058-0.506-1.656-0.457s-1.15 0.307-1.534 0.718l-11.314 12.067c-0.076 0.096-0.144 0.197-0.204 0.302 0 0.101 0 0.161-0.158 0.261-0.103 0.231-0.156 0.476-0.158 0.724 0.002 0.248 0.056 0.493 0.158 0.724 0 0.101 0 0.161 0.158 0.261 0.059 0.105 0.128 0.206 0.204 0.302l11.314 12.068c0.213 0.227 0.479 0.41 0.78 0.535s0.63 0.19 0.962 0.189c0.529 0.001 1.041-0.163 1.448-0.462 0.229-0.169 0.419-0.376 0.557-0.61s0.224-0.49 0.252-0.754c0.027-0.263-0.004-0.529-0.092-0.782s-0.232-0.487-0.422-0.691l-8.214-8.769h26.838c0.6 0 1.176-0.212 1.6-0.589s0.663-0.889 0.663-1.422-0.238-1.045-0.663-1.422c-0.424-0.377-1-0.589-1.6-0.589z"></path>
</symbol>
<symbol id="icon-arrow-next" viewBox="0 0 37 32">
<path d="M2.446 13.99h26.837l-8.214-8.769c-0.384-0.411-0.569-0.94-0.514-1.472s0.346-1.022 0.808-1.364c0.462-0.341 1.058-0.506 1.656-0.457s1.15 0.307 1.534 0.718l11.314 12.067c0.076 0.096 0.144 0.197 0.204 0.302 0 0.101 0 0.161 0.158 0.261 0.103 0.231 0.156 0.476 0.158 0.724-0.002 0.248-0.056 0.493-0.158 0.724 0 0.101 0 0.161-0.158 0.261-0.059 0.105-0.128 0.206-0.204 0.302l-11.314 12.068c-0.213 0.227-0.479 0.41-0.78 0.535s-0.63 0.19-0.962 0.189c-0.529 0.001-1.041-0.163-1.448-0.462-0.229-0.169-0.419-0.376-0.557-0.61s-0.224-0.49-0.252-0.754c-0.027-0.263 0.004-0.529 0.092-0.782s0.232-0.487 0.422-0.691l8.214-8.769h-26.837c-0.6 0-1.176-0.212-1.6-0.589s-0.663-0.889-0.663-1.422c0-0.533 0.238-1.045 0.663-1.422s1-0.589 1.6-0.589z"></path>
</symbol>
<symbol id="icon-close" viewBox="0 0 32 32">
<path stroke-linejoin="round" stroke-linecap="round" stroke-miterlimit="4" stroke-width="4.5714" d="M29.334 2.667l-26.667 26.667M2.667 2.667l26.667 26.667"></path>
</symbol>
<symbol id="icon-linkedin" viewBox="0 0 32 32">
<path d="M12.081 11.383h5.659v2.819c0.815-1.621 2.906-3.078 6.047-3.078 6.021 0 7.45 3.227 7.45 9.149v10.967h-6.095v-9.618c0-3.372-0.815-5.274-2.891-5.274-2.878 0-4.075 2.050-4.075 5.272v9.62h-6.095v-19.857zM1.629 30.981h6.095v-19.857h-6.095v19.857zM8.598 4.649c0 0.511-0.101 1.017-0.298 1.488s-0.486 0.899-0.849 1.258c-0.737 0.732-1.734 1.142-2.773 1.14-1.037-0.001-2.032-0.41-2.77-1.138-0.362-0.36-0.65-0.788-0.847-1.26s-0.298-0.977-0.299-1.488c0-1.032 0.411-2.019 1.147-2.747 0.737-0.73 1.733-1.139 2.77-1.138 1.039 0 2.036 0.41 2.772 1.138 0.734 0.728 1.147 1.716 1.147 2.747z"></path>
</symbol>
<symbol id="icon-instagram" viewBox="0 0 32 32">
<path d="M28.718 10.756c-0.016-1.074-0.215-2.14-0.596-3.145-0.667-1.716-2.024-3.073-3.743-3.737-0.994-0.373-2.044-0.573-3.108-0.596-1.368-0.061-1.801-0.078-5.273-0.078s-3.916 0-5.274 0.078c-1.062 0.023-2.112 0.223-3.106 0.596-1.719 0.664-3.078 2.021-3.743 3.737-0.374 0.992-0.576 2.041-0.596 3.101-0.061 1.367-0.080 1.8-0.080 5.265s0 3.909 0.080 5.265c0.021 1.062 0.222 2.109 0.596 3.104 0.667 1.715 2.024 3.071 3.744 3.736 0.989 0.386 2.040 0.604 3.106 0.639 1.369 0.061 1.803 0.080 5.274 0.080s3.916 0 5.274-0.080c1.062-0.021 2.112-0.221 3.108-0.595 1.719-0.666 3.076-2.022 3.743-3.737 0.374-0.994 0.574-2.041 0.596-3.104 0.061-1.365 0.080-1.798 0.080-5.265-0.003-3.466-0.003-3.906-0.082-5.264zM15.99 22.531c-3.631 0-6.572-2.936-6.572-6.561s2.941-6.561 6.572-6.561c3.628 0 6.572 2.936 6.572 6.561s-2.944 6.561-6.572 6.561zM22.824 10.696c-0.849 0-1.532-0.684-1.532-1.53s0.684-1.53 1.532-1.53c0.846 0 1.531 0.684 1.531 1.53s-0.685 1.53-1.531 1.53z"></path>
<path d="M15.992 19.976c2.211 0 4.004-1.793 4.004-4.004s-1.793-4.004-4.004-4.004-4.004 1.793-4.004 4.004c0 2.211 1.793 4.004 4.004 4.004z"></path>
</symbol>
<symbol id="icon-faceb" viewBox="0 0 32 32">
<path d="M19.989 3.060c0.303 0 0.605 0 1.211 0v4.541c-0.303 0-0.908 0-1.513 0s-1.211 0-1.514 0.303-0.303 0.605-0.303 1.312c0 0.605 0 1.009 0 1.614h3.33v3.834h-3.33v16.649h-5.146v-16.75h-2.724v-3.834h2.724v-1.312c0-2.22 0.303-3.834 0.908-4.541 0.908-1.312 2.724-1.917 5.449-1.917 0.266 0 0.605 0.101 0.908 0.101z"></path>
</symbol>

</defs>
</svg>


