<svg aria-hidden="true" style="position: absolute; width: 0; height: 0; overflow: hidden;" version="1.1" xmlns="http://www.w3.org/2000/svg" xmlns:xlink="http://www.w3.org/1999/xlink">
<defs>
<symbol id="main-logo" viewBox="0 0 92 32">
<title>MISTOHUB</title>
<path d="M38.744 5.446h-0.205v5.606h-3.397v-10.157h4.666l2.067 5.891h0.246l2.067-5.891h4.666v10.157h-3.397v-5.606h-0.225l-2.006 5.606h-2.456l-2.026-5.606z"></path>
<path d="M51.657 0.896h3.438v10.157h-3.438v-10.157z"></path>
<path d="M68.544 6.99v0.65c-0.532 1.93-2.742 3.656-5.567 3.656-3.254 0-5.649-2.072-5.649-5.322s2.395-5.322 5.649-5.322c2.701 0 5.035 1.706 5.567 3.656v0.65h-3.602c-0.327-0.691-1.044-1.097-1.965-1.097-1.31 0-2.169 0.792-2.169 2.113s0.86 2.113 2.169 2.113c0.921 0 1.637-0.406 1.965-1.097h3.602z"></path>
<path d="M76.4 11.053h-3.438v-6.988h-3.111v-3.169h9.639v3.169h-3.090v6.988z"></path>
<path d="M80.8 5.974c0-3.25 2.395-5.322 5.649-5.322s5.648 2.072 5.648 5.322c0 3.25-2.395 5.322-5.648 5.322s-5.649-2.072-5.649-5.322zM84.279 5.974c0 1.32 0.859 2.113 2.17 2.113s2.169-0.792 2.169-2.113-0.859-2.113-2.169-2.113c-1.31 0-2.17 0.792-2.17 2.113z"></path>
<path d="M40.894 28.867h-0.266l-1.944 2.498h-3.541v-0.65l3.438-4.205v-0.508l-3.336-4.144v-0.65h3.643l1.903 2.356h0.246l1.821-2.356h3.541v0.65l-3.295 4.083v0.488l3.459 4.286v0.65h-3.643l-2.026-2.498zM38.766 26.227v0.061l0.020-0.041-0.020-0.020zM42.92 26.206v-0.020h-0.021l0.021 0.020z"></path>
<path d="M58.925 31.366h-3.438v-0.955c-0.798 0.772-1.842 1.198-3.049 1.198-2.64 0-4.564-2.072-4.564-5.322s1.924-5.322 4.564-5.322c1.208 0 2.251 0.447 3.049 1.219v-0.975h3.438v10.157zM55.61 26.288c0-1.32-0.839-2.113-2.128-2.113s-2.128 0.792-2.128 2.113 0.839 2.113 2.128 2.113c1.289 0 2.128-0.792 2.128-2.113z"></path>
<path d="M72.473 26.592c0 3.047-2.701 5.017-5.403 5.017-3.479 0-5.894-2.499-5.894-6.805 0-4.55 3.111-6.927 6.549-7.313 0.552-0.061 1.187-0.183 1.187-0.569h3.172c0 2.62-1.617 3.453-4.359 3.778-1.924 0.244-3.090 0.772-3.643 2.316l0.082 0.041c0.737-0.833 1.883-1.503 3.234-1.503 3.111 0 5.076 2.113 5.076 5.038zM67.007 28.441c1.269 0 2.128-0.711 2.128-1.991s-0.86-1.991-2.128-1.991c-1.269 0-2.128 0.711-2.128 1.991s0.86 1.991 2.128 1.991z"></path>
<path fill="#f77d07" style="fill: var(--color2, #f77d07)" d="M28.165 17.86h-28.142v-9.186l14.072-8.284 14.070 8.284v9.186z"></path>
<path fill="#f77d07" style="fill: var(--color2, #f77d07)" d="M28.187 31.303c-3.461 0-5.352-1.272-6.731-2.2-1.011-0.68-1.429-0.961-2.665-0.961s-1.656 0.282-2.665 0.961c-1.379 0.928-3.27 2.2-6.731 2.2s-5.352-1.272-6.731-2.202c-1.011-0.68-1.429-0.961-2.665-0.961v-7.189c3.461 0 5.352 1.272 6.731 2.202 1.011 0.68 1.429 0.961 2.665 0.961s1.656-0.282 2.665-0.961c1.379-0.928 3.27-2.2 6.731-2.2s5.352 1.272 6.731 2.202c1.011 0.68 1.429 0.961 2.665 0.961v7.187z"></path>
<path fill="#f77d07" style="fill: var(--color2, #f77d07)" d="M92.003 24.126v7.211h-12.484v-7.211c0-3.419 2.797-6.195 6.242-6.195s6.242 2.777 6.242 6.195z"></path>
</symbol>
<symbol id="burger-menu" viewBox="0 0 37 32">
<title>Menu</title>
<path stroke-linejoin="round" stroke-linecap="round" stroke-width="2.1787" d="M31.5 18.673h-27.234"></path>
<path stroke-linejoin="round" stroke-linecap="round" stroke-width="2.1787" d="M31.5 13.34h-27.234"></path>
</symbol>
<symbol id="cloud" viewBox="0 0 66 32">
<path d="M31.206 5.564c0 0-0.86-4.984-5.189-5.476s-5.727 5.118-5.727 5.118c-7.784-8.937-10.572 4.569-10.572 4.569s-5.975-3.552-9.209 1.391c-2.447 3.768 4.992 7.778 4.992 7.778s-4.679 1.822 0.595 8.506c5.271 6.638 13.33-3.875 13.33-3.875s-1.135 6.432 4.774 8.307c5.96 1.872 7.382-8.503 7.382-8.503s0.912 7.923 6.255 7.55c5.343-0.374 6.443-7.316 6.443-7.316s0.279 6.193 6.108 5.458c5.829-0.735 6.127-5.987 6.127-5.987s7.214 2.251 9.312-0.651c2.098-2.902-4.147-5.922-4.147-5.922s4.108-4.865 0.714-7.336c-3.394-2.472-6.486 1.575-6.486 1.575s0.789-6.267-3.503-6.948c-4.343-0.677-7.985 3.548-7.985 3.548s0.503-5.967-4.74-7.095c-5.345-1.121-8.475 5.31-8.475 5.31z"></path>
</symbol>

<symbol id="house" viewBox="0 0 50 50">
     <path d="M36.087 22.883H.029v-11.77L18.06.5l18.028 10.614v11.769Z" />
    </symbol>
    <symbol id="wave" viewBox="0 0 64 64">
     <path d="M36.115 14.107c-4.434 0-6.857-1.63-8.624-2.819-1.296-.872-1.83-1.23-3.414-1.23s-2.122.361-3.414 1.23c-1.768 1.19-4.19 2.819-8.625 2.819-4.434 0-6.857-1.63-8.624-2.821-1.295-.872-1.83-1.231-3.414-1.231V.844c4.434 0 6.857 1.63 8.624 2.821 1.296.872 1.83 1.231 3.414 1.231s2.122-.362 3.414-1.23c1.768-1.19 4.19-2.82 8.625-2.82 4.434 0 6.857 1.63 8.624 2.822 1.295.872 1.83 1.23 3.414 1.23v9.212-.003Z"/>
    </symbol>

</defs>
</svg>


