<svg aria-hidden="true" style="position: absolute; width: 0; height: 0; overflow: hidden;" version="1.1" xmlns="http://www.w3.org/2000/svg" xmlns:xlink="http://www.w3.org/1999/xlink">
<defs>
<symbol id="Vector" viewBox="0 0 43 32">
<path d="M26.139 31.457c-0.335 0.324-0.784 0.503-1.25 0.499s-0.912-0.191-1.242-0.521c-0.33-0.33-0.517-0.776-0.521-1.242s0.175-0.915 0.499-1.25l11.187-11.188h-31.264c-0.471 0-0.924-0.187-1.257-0.521s-0.521-0.786-0.521-1.257c0-0.472 0.187-0.924 0.521-1.257s0.786-0.521 1.257-0.521h31.264l-11.187-11.188c-0.324-0.335-0.503-0.784-0.499-1.25s0.191-0.912 0.521-1.242c0.33-0.33 0.776-0.517 1.242-0.521s0.915 0.175 1.25 0.499l14.222 14.222c0.165 0.166 0.295 0.362 0.384 0.578 0.090 0.215 0.137 0.446 0.137 0.679s-0.046 0.464-0.137 0.679c-0.089 0.216-0.219 0.412-0.384 0.578l-14.222 14.222z"></path>
</symbol>
<symbol id="icon-logo-goit" viewBox="0 0 107 32">
<path fill="#0b0b0b" style="fill: var(--color1, #0b0b0b)" d="M106.667 0v32h-46.933v-32h46.933zM74.555 8.811v13.927c0 0.015 0 0.030 0.001 0.044 0.001 0.029 0.001 0.059-0.001 0.087-0.007 0.080 0.015 0.128 0.107 0.115 0.022-0.002 0.044-0.002 0.066-0.001l0.012 0c0.007 0 0.014 0 0.021 0 0.388 0 0.777 0 1.166 0h0.004c0.777 0 1.555 0.001 2.332-0 0.025 0 0.046 0 0.066 0 0.075 0.001 0.111 0.001 0.129-0.017s0.016-0.051 0.014-0.116c-0-0.022-0.001-0.048-0.001-0.078v-13.943c0-0.011-0-0.022-0.001-0.033-0.001-0.022-0.001-0.044 0.001-0.066 0.008-0.082-0.020-0.125-0.108-0.115-0.017 0.002-0.036 0.001-0.054 0.001-0.009-0-0.019-0.001-0.028-0.001-0.392 0-0.785-0-1.178-0-0.786-0-1.572-0.001-2.357 0-0.023 0-0.044-0-0.062-0.001-0.065-0.001-0.097-0.001-0.113 0.015s-0.016 0.049-0.015 0.116c0 0.019 0.001 0.040 0.001 0.064zM94.052 8.617h-5.839c-1.946 0-3.892 0-5.836-0.002-0.015 0-0.030 0-0.044 0-0.029 0-0.058 0.001-0.088-0-0.066-0.003-0.089 0.028-0.084 0.089 0.001 0.019 0.001 0.036 0 0.054-0 0.009-0 0.018-0 0.028v3.335l-0 0.035c-0 0.072-0.001 0.107 0.017 0.124s0.051 0.016 0.117 0.016l0.045-0h3.668c0.12 0 0.179 0 0.208 0.030s0.029 0.086 0.029 0.2v10.282c0 0.020-0 0.037-0.001 0.053-0.001 0.059-0.001 0.090 0.014 0.106 0.017 0.017 0.052 0.017 0.126 0.017l0.036-0h3.52c0.11 0 0.165 0 0.192-0.027s0.027-0.080 0.027-0.186v-10.282c0-0.022-0-0.042-0.001-0.059-0.001-0.064-0.001-0.097 0.015-0.114 0.018-0.018 0.055-0.018 0.133-0.018l0.049 0h3.734c0.161 0 0.161 0 0.163-0.159v-3.318c0-0.023 0-0.043 0-0.061 0.001-0.072 0.001-0.108-0.016-0.126s-0.052-0.017-0.122-0.016c-0.018 0-0.039 0.001-0.063 0.001z"></path>
<path fill="#f77d07" style="fill: var(--color2, #f77d07)" d="M30.661 14.21c0.666-1.227 1.729-1.815 2.762-1.838 2.094-0.005 3.464 1.173 3.837 2.806 0.226 0.984 0.125 1.94-0.358 2.834-0.57 1.050-1.458 1.661-2.654 1.797-1.156 0.133-2.165-0.194-2.99-1.025-0.529-0.532-0.847-1.181-0.983-1.914-0.172-0.928-0.066-1.827 0.386-2.66z"></path>
<path fill="#f77d07" style="fill: var(--color2, #f77d07)" d="M46.933 0l12.8 16-12.8 16h-46.933v-32h46.933zM20.752 13.662c0.071 0.058 0.143 0.116 0.215 0.174 0.048-0.029 0.078-0.069 0.106-0.107 0.006-0.009 0.013-0.018 0.020-0.026 0.254-0.302 0.506-0.605 0.759-0.909l0.001-0.001c0.507-0.606 1.012-1.212 1.518-1.82 0.101-0.122 0.097-0.177-0.018-0.276-0.091-0.079-0.183-0.156-0.277-0.233-0.803-0.657-1.685-1.17-2.684-1.467-0.667-0.197-1.349-0.306-2.043-0.353-0.905-0.061-1.802-0.031-2.691 0.174-3.112 0.716-5.434 3.292-5.707 6.594-0.073 0.89-0.003 1.772 0.225 2.638 0.519 1.96 1.645 3.461 3.434 4.45 0.975 0.539 2.030 0.823 3.14 0.912 0.94 0.076 1.87 0.018 2.788-0.189 1.553-0.35 2.925-1.056 4.146-2.067 0.098-0.080 0.137-0.161 0.137-0.289-0.004-1.572-0.004-3.145-0.003-4.717l0-1.179c0-0.020-0.001-0.041-0.003-0.062-0.003-0.046-0.006-0.092 0.006-0.134 0.015-0.049-0.012-0.077-0.037-0.104-0.021-0.022-0.042-0.044-0.039-0.077 0.007-0.054-0.030-0.062-0.073-0.062h-6.556c-0.013 0-0.025 0-0.038 0.001-0.026 0.001-0.052 0.002-0.077-0.001-0.066-0.007-0.087 0.026-0.083 0.087 0.002 0.025 0.002 0.051 0.001 0.077-0 0.013-0.001 0.025-0.001 0.038 0 0.345-0 0.69-0 1.035-0 0.69-0.001 1.38 0 2.070 0 0.028-0.001 0.053-0.001 0.074-0.001 0.063-0.002 0.096 0.014 0.112s0.052 0.017 0.125 0.016c0.018-0 0.039-0 0.062-0h2.593c0.023 0 0.043-0 0.061-0 0.072-0.001 0.107-0.001 0.124 0.016 0.016 0.016 0.015 0.048 0.014 0.11-0 0.022-0.001 0.048-0.001 0.078 0.001 0.15 0.001 0.299 0 0.449-0 0.075-0 0.15-0 0.225v0.005c0 0.308 0 0.311-0.279 0.445-0.818 0.391-1.681 0.503-2.573 0.391-0.991-0.123-1.784-0.591-2.365-1.401-0.378-0.527-0.585-1.122-0.662-1.763-0.097-0.818 0.002-1.605 0.373-2.348 0.448-0.892 1.125-1.533 2.098-1.827 0.682-0.207 1.373-0.153 2.056-0.003 0.619 0.135 1.159 0.437 1.657 0.816 0.182 0.138 0.359 0.281 0.539 0.427zM39.098 10.682c-1.528-1.39-3.348-2.052-5.229-2.066-0.869 0.002-1.518 0.072-2.207 0.251-1.998 0.521-3.563 1.638-4.602 3.422-1.067 1.83-1.283 3.793-0.687 5.812 0.667 2.257 2.089 3.9 4.29 4.815 1.69 0.701 3.44 0.795 5.206 0.332 2.051-0.537 3.624-1.725 4.654-3.578 0.869-1.562 1.102-3.238 0.778-4.987-0.291-1.572-1.017-2.919-2.203-4z"></path>
</symbol>
<symbol id="icon-goit-white" viewBox="0 0 107 32">
<path class="white" d="M106.667 0v32h-46.933v-32h46.933zM74.555 8.811v13.927c0 0.015 0 0.030 0.001 0.044 0.001 0.029 0.001 0.059-0.001 0.087-0.007 0.080 0.015 0.128 0.107 0.115 0.022-0.002 0.044-0.002 0.066-0.001l0.012 0c0.007 0 0.014 0 0.021 0 0.388 0 0.777 0 1.166 0h0.004c0.777 0 1.555 0.001 2.332-0 0.025 0 0.046 0 0.066 0 0.075 0.001 0.111 0.001 0.129-0.017s0.016-0.051 0.014-0.116c-0-0.022-0.001-0.048-0.001-0.078v-13.943c0-0.011-0-0.022-0.001-0.033-0.001-0.022-0.001-0.044 0.001-0.066 0.008-0.082-0.020-0.125-0.108-0.115-0.017 0.002-0.036 0.001-0.054 0.001-0.009-0-0.019-0.001-0.028-0.001-0.392 0-0.785-0-1.178-0-0.786-0-1.572-0.001-2.357 0-0.023 0-0.044-0-0.062-0.001-0.065-0.001-0.097-0.001-0.113 0.015s-0.016 0.049-0.015 0.116c0 0.019 0.001 0.040 0.001 0.064zM94.052 8.617h-5.839c-1.946 0-3.892 0-5.836-0.002-0.015 0-0.030 0-0.044 0-0.029 0-0.058 0.001-0.088-0-0.066-0.003-0.089 0.028-0.084 0.089 0.001 0.019 0.001 0.036 0 0.054-0 0.009-0 0.018-0 0.028v3.335l-0 0.035c-0 0.072-0.001 0.107 0.017 0.124s0.051 0.016 0.117 0.016l0.045-0h3.668c0.12 0 0.179 0 0.208 0.030s0.029 0.086 0.029 0.2v10.282c0 0.020-0 0.037-0.001 0.053-0.001 0.059-0.001 0.090 0.014 0.106 0.017 0.017 0.052 0.017 0.126 0.017l0.036-0h3.52c0.11 0 0.165 0 0.192-0.027s0.027-0.080 0.027-0.186v-10.282c0-0.022-0-0.042-0.001-0.059-0.001-0.064-0.001-0.097 0.015-0.114 0.018-0.018 0.055-0.018 0.133-0.018l0.049 0h3.734c0.161 0 0.161 0 0.163-0.159v-3.318c0-0.023 0-0.043 0-0.061 0.001-0.072 0.001-0.108-0.016-0.126s-0.052-0.017-0.122-0.016c-0.018 0-0.039 0.001-0.063 0.001z"></path>
<path class="orange" d="M30.661 14.21c0.666-1.227 1.729-1.815 2.762-1.838 2.094-0.005 3.464 1.173 3.837 2.806 0.226 0.984 0.125 1.94-0.358 2.834-0.57 1.050-1.458 1.661-2.654 1.797-1.156 0.133-2.165-0.194-2.99-1.025-0.529-0.532-0.847-1.181-0.983-1.914-0.172-0.928-0.066-1.827 0.386-2.66z"></path>
<path class="orange" d="M46.933 0l12.8 16-12.8 16h-46.933v-32h46.933zM20.752 13.662c0.071 0.058 0.143 0.116 0.215 0.174 0.048-0.029 0.078-0.069 0.106-0.107 0.006-0.009 0.013-0.018 0.020-0.026 0.254-0.302 0.506-0.605 0.759-0.909l0.001-0.001c0.507-0.606 1.012-1.212 1.518-1.82 0.101-0.122 0.097-0.177-0.018-0.276-0.091-0.079-0.183-0.156-0.277-0.233-0.803-0.657-1.685-1.17-2.684-1.467-0.667-0.197-1.349-0.306-2.043-0.353-0.905-0.061-1.802-0.031-2.691 0.174-3.112 0.716-5.434 3.292-5.707 6.594-0.073 0.89-0.003 1.772 0.225 2.638 0.519 1.96 1.645 3.461 3.434 4.45 0.975 0.539 2.030 0.823 3.14 0.912 0.94 0.076 1.87 0.018 2.788-0.189 1.553-0.35 2.925-1.056 4.146-2.067 0.098-0.080 0.137-0.161 0.137-0.289-0.004-1.572-0.004-3.145-0.003-4.717l0-1.179c0-0.020-0.001-0.041-0.003-0.062-0.003-0.046-0.006-0.092 0.006-0.134 0.015-0.049-0.012-0.077-0.037-0.104-0.021-0.022-0.042-0.044-0.039-0.077 0.007-0.054-0.030-0.062-0.073-0.062h-6.556c-0.013 0-0.025 0-0.038 0.001-0.026 0.001-0.052 0.002-0.077-0.001-0.066-0.007-0.087 0.026-0.083 0.087 0.002 0.025 0.002 0.051 0.001 0.077-0 0.013-0.001 0.025-0.001 0.038 0 0.345-0 0.69-0 1.035-0 0.69-0.001 1.38 0 2.070 0 0.028-0.001 0.053-0.001 0.074-0.001 0.063-0.002 0.096 0.014 0.112s0.052 0.017 0.125 0.016c0.018-0 0.039-0 0.062-0h2.593c0.023 0 0.043-0 0.061-0 0.072-0.001 0.107-0.001 0.124 0.016 0.016 0.016 0.015 0.048 0.014 0.11-0 0.022-0.001 0.048-0.001 0.078 0.001 0.15 0.001 0.299 0 0.449-0 0.075-0 0.15-0 0.225v0.005c0 0.308 0 0.311-0.279 0.445-0.818 0.391-1.681 0.503-2.573 0.391-0.991-0.123-1.784-0.591-2.365-1.401-0.378-0.527-0.585-1.122-0.662-1.763-0.097-0.818 0.002-1.605 0.373-2.348 0.448-0.892 1.125-1.533 2.098-1.827 0.682-0.207 1.373-0.153 2.056-0.003 0.619 0.135 1.159 0.437 1.657 0.816 0.182 0.138 0.359 0.281 0.539 0.427zM39.098 10.682c-1.528-1.39-3.348-2.052-5.229-2.066-0.869 0.002-1.518 0.072-2.207 0.251-1.998 0.521-3.563 1.638-4.602 3.422-1.067 1.83-1.283 3.793-0.687 5.812 0.667 2.257 2.089 3.9 4.29 4.815 1.69 0.701 3.44 0.795 5.206 0.332 2.051-0.537 3.624-1.725 4.654-3.578 0.869-1.562 1.102-3.238 0.778-4.987-0.291-1.572-1.017-2.919-2.203-4z"></path>
</symbol>
<symbol id="icon-bg-modal" viewBox="0 0 35 32">
<path fill="#fef2e6" d="M33.264 0.774c-1.85 1.289-2.294 3.847-0.988 5.702s7.022 2.872 7.022 2.872 0.995-5.693-0.311-7.548c-1.306-1.855-3.873-2.316-5.723-1.027z"></path>
<path fill="#fef2e6" d="M0.098 23.243l-4.855 0.51c-0.384 0.040-0.723 0.288-0.885 0.647l-1.991 4.462c-0.162 0.359-0.12 0.767 0.114 1.084l2.875 3.951c0.233 0.317 0.605 0.49 1.001 0.448l4.855-0.51c0.384-0.040 0.723-0.288 0.885-0.647l1.991-4.462c0.162-0.359 0.12-0.767-0.114-1.084l-2.875-3.951c-0.235-0.329-0.616-0.489-1.001-0.449z"></path>
<path fill="#fef2e6" d="M5.464 23.041l4.986-8.862-10.258 0.184 5.272 8.678z"></path>
<path fill="#fef2e6" d="M39.783 7.94c-9.905-1.681-7.814 11.978-7.814 11.978s-4.85-15.846-14.366-10.449c-9.544 5.408 1.222 14.457 1.222 14.457s-13.115-7.207-15.965 0.949c-2.85 8.157 15.751 16.486 28.571 11.361 14.76-5.906 15.043-27.146 8.352-28.295z"></path>
</symbol>
<symbol id="icon-arrow-back-icon" viewBox="0 0 32 32">
<path d="M25.333 14.666h-15.813l4.84-5.813c0.226-0.272 0.335-0.623 0.303-0.976s-0.204-0.678-0.476-0.904c-0.272-0.226-0.623-0.335-0.976-0.303s-0.678 0.204-0.904 0.476l-6.667 8c-0.045 0.064-0.085 0.13-0.12 0.2 0 0.067 0 0.107-0.093 0.173-0.060 0.153-0.092 0.316-0.093 0.48 0.001 0.164 0.033 0.327 0.093 0.48 0 0.067 0 0.107 0.093 0.173 0.035 0.070 0.075 0.136 0.12 0.2l6.667 8c0.125 0.151 0.282 0.272 0.46 0.355s0.371 0.126 0.567 0.125c0.312 0.001 0.613-0.108 0.853-0.307 0.135-0.112 0.247-0.249 0.328-0.404s0.132-0.325 0.148-0.5-0.002-0.351-0.054-0.518c-0.052-0.167-0.137-0.323-0.249-0.458l-4.84-5.813h15.813c0.354 0 0.693-0.14 0.943-0.39s0.39-0.589 0.39-0.943c0-0.354-0.14-0.693-0.39-0.943s-0.589-0.39-0.943-0.39z"></path>
</symbol>
<symbol id="icon-arrow-next-icon" viewBox="0 0 36 32">
<path d="M2.222 13.777h26.356l-8.067-9.689c-0.377-0.454-0.559-1.039-0.505-1.627s0.34-1.13 0.793-1.507c0.454-0.377 1.039-0.559 1.627-0.504s1.13 0.34 1.507 0.793l11.111 13.333c0.075 0.106 0.142 0.217 0.2 0.333 0 0.111 0 0.178 0.156 0.289 0.101 0.255 0.153 0.526 0.156 0.8-0.002 0.274-0.055 0.545-0.156 0.8 0 0.111 0 0.178-0.156 0.289-0.058 0.116-0.125 0.227-0.2 0.333l-11.111 13.333c-0.209 0.251-0.471 0.453-0.766 0.591s-0.618 0.21-0.945 0.209c-0.519 0.001-1.022-0.18-1.422-0.511-0.225-0.186-0.411-0.416-0.547-0.674s-0.22-0.541-0.247-0.833 0.004-0.585 0.091-0.864c0.087-0.279 0.228-0.538 0.415-0.763l8.067-9.689h-26.356c-0.589 0-1.155-0.234-1.571-0.651s-0.651-0.982-0.651-1.571 0.234-1.155 0.651-1.571c0.417-0.417 0.982-0.651 1.571-0.651z"></path>
</symbol>
<symbol id="icon-close-icon" viewBox="0 0 32 32">
<path stroke-linejoin="round" stroke-linecap="round" stroke-miterlimit="4" stroke-width="4.5714" d="M29.334 2.667l-26.667 26.667M2.667 2.667l26.667 26.667"></path>
</symbol>
<symbol id="icon-linkedin-icon" viewBox="0 0 32 32">
<path d="M12.081 11.383h5.659v2.819c0.815-1.621 2.906-3.078 6.047-3.078 6.021 0 7.45 3.227 7.45 9.149v10.967h-6.095v-9.618c0-3.372-0.815-5.274-2.891-5.274-2.878 0-4.075 2.050-4.075 5.272v9.62h-6.095v-19.857zM1.629 30.981h6.095v-19.857h-6.095v19.857zM8.598 4.649c0 0.511-0.101 1.017-0.298 1.488s-0.486 0.899-0.849 1.258c-0.737 0.732-1.734 1.142-2.773 1.14-1.037-0.001-2.032-0.41-2.77-1.138-0.362-0.36-0.65-0.788-0.847-1.26s-0.298-0.977-0.299-1.488c0-1.032 0.411-2.019 1.147-2.747 0.737-0.73 1.733-1.139 2.77-1.138 1.039 0 2.036 0.41 2.772 1.138 0.734 0.728 1.147 1.716 1.147 2.747z"></path>
</symbol>
</defs>
</svg>


