<svg width="373" height="256" viewBox="0 0 373 256" fill="none" xmlns="http://www.w3.org/2000/svg">
<path d="M339.305 3.92172C323.991 12.3595 318.501 31.7173 327.066 47.076C335.631 62.4347 378.89 74.906 378.89 74.906C378.89 74.906 391.174 31.8313 382.609 16.4726C374.044 1.11389 354.62 -4.51608 339.305 3.92172Z" fill="#FFF6F1"/>
<path d="M65.3343 150.247H27.4817C24.4862 150.247 21.6722 151.881 20.1291 154.515L1.15736 187.298C-0.385788 189.931 -0.385788 193.11 1.15736 195.743L20.1291 228.526C21.6722 231.16 24.3954 232.794 27.4817 232.794H65.3343C68.3299 232.794 71.1438 231.16 72.687 228.526L91.6587 195.743C93.2019 193.11 93.2019 189.931 91.6587 187.298L72.687 154.515C71.1438 151.79 68.3299 150.247 65.3343 150.247Z" fill="#FFF6F1"/>
<path d="M106.877 153.04L152.512 88.7681L73.2585 81.8759L106.877 153.04Z" fill="#FFF6F1"/>
<path d="M383.765 64.4387C308.743 43.4582 313.801 150.438 313.801 150.438C313.801 150.438 289.248 24.3625 211.486 58.2541C133.502 92.2092 209.193 170.681 209.193 170.681C209.193 170.681 113.897 104.499 85.3086 165.063C56.72 225.628 193.412 304.902 296.424 275.781C415.033 242.213 434.427 78.7199 383.765 64.4387Z" fill="#FFF6F1"/>
</svg>
