<svg width="189" height="115" viewBox="0 0 189 115" fill="none" xmlns="http://www.w3.org/2000/svg">
<g id="Vector">
<path d="M171.308 1.98867C163.576 6.26741 160.804 16.0836 165.128 23.8719C169.453 31.6601 191.293 37.9842 191.293 37.9842C191.293 37.9842 197.495 16.1414 193.171 8.35312C188.847 0.564843 179.04 -2.29007 171.308 1.98867Z" fill="#FFF6F1"/>
<path d="M32.9859 76.1889H13.8749C12.3625 76.1889 10.9418 77.0178 10.1627 78.3532L0.584328 94.9772C-0.194776 96.3126 -0.194776 97.9244 0.584328 99.2598L10.1627 115.884C10.9418 117.219 12.3167 118.048 13.8749 118.048H32.9859C34.4982 118.048 35.919 117.219 36.6981 115.884L46.2765 99.2598C47.0556 97.9244 47.0556 96.3126 46.2765 94.9772L36.6981 78.3532C35.919 76.9717 34.4982 76.1889 32.9859 76.1889Z" fill="#FFF6F1"/>
<path d="M53.9601 77.6051L77.0001 45.0136L36.9866 41.5186L53.9601 77.6051Z" fill="#FFF6F1"/>
<path d="M193.755 32.6764C155.878 22.0373 158.431 76.2862 158.431 76.2862C158.431 76.2862 146.035 12.354 106.775 29.5402C67.4024 46.7586 105.617 86.5509 105.617 86.5509C105.617 86.5509 57.5042 52.9906 43.0704 83.7023C28.6367 114.414 97.6497 154.613 149.658 139.846C209.541 122.825 219.333 39.9182 193.755 32.6764Z" fill="#FFF6F1"/>
</g>
</svg>
