

<svg aria-hidden="true" style="position: absolute; width: 0; height: 0; overflow: hidden;" version="1.1" xmlns="http://www.w3.org/2000/svg" xmlns:xlink="http://www.w3.org/1999/xlink">
<defs>
<symbol id="icon-icon" viewBox="0 0 32 32">
<path fill="#fff" style="fill: var(--color1, #fff)" d="M19.989 3.061c0.303 0 0.605 0 1.211 0v4.541c-0.303 0-0.908 0-1.514 0s-1.211 0-1.514 0.303-0.303 0.605-0.303 1.312c0 0.605 0 1.009 0 1.614h3.33v3.834h-3.33v16.649h-5.146v-16.749h-2.724v-3.834h2.724v-1.312c0-2.22 0.303-3.834 0.908-4.541 0.908-1.312 2.724-1.917 5.449-1.917 0.266 0 0.605 0.101 0.908 0.101z"></path>
</symbol>
<symbol id="icon-instagram" viewBox="0 0 32 32">
<path fill="#fff" style="fill: var(--color1, #fff)" d="M28.717 10.755c-0.016-1.074-0.215-2.14-0.596-3.145-0.667-1.716-2.024-3.073-3.743-3.737-0.994-0.373-2.044-0.573-3.108-0.596-1.368-0.061-1.801-0.078-5.273-0.078s-3.916 0-5.274 0.078c-1.062 0.023-2.112 0.223-3.106 0.596-1.719 0.664-3.078 2.021-3.743 3.737-0.374 0.992-0.576 2.041-0.596 3.101-0.061 1.367-0.080 1.8-0.080 5.265s0 3.909 0.080 5.265c0.021 1.062 0.222 2.109 0.596 3.104 0.667 1.715 2.024 3.071 3.744 3.735 0.989 0.386 2.040 0.605 3.106 0.639 1.369 0.061 1.803 0.079 5.274 0.079s3.916 0 5.274-0.079c1.062-0.021 2.113-0.221 3.108-0.595 1.719-0.666 3.076-2.022 3.743-3.737 0.374-0.993 0.574-2.041 0.596-3.104 0.061-1.365 0.080-1.798 0.080-5.265-0.003-3.466-0.003-3.906-0.083-5.264zM15.99 22.53c-3.631 0-6.572-2.936-6.572-6.561s2.941-6.561 6.572-6.561c3.628 0 6.572 2.936 6.572 6.561s-2.944 6.561-6.572 6.561zM22.824 10.696c-0.849 0-1.532-0.684-1.532-1.53s0.684-1.53 1.532-1.53c0.846 0 1.531 0.684 1.531 1.53s-0.685 1.53-1.531 1.53z"></path>
<path fill="#fff" style="fill: var(--color1, #fff)" d="M15.992 19.977c2.211 0 4.004-1.793 4.004-4.004s-1.793-4.004-4.004-4.004c-2.211 0-4.004 1.793-4.004 4.004s1.793 4.004 4.004 4.004z"></path>
</symbol>
<symbol id="icon-streamline_web" viewBox="0 0 32 32">
<path fill="none" stroke="#fff" style="stroke: var(--color1, #fff)" stroke-linejoin="round" stroke-linecap="round" stroke-miterlimit="4" stroke-width="2" d="M30.857 16c0 3.94-1.565 7.719-4.352 10.506s-6.565 4.351-10.506 4.351-7.719-1.565-10.506-4.351c-2.786-2.786-4.352-6.565-4.352-10.506M30.857 16c0-3.94-1.565-7.719-4.352-10.506s-6.565-4.352-10.506-4.352-7.719 1.565-10.506 4.352c-2.786 2.786-4.352 6.565-4.352 10.506M30.857 16h-29.714"></path>
<path fill="none" stroke="#fff" style="stroke: var(--color1, #fff)" stroke-linejoin="round" stroke-linecap="round" stroke-miterlimit="4" stroke-width="2" d="M21.714 16c-0.281 5.433-2.282 10.636-5.714 14.857-3.432-4.221-5.434-9.424-5.714-14.857 0.281-5.433 2.282-10.636 5.714-14.857 3.432 4.221 5.434 9.424 5.714 14.857z"></path>
</symbol>
<symbol id="icon-x" viewBox="0 0 32 32">
<path stroke-linejoin="round" stroke-linecap="round" stroke-miterlimit="4" stroke-width="2.2857" d="M22.666 9.333l-13.333 13.333M9.333 9.333l13.333 13.333"></path>
</symbol>
</defs>
</svg>

